<?xml version="1.0" encoding="us-ascii" standalone="no"?><svg xmlns="http://www.w3.org/2000/svg" xmlns:xlink="http://www.w3.org/1999/xlink" contentStyleType="text/css" height="942px" preserveAspectRatio="none" style="width:2569px;height:942px;background:#FFFFFF;" version="1.1" viewBox="0 0 2569 942" width="2569px" zoomAndPan="magnify"><defs/><g><text fill="#000000" font-family="sans-serif" font-size="14" font-weight="bold" lengthAdjust="spacing" textLength="157" x="1199" y="22.9951">Exception hierarchy</text><!--cluster io--><g id="cluster_io"><path d="M8.5,43.2969 L23.5,43.2969 A3.75,3.75 0 0 1 26,45.7969 L33,65.5938 L2559.5,65.5938 A2.5,2.5 0 0 1 2562,68.0938 L2562,932.7969 A2.5,2.5 0 0 1 2559.5,935.2969 L8.5,935.2969 A2.5,2.5 0 0 1 6,932.7969 L6,45.7969 A2.5,2.5 0 0 1 8.5,43.2969 " fill="none" style="stroke:#000000;stroke-width:1.5;"/><line style="stroke:#000000;stroke-width:1.5;" x1="6" x2="33" y1="65.5938" y2="65.5938"/><text fill="#000000" font-family="sans-serif" font-size="14" font-weight="bold" lengthAdjust="spacing" textLength="14" x="10" y="58.292">io</text></g><!--cluster vrap--><g id="cluster_vrap"><path d="M32.5,86.2969 L68.5,86.2969 A3.75,3.75 0 0 1 71,88.7969 L78,108.5938 L2535.5,108.5938 A2.5,2.5 0 0 1 2538,111.0938 L2538,908.7969 A2.5,2.5 0 0 1 2535.5,911.2969 L32.5,911.2969 A2.5,2.5 0 0 1 30,908.7969 L30,88.7969 A2.5,2.5 0 0 1 32.5,86.2969 " fill="none" style="stroke:#000000;stroke-width:1.5;"/><line style="stroke:#000000;stroke-width:1.5;" x1="30" x2="78" y1="108.5938" y2="108.5938"/><text fill="#000000" font-family="sans-serif" font-size="14" font-weight="bold" lengthAdjust="spacing" textLength="35" x="34" y="101.292">vrap</text></g><!--cluster rmf--><g id="cluster_rmf"><path d="M56.5,129.2969 L84.5,129.2969 A3.75,3.75 0 0 1 87,131.7969 L94,151.5938 L2511.5,151.5938 A2.5,2.5 0 0 1 2514,154.0938 L2514,884.7969 A2.5,2.5 0 0 1 2511.5,887.2969 L56.5,887.2969 A2.5,2.5 0 0 1 54,884.7969 L54,131.7969 A2.5,2.5 0 0 1 56.5,129.2969 " fill="none" style="stroke:#000000;stroke-width:1.5;"/><line style="stroke:#000000;stroke-width:1.5;" x1="54" x2="94" y1="151.5938" y2="151.5938"/><text fill="#000000" font-family="sans-serif" font-size="14" font-weight="bold" lengthAdjust="spacing" textLength="27" x="58" y="144.292">rmf</text></g><!--cluster base--><g id="cluster_base"><path d="M80.5,172.2969 L119.5,172.2969 A3.75,3.75 0 0 1 122,174.7969 L129,194.5938 L2487.5,194.5938 A2.5,2.5 0 0 1 2490,197.0938 L2490,860.7969 A2.5,2.5 0 0 1 2487.5,863.2969 L80.5,863.2969 A2.5,2.5 0 0 1 78,860.7969 L78,174.7969 A2.5,2.5 0 0 1 80.5,172.2969 " fill="none" style="stroke:#000000;stroke-width:1.5;"/><line style="stroke:#000000;stroke-width:1.5;" x1="78" x2="129" y1="194.5938" y2="194.5938"/><text fill="#000000" font-family="sans-serif" font-size="14" font-weight="bold" lengthAdjust="spacing" textLength="38" x="82" y="187.292">base</text></g><!--cluster client--><g id="cluster_client"><path d="M104.5,215.2969 L148.5,215.2969 A3.75,3.75 0 0 1 151,217.7969 L158,237.5938 L2463.5,237.5938 A2.5,2.5 0 0 1 2466,240.0938 L2466,836.7969 A2.5,2.5 0 0 1 2463.5,839.2969 L104.5,839.2969 A2.5,2.5 0 0 1 102,836.7969 L102,217.7969 A2.5,2.5 0 0 1 104.5,215.2969 " fill="none" style="stroke:#000000;stroke-width:1.5;"/><line style="stroke:#000000;stroke-width:1.5;" x1="102" x2="158" y1="237.5938" y2="237.5938"/><text fill="#000000" font-family="sans-serif" font-size="14" font-weight="bold" lengthAdjust="spacing" textLength="43" x="106" y="230.292">client</text></g><!--cluster utils--><g id="cluster_utils"><path d="M2234.5,397.2969 L2268.5,397.2969 A3.75,3.75 0 0 1 2271,399.7969 L2278,419.5938 L2439.5,419.5938 A2.5,2.5 0 0 1 2442,422.0938 L2442,560.7969 A2.5,2.5 0 0 1 2439.5,563.2969 L2234.5,563.2969 A2.5,2.5 0 0 1 2232,560.7969 L2232,399.7969 A2.5,2.5 0 0 1 2234.5,397.2969 " fill="none" style="stroke:#000000;stroke-width:1.5;"/><line style="stroke:#000000;stroke-width:1.5;" x1="2232" x2="2278" y1="419.5938" y2="419.5938"/><text fill="#000000" font-family="sans-serif" font-size="14" font-weight="bold" lengthAdjust="spacing" textLength="33" x="2236" y="412.292">utils</text></g><!--cluster json--><g id="cluster_json"><path d="M2258.5,440.2969 L2292.5,440.2969 A3.75,3.75 0 0 1 2295,442.7969 L2302,462.5938 L2415.5,462.5938 A2.5,2.5 0 0 1 2418,465.0938 L2418,536.7969 A2.5,2.5 0 0 1 2415.5,539.2969 L2258.5,539.2969 A2.5,2.5 0 0 1 2256,536.7969 L2256,442.7969 A2.5,2.5 0 0 1 2258.5,440.2969 " fill="none" style="stroke:#000000;stroke-width:1.5;"/><line style="stroke:#000000;stroke-width:1.5;" x1="2256" x2="2302" y1="462.5938" y2="462.5938"/><text fill="#000000" font-family="sans-serif" font-size="14" font-weight="bold" lengthAdjust="spacing" textLength="33" x="2260" y="455.292">json</text></g><!--cluster error--><g id="cluster_error"><path d="M128.5,258.2969 L170.5,258.2969 A3.75,3.75 0 0 1 173,260.7969 L180,280.5938 L2205.5,280.5938 A2.5,2.5 0 0 1 2208,283.0938 L2208,812.7969 A2.5,2.5 0 0 1 2205.5,815.2969 L128.5,815.2969 A2.5,2.5 0 0 1 126,812.7969 L126,260.7969 A2.5,2.5 0 0 1 128.5,258.2969 " fill="none" style="stroke:#000000;stroke-width:1.5;"/><line style="stroke:#000000;stroke-width:1.5;" x1="126" x2="180" y1="280.5938" y2="280.5938"/><text fill="#000000" font-family="sans-serif" font-size="14" font-weight="bold" lengthAdjust="spacing" textLength="41" x="130" y="273.292">error</text></g><!--class JsonException--><g id="elem_JsonException"><rect codeLine="4" fill="#F1F1F1" height="48" id="JsonException" rx="2.5" ry="2.5" style="stroke:#181818;stroke-width:0.5;" width="129" x="2272.5" y="475.2969"/><ellipse cx="2287.5" cy="491.2969" fill="#ADD1B2" rx="11" ry="11" style="stroke:#181818;stroke-width:1.0;"/><path d="M2290.4688,496.9375 Q2289.8906,497.2344 2289.25,497.375 Q2288.6094,497.5313 2287.9063,497.5313 Q2285.4063,497.5313 2284.0781,495.8906 Q2282.7656,494.2344 2282.7656,491.1094 Q2282.7656,487.9844 2284.0781,486.3281 Q2285.4063,484.6719 2287.9063,484.6719 Q2288.6094,484.6719 2289.25,484.8281 Q2289.9063,484.9844 2290.4688,485.2813 L2290.4688,488 Q2289.8438,487.4219 2289.25,487.1563 Q2288.6563,486.875 2288.0313,486.875 Q2286.6875,486.875 2286,487.9531 Q2285.3125,489.0156 2285.3125,491.1094 Q2285.3125,493.2031 2286,494.2813 Q2286.6875,495.3438 2288.0313,495.3438 Q2288.6563,495.3438 2289.25,495.0781 Q2289.8438,494.7969 2290.4688,494.2188 L2290.4688,496.9375 Z " fill="#000000"/><text fill="#000000" font-family="sans-serif" font-size="14" lengthAdjust="spacing" textLength="97" x="2301.5" y="496.1436">JsonException</text><line style="stroke:#181818;stroke-width:0.5;" x1="2273.5" x2="2400.5" y1="507.2969" y2="507.2969"/><line style="stroke:#181818;stroke-width:0.5;" x1="2273.5" x2="2400.5" y1="515.2969" y2="515.2969"/></g><!--class BaseException--><g id="elem_BaseException"><rect codeLine="7" fill="#F1F1F1" height="48" id="BaseException" rx="2.5" ry="2.5" style="stroke:#181818;stroke-width:0.5;" width="135" x="1701.5" y="313.2969"/><ellipse cx="1716.5" cy="329.2969" fill="#ADD1B2" rx="11" ry="11" style="stroke:#181818;stroke-width:1.0;"/><path d="M1719.4688,334.9375 Q1718.8906,335.2344 1718.25,335.375 Q1717.6094,335.5313 1716.9063,335.5313 Q1714.4063,335.5313 1713.0781,333.8906 Q1711.7656,332.2344 1711.7656,329.1094 Q1711.7656,325.9844 1713.0781,324.3281 Q1714.4063,322.6719 1716.9063,322.6719 Q1717.6094,322.6719 1718.25,322.8281 Q1718.9063,322.9844 1719.4688,323.2813 L1719.4688,326 Q1718.8438,325.4219 1718.25,325.1563 Q1717.6563,324.875 1717.0313,324.875 Q1715.6875,324.875 1715,325.9531 Q1714.3125,327.0156 1714.3125,329.1094 Q1714.3125,331.2031 1715,332.2813 Q1715.6875,333.3438 1717.0313,333.3438 Q1717.6563,333.3438 1718.25,333.0781 Q1718.8438,332.7969 1719.4688,332.2188 L1719.4688,334.9375 Z " fill="#000000"/><text fill="#000000" font-family="sans-serif" font-size="14" lengthAdjust="spacing" textLength="103" x="1730.5" y="334.1436">BaseException</text><line style="stroke:#181818;stroke-width:0.5;" x1="1702.5" x2="1835.5" y1="345.2969" y2="345.2969"/><line style="stroke:#181818;stroke-width:0.5;" x1="1702.5" x2="1835.5" y1="353.2969" y2="353.2969"/></g><polygon fill="none" points="1769.5333,361.2969,1776.9759,381.1364,1762.9794,381.4475" style="stroke:#181818;stroke-width:1.0;"/><line style="stroke:#181818;stroke-width:1.0;" x1="1769.9777" x2="1770" y1="381.2919" y2="382.2969"/><!--class JsonException--><g id="elem_JsonException"><rect codeLine="8" fill="#F1F1F1" height="48" id="JsonException" rx="2.5" ry="2.5" style="stroke:#181818;stroke-width:0.5;" width="129" x="1351.5" y="475.2969"/><ellipse cx="1366.5" cy="491.2969" fill="#ADD1B2" rx="11" ry="11" style="stroke:#181818;stroke-width:1.0;"/><path d="M1369.4688,496.9375 Q1368.8906,497.2344 1368.25,497.375 Q1367.6094,497.5313 1366.9063,497.5313 Q1364.4063,497.5313 1363.0781,495.8906 Q1361.7656,494.2344 1361.7656,491.1094 Q1361.7656,487.9844 1363.0781,486.3281 Q1364.4063,484.6719 1366.9063,484.6719 Q1367.6094,484.6719 1368.25,484.8281 Q1368.9063,484.9844 1369.4688,485.2813 L1369.4688,488 Q1368.8438,487.4219 1368.25,487.1563 Q1367.6563,486.875 1367.0313,486.875 Q1365.6875,486.875 1365,487.9531 Q1364.3125,489.0156 1364.3125,491.1094 Q1364.3125,493.2031 1365,494.2813 Q1365.6875,495.3438 1367.0313,495.3438 Q1367.6563,495.3438 1368.25,495.0781 Q1368.8438,494.7969 1369.4688,494.2188 L1369.4688,496.9375 Z " fill="#000000"/><text fill="#000000" font-family="sans-serif" font-size="14" lengthAdjust="spacing" textLength="97" x="1380.5" y="496.1436">JsonException</text><line style="stroke:#181818;stroke-width:0.5;" x1="1352.5" x2="1479.5" y1="507.2969" y2="507.2969"/><line style="stroke:#181818;stroke-width:0.5;" x1="1352.5" x2="1479.5" y1="515.2969" y2="515.2969"/></g><!--class FileException--><g id="elem_FileException"><rect codeLine="9" fill="#F1F1F1" height="48" id="FileException" rx="2.5" ry="2.5" style="stroke:#181818;stroke-width:0.5;" width="123" x="1515.5" y="475.2969"/><ellipse cx="1530.5" cy="491.2969" fill="#ADD1B2" rx="11" ry="11" style="stroke:#181818;stroke-width:1.0;"/><path d="M1533.4688,496.9375 Q1532.8906,497.2344 1532.25,497.375 Q1531.6094,497.5313 1530.9063,497.5313 Q1528.4063,497.5313 1527.0781,495.8906 Q1525.7656,494.2344 1525.7656,491.1094 Q1525.7656,487.9844 1527.0781,486.3281 Q1528.4063,484.6719 1530.9063,484.6719 Q1531.6094,484.6719 1532.25,484.8281 Q1532.9063,484.9844 1533.4688,485.2813 L1533.4688,488 Q1532.8438,487.4219 1532.25,487.1563 Q1531.6563,486.875 1531.0313,486.875 Q1529.6875,486.875 1529,487.9531 Q1528.3125,489.0156 1528.3125,491.1094 Q1528.3125,493.2031 1529,494.2813 Q1529.6875,495.3438 1531.0313,495.3438 Q1531.6563,495.3438 1532.25,495.0781 Q1532.8438,494.7969 1533.4688,494.2188 L1533.4688,496.9375 Z " fill="#000000"/><text fill="#000000" font-family="sans-serif" font-size="14" lengthAdjust="spacing" textLength="91" x="1544.5" y="496.1436">FileException</text><line style="stroke:#181818;stroke-width:0.5;" x1="1516.5" x2="1637.5" y1="507.2969" y2="507.2969"/><line style="stroke:#181818;stroke-width:0.5;" x1="1516.5" x2="1637.5" y1="515.2969" y2="515.2969"/></g><!--class ApiHttpException--><g id="elem_ApiHttpException"><rect codeLine="10" fill="#F1F1F1" height="48" id="ApiHttpException" rx="2.5" ry="2.5" style="stroke:#181818;stroke-width:0.5;" width="150" x="1694" y="475.2969"/><ellipse cx="1709" cy="491.2969" fill="#ADD1B2" rx="11" ry="11" style="stroke:#181818;stroke-width:1.0;"/><path d="M1711.9688,496.9375 Q1711.3906,497.2344 1710.75,497.375 Q1710.1094,497.5313 1709.4063,497.5313 Q1706.9063,497.5313 1705.5781,495.8906 Q1704.2656,494.2344 1704.2656,491.1094 Q1704.2656,487.9844 1705.5781,486.3281 Q1706.9063,484.6719 1709.4063,484.6719 Q1710.1094,484.6719 1710.75,484.8281 Q1711.4063,484.9844 1711.9688,485.2813 L1711.9688,488 Q1711.3438,487.4219 1710.75,487.1563 Q1710.1563,486.875 1709.5313,486.875 Q1708.1875,486.875 1707.5,487.9531 Q1706.8125,489.0156 1706.8125,491.1094 Q1706.8125,493.2031 1707.5,494.2813 Q1708.1875,495.3438 1709.5313,495.3438 Q1710.1563,495.3438 1710.75,495.0781 Q1711.3438,494.7969 1711.9688,494.2188 L1711.9688,496.9375 Z " fill="#000000"/><text fill="#000000" font-family="sans-serif" font-size="14" lengthAdjust="spacing" textLength="118" x="1723" y="496.1436">ApiHttpException</text><line style="stroke:#181818;stroke-width:0.5;" x1="1695" x2="1843" y1="507.2969" y2="507.2969"/><line style="stroke:#181818;stroke-width:0.5;" x1="1695" x2="1843" y1="515.2969" y2="515.2969"/></g><polygon fill="none" points="1756.2,523.2969,1752.9647,544.2381,1740.6118,537.6498" style="stroke:#181818;stroke-width:1.0;"/><line style="stroke:#181818;stroke-width:1.0;" x1="1746.7882" x2="1745" y1="540.9439" y2="544.2969"/><line style="stroke:#181818;stroke-width:1.0;" x1="1769.201" x2="1769.37" y1="475.2969" y2="455.1069"/><!--class RmfTimeoutException--><g id="elem_RmfTimeoutException"><rect codeLine="11" fill="#F1F1F1" height="48" id="RmfTimeoutException" rx="2.5" ry="2.5" style="stroke:#181818;stroke-width:0.5;" width="184" x="1899" y="475.2969"/><ellipse cx="1914" cy="491.2969" fill="#ADD1B2" rx="11" ry="11" style="stroke:#181818;stroke-width:1.0;"/><path d="M1916.9688,496.9375 Q1916.3906,497.2344 1915.75,497.375 Q1915.1094,497.5313 1914.4063,497.5313 Q1911.9063,497.5313 1910.5781,495.8906 Q1909.2656,494.2344 1909.2656,491.1094 Q1909.2656,487.9844 1910.5781,486.3281 Q1911.9063,484.6719 1914.4063,484.6719 Q1915.1094,484.6719 1915.75,484.8281 Q1916.4063,484.9844 1916.9688,485.2813 L1916.9688,488 Q1916.3438,487.4219 1915.75,487.1563 Q1915.1563,486.875 1914.5313,486.875 Q1913.1875,486.875 1912.5,487.9531 Q1911.8125,489.0156 1911.8125,491.1094 Q1911.8125,493.2031 1912.5,494.2813 Q1913.1875,495.3438 1914.5313,495.3438 Q1915.1563,495.3438 1915.75,495.0781 Q1916.3438,494.7969 1916.9688,494.2188 L1916.9688,496.9375 Z " fill="#000000"/><text fill="#000000" font-family="sans-serif" font-size="14" lengthAdjust="spacing" textLength="152" x="1928" y="496.1436">RmfTimeoutException</text><line style="stroke:#181818;stroke-width:0.5;" x1="1900" x2="2082" y1="507.2969" y2="507.2969"/><line style="stroke:#181818;stroke-width:0.5;" x1="1900" x2="2082" y1="515.2969" y2="515.2969"/></g><!--class ApiClientException--><g id="elem_ApiClientException"><rect codeLine="13" fill="#F1F1F1" height="48" id="ApiClientException" rx="2.5" ry="2.5" style="stroke:#181818;stroke-width:0.5;" width="160" x="697" y="623.2969"/><ellipse cx="712" cy="639.2969" fill="#ADD1B2" rx="11" ry="11" style="stroke:#181818;stroke-width:1.0;"/><path d="M714.9688,644.9375 Q714.3906,645.2344 713.75,645.375 Q713.1094,645.5313 712.4063,645.5313 Q709.9063,645.5313 708.5781,643.8906 Q707.2656,642.2344 707.2656,639.1094 Q707.2656,635.9844 708.5781,634.3281 Q709.9063,632.6719 712.4063,632.6719 Q713.1094,632.6719 713.75,632.8281 Q714.4063,632.9844 714.9688,633.2813 L714.9688,636 Q714.3438,635.4219 713.75,635.1563 Q713.1563,634.875 712.5313,634.875 Q711.1875,634.875 710.5,635.9531 Q709.8125,637.0156 709.8125,639.1094 Q709.8125,641.2031 710.5,642.2813 Q711.1875,643.3438 712.5313,643.3438 Q713.1563,643.3438 713.75,643.0781 Q714.3438,642.7969 714.9688,642.2188 L714.9688,644.9375 Z " fill="#000000"/><text fill="#000000" font-family="sans-serif" font-size="14" lengthAdjust="spacing" textLength="128" x="726" y="644.1436">ApiClientException</text><line style="stroke:#181818;stroke-width:0.5;" x1="698" x2="856" y1="655.2969" y2="655.2969"/><line style="stroke:#181818;stroke-width:0.5;" x1="698" x2="856" y1="663.2969" y2="663.2969"/></g><polygon fill="none" points="767.9333,671.2969,767.4136,692.4801,754.317,687.5325" style="stroke:#181818;stroke-width:1.0;"/><line style="stroke:#181818;stroke-width:1.0;" x1="760.8653" x2="760" y1="690.0063" y2="692.2969"/><line style="stroke:#181818;stroke-width:1.0;" x1="857" x2="877.13" y1="645.1077" y2="644.5569"/><!--class ApiServerException--><g id="elem_ApiServerException"><rect codeLine="14" fill="#F1F1F1" height="48" id="ApiServerException" rx="2.5" ry="2.5" style="stroke:#181818;stroke-width:0.5;" width="165" x="1584.5" y="623.2969"/><ellipse cx="1599.5" cy="639.2969" fill="#ADD1B2" rx="11" ry="11" style="stroke:#181818;stroke-width:1.0;"/><path d="M1602.4688,644.9375 Q1601.8906,645.2344 1601.25,645.375 Q1600.6094,645.5313 1599.9063,645.5313 Q1597.4063,645.5313 1596.0781,643.8906 Q1594.7656,642.2344 1594.7656,639.1094 Q1594.7656,635.9844 1596.0781,634.3281 Q1597.4063,632.6719 1599.9063,632.6719 Q1600.6094,632.6719 1601.25,632.8281 Q1601.9063,632.9844 1602.4688,633.2813 L1602.4688,636 Q1601.8438,635.4219 1601.25,635.1563 Q1600.6563,634.875 1600.0313,634.875 Q1598.6875,634.875 1598,635.9531 Q1597.3125,637.0156 1597.3125,639.1094 Q1597.3125,641.2031 1598,642.2813 Q1598.6875,643.3438 1600.0313,643.3438 Q1600.6563,643.3438 1601.25,643.0781 Q1601.8438,642.7969 1602.4688,642.2188 L1602.4688,644.9375 Z " fill="#000000"/><text fill="#000000" font-family="sans-serif" font-size="14" lengthAdjust="spacing" textLength="133" x="1613.5" y="644.1436">ApiServerException</text><line style="stroke:#181818;stroke-width:0.5;" x1="1585.5" x2="1748.5" y1="655.2969" y2="655.2969"/><line style="stroke:#181818;stroke-width:0.5;" x1="1585.5" x2="1748.5" y1="663.2969" y2="663.2969"/></g><polygon fill="none" points="1668.6,671.2969,1676.9149,690.7869,1662.9459,691.7182" style="stroke:#181818;stroke-width:1.0;"/><line style="stroke:#181818;stroke-width:1.0;" x1="1669.9304" x2="1670" y1="691.2526" y2="692.2969"/><line style="stroke:#181818;stroke-width:1.0;" x1="1684.9376" x2="1700.08" y1="623.2969" y2="603.0369"/><!--class AuthException--><g id="elem_AuthException"><rect codeLine="15" fill="#F1F1F1" height="48" id="AuthException" rx="2.5" ry="2.5" style="stroke:#181818;stroke-width:0.5;" width="132" x="1805" y="623.2969"/><ellipse cx="1820" cy="639.2969" fill="#ADD1B2" rx="11" ry="11" style="stroke:#181818;stroke-width:1.0;"/><path d="M1822.9688,644.9375 Q1822.3906,645.2344 1821.75,645.375 Q1821.1094,645.5313 1820.4063,645.5313 Q1817.9063,645.5313 1816.5781,643.8906 Q1815.2656,642.2344 1815.2656,639.1094 Q1815.2656,635.9844 1816.5781,634.3281 Q1817.9063,632.6719 1820.4063,632.6719 Q1821.1094,632.6719 1821.75,632.8281 Q1822.4063,632.9844 1822.9688,633.2813 L1822.9688,636 Q1822.3438,635.4219 1821.75,635.1563 Q1821.1563,634.875 1820.5313,634.875 Q1819.1875,634.875 1818.5,635.9531 Q1817.8125,637.0156 1817.8125,639.1094 Q1817.8125,641.2031 1818.5,642.2813 Q1819.1875,643.3438 1820.5313,643.3438 Q1821.1563,643.3438 1821.75,643.0781 Q1822.3438,642.7969 1822.9688,642.2188 L1822.9688,644.9375 Z " fill="#000000"/><text fill="#000000" font-family="sans-serif" font-size="14" lengthAdjust="spacing" textLength="100" x="1834" y="644.1436">AuthException</text><line style="stroke:#181818;stroke-width:0.5;" x1="1806" x2="1936" y1="655.2969" y2="655.2969"/><line style="stroke:#181818;stroke-width:0.5;" x1="1806" x2="1936" y1="663.2969" y2="663.2969"/></g><!--class BadGateWayException--><g id="elem_BadGateWayException"><rect codeLine="17" fill="#F1F1F1" height="48" id="BadGateWayException" rx="2.5" ry="2.5" style="stroke:#181818;stroke-width:0.5;" width="188" x="1227" y="751.2969"/><ellipse cx="1242" cy="767.2969" fill="#ADD1B2" rx="11" ry="11" style="stroke:#181818;stroke-width:1.0;"/><path d="M1244.9688,772.9375 Q1244.3906,773.2344 1243.75,773.375 Q1243.1094,773.5313 1242.4063,773.5313 Q1239.9063,773.5313 1238.5781,771.8906 Q1237.2656,770.2344 1237.2656,767.1094 Q1237.2656,763.9844 1238.5781,762.3281 Q1239.9063,760.6719 1242.4063,760.6719 Q1243.1094,760.6719 1243.75,760.8281 Q1244.4063,760.9844 1244.9688,761.2813 L1244.9688,764 Q1244.3438,763.4219 1243.75,763.1563 Q1243.1563,762.875 1242.5313,762.875 Q1241.1875,762.875 1240.5,763.9531 Q1239.8125,765.0156 1239.8125,767.1094 Q1239.8125,769.2031 1240.5,770.2813 Q1241.1875,771.3438 1242.5313,771.3438 Q1243.1563,771.3438 1243.75,771.0781 Q1244.3438,770.7969 1244.9688,770.2188 L1244.9688,772.9375 Z " fill="#000000"/><text fill="#000000" font-family="sans-serif" font-size="14" lengthAdjust="spacing" textLength="156" x="1256" y="772.1436">BadGateWayException</text><line style="stroke:#181818;stroke-width:0.5;" x1="1228" x2="1414" y1="783.2969" y2="783.2969"/><line style="stroke:#181818;stroke-width:0.5;" x1="1228" x2="1414" y1="791.2969" y2="791.2969"/></g><!--class GatewayTimeoutException--><g id="elem_GatewayTimeoutException"><rect codeLine="18" fill="#F1F1F1" height="48" id="GatewayTimeoutException" rx="2.5" ry="2.5" style="stroke:#181818;stroke-width:0.5;" width="216" x="1450" y="751.2969"/><ellipse cx="1465" cy="767.2969" fill="#ADD1B2" rx="11" ry="11" style="stroke:#181818;stroke-width:1.0;"/><path d="M1467.9688,772.9375 Q1467.3906,773.2344 1466.75,773.375 Q1466.1094,773.5313 1465.4063,773.5313 Q1462.9063,773.5313 1461.5781,771.8906 Q1460.2656,770.2344 1460.2656,767.1094 Q1460.2656,763.9844 1461.5781,762.3281 Q1462.9063,760.6719 1465.4063,760.6719 Q1466.1094,760.6719 1466.75,760.8281 Q1467.4063,760.9844 1467.9688,761.2813 L1467.9688,764 Q1467.3438,763.4219 1466.75,763.1563 Q1466.1563,762.875 1465.5313,762.875 Q1464.1875,762.875 1463.5,763.9531 Q1462.8125,765.0156 1462.8125,767.1094 Q1462.8125,769.2031 1463.5,770.2813 Q1464.1875,771.3438 1465.5313,771.3438 Q1466.1563,771.3438 1466.75,771.0781 Q1467.3438,770.7969 1467.9688,770.2188 L1467.9688,772.9375 Z " fill="#000000"/><text fill="#000000" font-family="sans-serif" font-size="14" lengthAdjust="spacing" textLength="184" x="1479" y="772.1436">GatewayTimeoutException</text><line style="stroke:#181818;stroke-width:0.5;" x1="1451" x2="1665" y1="783.2969" y2="783.2969"/><line style="stroke:#181818;stroke-width:0.5;" x1="1451" x2="1665" y1="791.2969" y2="791.2969"/></g><!--class InternalServerErrorException--><g id="elem_InternalServerErrorException"><rect codeLine="19" fill="#F1F1F1" height="48" id="InternalServerErrorException" rx="2.5" ry="2.5" style="stroke:#181818;stroke-width:0.5;" width="228" x="1701" y="751.2969"/><ellipse cx="1716" cy="767.2969" fill="#ADD1B2" rx="11" ry="11" style="stroke:#181818;stroke-width:1.0;"/><path d="M1718.9688,772.9375 Q1718.3906,773.2344 1717.75,773.375 Q1717.1094,773.5313 1716.4063,773.5313 Q1713.9063,773.5313 1712.5781,771.8906 Q1711.2656,770.2344 1711.2656,767.1094 Q1711.2656,763.9844 1712.5781,762.3281 Q1713.9063,760.6719 1716.4063,760.6719 Q1717.1094,760.6719 1717.75,760.8281 Q1718.4063,760.9844 1718.9688,761.2813 L1718.9688,764 Q1718.3438,763.4219 1717.75,763.1563 Q1717.1563,762.875 1716.5313,762.875 Q1715.1875,762.875 1714.5,763.9531 Q1713.8125,765.0156 1713.8125,767.1094 Q1713.8125,769.2031 1714.5,770.2813 Q1715.1875,771.3438 1716.5313,771.3438 Q1717.1563,771.3438 1717.75,771.0781 Q1718.3438,770.7969 1718.9688,770.2188 L1718.9688,772.9375 Z " fill="#000000"/><text fill="#000000" font-family="sans-serif" font-size="14" lengthAdjust="spacing" textLength="196" x="1730" y="772.1436">InternalServerErrorException</text><line style="stroke:#181818;stroke-width:0.5;" x1="1702" x2="1928" y1="783.2969" y2="783.2969"/><line style="stroke:#181818;stroke-width:0.5;" x1="1702" x2="1928" y1="791.2969" y2="791.2969"/></g><!--class ServiceUnavailableException--><g id="elem_ServiceUnavailableException"><rect codeLine="20" fill="#F1F1F1" height="48" id="ServiceUnavailableException" rx="2.5" ry="2.5" style="stroke:#181818;stroke-width:0.5;" width="227" x="1964.5" y="751.2969"/><ellipse cx="1979.5" cy="767.2969" fill="#ADD1B2" rx="11" ry="11" style="stroke:#181818;stroke-width:1.0;"/><path d="M1982.4688,772.9375 Q1981.8906,773.2344 1981.25,773.375 Q1980.6094,773.5313 1979.9063,773.5313 Q1977.4063,773.5313 1976.0781,771.8906 Q1974.7656,770.2344 1974.7656,767.1094 Q1974.7656,763.9844 1976.0781,762.3281 Q1977.4063,760.6719 1979.9063,760.6719 Q1980.6094,760.6719 1981.25,760.8281 Q1981.9063,760.9844 1982.4688,761.2813 L1982.4688,764 Q1981.8438,763.4219 1981.25,763.1563 Q1980.6563,762.875 1980.0313,762.875 Q1978.6875,762.875 1978,763.9531 Q1977.3125,765.0156 1977.3125,767.1094 Q1977.3125,769.2031 1978,770.2813 Q1978.6875,771.3438 1980.0313,771.3438 Q1980.6563,771.3438 1981.25,771.0781 Q1981.8438,770.7969 1982.4688,770.2188 L1982.4688,772.9375 Z " fill="#000000"/><text fill="#000000" font-family="sans-serif" font-size="14" lengthAdjust="spacing" textLength="195" x="1993.5" y="772.1436">ServiceUnavailableException</text><line style="stroke:#181818;stroke-width:0.5;" x1="1965.5" x2="2190.5" y1="783.2969" y2="783.2969"/><line style="stroke:#181818;stroke-width:0.5;" x1="1965.5" x2="2190.5" y1="791.2969" y2="791.2969"/></g><!--class BadRequestException--><g id="elem_BadRequestException"><rect codeLine="22" fill="#F1F1F1" height="48" id="BadRequestException" rx="2.5" ry="2.5" style="stroke:#181818;stroke-width:0.5;" width="186" x="142" y="751.2969"/><ellipse cx="157" cy="767.2969" fill="#ADD1B2" rx="11" ry="11" style="stroke:#181818;stroke-width:1.0;"/><path d="M159.9688,772.9375 Q159.3906,773.2344 158.75,773.375 Q158.1094,773.5313 157.4063,773.5313 Q154.9063,773.5313 153.5781,771.8906 Q152.2656,770.2344 152.2656,767.1094 Q152.2656,763.9844 153.5781,762.3281 Q154.9063,760.6719 157.4063,760.6719 Q158.1094,760.6719 158.75,760.8281 Q159.4063,760.9844 159.9688,761.2813 L159.9688,764 Q159.3438,763.4219 158.75,763.1563 Q158.1563,762.875 157.5313,762.875 Q156.1875,762.875 155.5,763.9531 Q154.8125,765.0156 154.8125,767.1094 Q154.8125,769.2031 155.5,770.2813 Q156.1875,771.3438 157.5313,771.3438 Q158.1563,771.3438 158.75,771.0781 Q159.3438,770.7969 159.9688,770.2188 L159.9688,772.9375 Z " fill="#000000"/><text fill="#000000" font-family="sans-serif" font-size="14" lengthAdjust="spacing" textLength="154" x="171" y="772.1436">BadRequestException</text><line style="stroke:#181818;stroke-width:0.5;" x1="143" x2="327" y1="783.2969" y2="783.2969"/><line style="stroke:#181818;stroke-width:0.5;" x1="143" x2="327" y1="791.2969" y2="791.2969"/></g><!--class ConcurrentModification--><g id="elem_ConcurrentModification"><rect codeLine="23" fill="#F1F1F1" height="48" id="ConcurrentModification" rx="2.5" ry="2.5" style="stroke:#181818;stroke-width:0.5;" width="192" x="363" y="751.2969"/><ellipse cx="378" cy="767.2969" fill="#ADD1B2" rx="11" ry="11" style="stroke:#181818;stroke-width:1.0;"/><path d="M380.9688,772.9375 Q380.3906,773.2344 379.75,773.375 Q379.1094,773.5313 378.4063,773.5313 Q375.9063,773.5313 374.5781,771.8906 Q373.2656,770.2344 373.2656,767.1094 Q373.2656,763.9844 374.5781,762.3281 Q375.9063,760.6719 378.4063,760.6719 Q379.1094,760.6719 379.75,760.8281 Q380.4063,760.9844 380.9688,761.2813 L380.9688,764 Q380.3438,763.4219 379.75,763.1563 Q379.1563,762.875 378.5313,762.875 Q377.1875,762.875 376.5,763.9531 Q375.8125,765.0156 375.8125,767.1094 Q375.8125,769.2031 376.5,770.2813 Q377.1875,771.3438 378.5313,771.3438 Q379.1563,771.3438 379.75,771.0781 Q380.3438,770.7969 380.9688,770.2188 L380.9688,772.9375 Z " fill="#000000"/><text fill="#000000" font-family="sans-serif" font-size="14" lengthAdjust="spacing" textLength="160" x="392" y="772.1436">ConcurrentModification</text><line style="stroke:#181818;stroke-width:0.5;" x1="364" x2="554" y1="783.2969" y2="783.2969"/><line style="stroke:#181818;stroke-width:0.5;" x1="364" x2="554" y1="791.2969" y2="791.2969"/></g><!--class ForbiddenException--><g id="elem_ForbiddenException"><rect codeLine="24" fill="#F1F1F1" height="48" id="ForbiddenException" rx="2.5" ry="2.5" style="stroke:#181818;stroke-width:0.5;" width="170" x="590" y="751.2969"/><ellipse cx="605" cy="767.2969" fill="#ADD1B2" rx="11" ry="11" style="stroke:#181818;stroke-width:1.0;"/><path d="M607.9688,772.9375 Q607.3906,773.2344 606.75,773.375 Q606.1094,773.5313 605.4063,773.5313 Q602.9063,773.5313 601.5781,771.8906 Q600.2656,770.2344 600.2656,767.1094 Q600.2656,763.9844 601.5781,762.3281 Q602.9063,760.6719 605.4063,760.6719 Q606.1094,760.6719 606.75,760.8281 Q607.4063,760.9844 607.9688,761.2813 L607.9688,764 Q607.3438,763.4219 606.75,763.1563 Q606.1563,762.875 605.5313,762.875 Q604.1875,762.875 603.5,763.9531 Q602.8125,765.0156 602.8125,767.1094 Q602.8125,769.2031 603.5,770.2813 Q604.1875,771.3438 605.5313,771.3438 Q606.1563,771.3438 606.75,771.0781 Q607.3438,770.7969 607.9688,770.2188 L607.9688,772.9375 Z " fill="#000000"/><text fill="#000000" font-family="sans-serif" font-size="14" lengthAdjust="spacing" textLength="138" x="619" y="772.1436">ForbiddenException</text><line style="stroke:#181818;stroke-width:0.5;" x1="591" x2="759" y1="783.2969" y2="783.2969"/><line style="stroke:#181818;stroke-width:0.5;" x1="591" x2="759" y1="791.2969" y2="791.2969"/></g><!--class NotFoundException--><g id="elem_NotFoundException"><rect codeLine="25" fill="#F1F1F1" height="48" id="NotFoundException" rx="2.5" ry="2.5" style="stroke:#181818;stroke-width:0.5;" width="168" x="795" y="751.2969"/><ellipse cx="810" cy="767.2969" fill="#ADD1B2" rx="11" ry="11" style="stroke:#181818;stroke-width:1.0;"/><path d="M812.9688,772.9375 Q812.3906,773.2344 811.75,773.375 Q811.1094,773.5313 810.4063,773.5313 Q807.9063,773.5313 806.5781,771.8906 Q805.2656,770.2344 805.2656,767.1094 Q805.2656,763.9844 806.5781,762.3281 Q807.9063,760.6719 810.4063,760.6719 Q811.1094,760.6719 811.75,760.8281 Q812.4063,760.9844 812.9688,761.2813 L812.9688,764 Q812.3438,763.4219 811.75,763.1563 Q811.1563,762.875 810.5313,762.875 Q809.1875,762.875 808.5,763.9531 Q807.8125,765.0156 807.8125,767.1094 Q807.8125,769.2031 808.5,770.2813 Q809.1875,771.3438 810.5313,771.3438 Q811.1563,771.3438 811.75,771.0781 Q812.3438,770.7969 812.9688,770.2188 L812.9688,772.9375 Z " fill="#000000"/><text fill="#000000" font-family="sans-serif" font-size="14" lengthAdjust="spacing" textLength="136" x="824" y="772.1436">NotFoundException</text><line style="stroke:#181818;stroke-width:0.5;" x1="796" x2="962" y1="783.2969" y2="783.2969"/><line style="stroke:#181818;stroke-width:0.5;" x1="796" x2="962" y1="791.2969" y2="791.2969"/></g><!--class UnauthorizedException--><g id="elem_UnauthorizedException"><rect codeLine="26" fill="#F1F1F1" height="48" id="UnauthorizedException" rx="2.5" ry="2.5" style="stroke:#181818;stroke-width:0.5;" width="193" x="998.5" y="751.2969"/><ellipse cx="1013.5" cy="767.2969" fill="#ADD1B2" rx="11" ry="11" style="stroke:#181818;stroke-width:1.0;"/><path d="M1016.4688,772.9375 Q1015.8906,773.2344 1015.25,773.375 Q1014.6094,773.5313 1013.9063,773.5313 Q1011.4063,773.5313 1010.0781,771.8906 Q1008.7656,770.2344 1008.7656,767.1094 Q1008.7656,763.9844 1010.0781,762.3281 Q1011.4063,760.6719 1013.9063,760.6719 Q1014.6094,760.6719 1015.25,760.8281 Q1015.9063,760.9844 1016.4688,761.2813 L1016.4688,764 Q1015.8438,763.4219 1015.25,763.1563 Q1014.6563,762.875 1014.0313,762.875 Q1012.6875,762.875 1012,763.9531 Q1011.3125,765.0156 1011.3125,767.1094 Q1011.3125,769.2031 1012,770.2813 Q1012.6875,771.3438 1014.0313,771.3438 Q1014.6563,771.3438 1015.25,771.0781 Q1015.8438,770.7969 1016.4688,770.2188 L1016.4688,772.9375 Z " fill="#000000"/><text fill="#000000" font-family="sans-serif" font-size="14" lengthAdjust="spacing" textLength="161" x="1027.5" y="772.1436">UnauthorizedException</text><line style="stroke:#181818;stroke-width:0.5;" x1="999.5" x2="1190.5" y1="783.2969" y2="783.2969"/><line style="stroke:#181818;stroke-width:0.5;" x1="999.5" x2="1190.5" y1="791.2969" y2="791.2969"/></g><!--reverse link BaseException to JsonException--><g id="link_BaseException_JsonException"><path d="M1770,382.2969 C1770,382.2969 2185.21,380.7469 2208,389.2969 C2254.4,406.6969 2295.75,448.6269 2318.51,475.1169 " fill="none" id="BaseException-backto-JsonException" style="stroke:#181818;stroke-width:1.0;"/></g><!--reverse link BaseException to JsonException--><g id="link_BaseException_JsonException"><path d="M1770,382.2969 C1770,382.2969 1511.44,382.3769 1498,389.2969 C1462.64,407.5169 1438.37,448.7669 1425.87,474.9669 " fill="none" id="BaseException-backto-JsonException-1" style="stroke:#181818;stroke-width:1.0;"/></g><!--reverse link BaseException to FileException--><g id="link_BaseException_FileException"><path d="M1770,382.2969 C1770,382.2969 1668.04,383.2669 1657,389.2969 C1622.39,408.1969 1598.75,449.2269 1586.59,475.2069 " fill="none" id="BaseException-backto-FileException" style="stroke:#181818;stroke-width:1.0;"/></g><!--reverse link BaseException to ApiHttpException--><g id="link_BaseException_ApiHttpException"><path d="M1770,382.2969 C1770,382.2969 1769.66,422.1269 1769.37,455.1069 " fill="none" id="BaseException-backto-ApiHttpException" style="stroke:#181818;stroke-width:1.0;"/></g><!--reverse link BaseException to RmfTimeoutException--><g id="link_BaseException_RmfTimeoutException"><path d="M1770,382.2969 C1770,382.2969 1859.27,379.0369 1882,389.2969 C1922.98,407.7869 1957.12,448.9569 1975.74,475.0669 " fill="none" id="BaseException-backto-RmfTimeoutException" style="stroke:#181818;stroke-width:1.0;"/></g><!--reverse link ApiHttpException to ApiClientException--><g id="link_ApiHttpException_ApiClientException"><path d="M1745,544.2969 C1745,544.2969 1696.59,563.4969 1656,571.2969 C1377.18,624.8669 1041.26,640.1869 877.13,644.5569 " fill="none" id="ApiHttpException-backto-ApiClientException" style="stroke:#181818;stroke-width:1.0;"/></g><!--reverse link ApiHttpException to ApiServerException--><g id="link_ApiHttpException_ApiServerException"><path d="M1745,544.2969 C1745,544.2969 1721.34,575.2369 1700.08,603.0369 " fill="none" id="ApiHttpException-backto-ApiServerException" style="stroke:#181818;stroke-width:1.0;"/></g><!--reverse link ApiHttpException to AuthException--><g id="link_ApiHttpException_AuthException"><path d="M1745,544.2969 C1745,544.2969 1805.23,593.0569 1842.41,623.1469 " fill="none" id="ApiHttpException-backto-AuthException" style="stroke:#181818;stroke-width:1.0;"/></g><!--reverse link ApiServerException to BadGateWayException--><g id="link_ApiServerException_BadGateWayException"><path d="M1670,692.2969 C1670,692.2969 1518.8,727.8169 1415.44,752.1069 " fill="none" id="ApiServerException-backto-BadGateWayException" style="stroke:#181818;stroke-width:1.0;"/></g><!--reverse link ApiServerException to GatewayTimeoutException--><g id="link_ApiServerException_GatewayTimeoutException"><path d="M1670,692.2969 C1670,692.2969 1622.62,726.9869 1589.5,751.2369 " fill="none" id="ApiServerException-backto-GatewayTimeoutException" style="stroke:#181818;stroke-width:1.0;"/></g><!--reverse link ApiServerException to InternalServerErrorException--><g id="link_ApiServerException_InternalServerErrorException"><path d="M1670,692.2969 C1670,692.2969 1731.34,726.9869 1774.22,751.2369 " fill="none" id="ApiServerException-backto-InternalServerErrorException" style="stroke:#181818;stroke-width:1.0;"/></g><!--reverse link ApiServerException to ServiceUnavailableException--><g id="link_ApiServerException_ServiceUnavailableException"><path d="M1670,692.2969 C1670,692.2969 1843.63,727.1969 1964.35,751.4569 " fill="none" id="ApiServerException-backto-ServiceUnavailableException" style="stroke:#181818;stroke-width:1.0;"/></g><!--reverse link ApiClientException to BadRequestException--><g id="link_ApiClientException_BadRequestException"><path d="M760,692.2969 C760,692.2969 529.09,719.3169 346,751.2969 C340.18,752.3169 334.21,753.4069 328.19,754.5469 " fill="none" id="ApiClientException-backto-BadRequestException" style="stroke:#181818;stroke-width:1.0;"/></g><!--reverse link ApiClientException to ConcurrentModification--><g id="link_ApiClientException_ConcurrentModification"><path d="M760,692.2969 C760,692.2969 632.67,726.9869 543.65,751.2369 " fill="none" id="ApiClientException-backto-ConcurrentModification" style="stroke:#181818;stroke-width:1.0;"/></g><!--reverse link ApiClientException to ForbiddenException--><g id="link_ApiClientException_ForbiddenException"><path d="M760,692.2969 C760,692.2969 724.26,726.7769 699.13,751.0169 " fill="none" id="ApiClientException-backto-ForbiddenException" style="stroke:#181818;stroke-width:1.0;"/></g><!--reverse link ApiClientException to NotFoundException--><g id="link_ApiClientException_NotFoundException"><path d="M760,692.2969 C760,692.2969 810.34,726.9869 845.54,751.2369 " fill="none" id="ApiClientException-backto-NotFoundException" style="stroke:#181818;stroke-width:1.0;"/></g><!--reverse link ApiClientException to UnauthorizedException--><g id="link_ApiClientException_UnauthorizedException"><path d="M760,692.2969 C760,692.2969 901.71,726.9869 1000.79,751.2369 " fill="none" id="ApiClientException-backto-UnauthorizedException" style="stroke:#181818;stroke-width:1.0;"/></g><!--SRC=[bPBFKi8m4CRlVOeyGGw-WJ9MSKOFeEDvIHUwaYPniq7GuTrjmH6f1TeSDzzll_qd91RLxTfW4F9EbOGCRCfDfkAIN026IYtOfp1s9J89E8FgAbC1p18MgCZh5KFGNCtr329gOmcTw2HaetwBTSwlJ3NFM8XHFTIHWnsk1LqHJsP1Pi_wfexyCfdQNdRVSNlZlMqhnVbgJeXpijXRV1teNYJqra-g-JDLw9DSGeuyHhj-_oDj-oDeYhn27WGbANle_ywxk0F1LzXqOgqA3bm3VS3cv2ZEiMCdo0xiZw0vWM49cWyo-E9W1MHXrhNk3lwewmc-9upTbRUMTU16tfd4N7y- -eBcPA0tcdkUKL6W6-Ruv2NtoHN3g7eozI5ufa_iIMw_0G00]--></g></svg>