<?xml version="1.0" encoding="UTF-8" standalone="no"?><svg xmlns="http://www.w3.org/2000/svg" xmlns:xlink="http://www.w3.org/1999/xlink" contentStyleType="text/css" height="593px" preserveAspectRatio="none" style="width:2388px;height:593px;background:#FFFFFF;" version="1.1" viewBox="0 0 2388 593" width="2388px" zoomAndPan="magnify"><defs/><g><text fill="#000000" font-family="sans-serif" font-size="14" font-weight="bold" lengthAdjust="spacing" textLength="157" x="1108.5" y="22.9951">Exception hierarchy</text><!--MD5=[e9d981c69c95cc57158f6e7d27f69975]
cluster io.vrap.rmf.base.client.utils.json--><g id="cluster_io.vrap.rmf.base.client.utils.json"><path d="M2114.5,211.2969 L2368.5,211.2969 A3.75,3.75 0 0 1 2371,213.7969 L2378,233.5938 L2378.5,233.5938 A2.5,2.5 0 0 1 2381,236.0938 L2381,307.7969 A2.5,2.5 0 0 1 2378.5,310.2969 L2114.5,310.2969 A2.5,2.5 0 0 1 2112,307.7969 L2112,213.7969 A2.5,2.5 0 0 1 2114.5,211.2969 " fill="none" style="stroke:#000000;stroke-width:1.5;"/><line style="stroke:#000000;stroke-width:1.5;" x1="2112" x2="2378" y1="233.5938" y2="233.5938"/><text fill="#000000" font-family="sans-serif" font-size="14" font-weight="bold" lengthAdjust="spacing" textLength="253" x="2116" y="226.292">io.vrap.rmf.base.client.utils.json</text></g><!--MD5=[155f099c5c9b177f0b44192671d3ee2e]
cluster io.vrap.rmf.base.client.error--><g id="cluster_io.vrap.rmf.base.client.error"><path d="M8.5,43.2969 L232.5,43.2969 A3.75,3.75 0 0 1 235,45.7969 L242,65.5938 L2085.5,65.5938 A2.5,2.5 0 0 1 2088,68.0938 L2088,583.7969 A2.5,2.5 0 0 1 2085.5,586.2969 L8.5,586.2969 A2.5,2.5 0 0 1 6,583.7969 L6,45.7969 A2.5,2.5 0 0 1 8.5,43.2969 " fill="none" style="stroke:#000000;stroke-width:1.5;"/><line style="stroke:#000000;stroke-width:1.5;" x1="6" x2="242" y1="65.5938" y2="65.5938"/><text fill="#000000" font-family="sans-serif" font-size="14" font-weight="bold" lengthAdjust="spacing" textLength="223" x="10" y="58.292">io.vrap.rmf.base.client.error</text></g><!--MD5=[b826a97db55563387b1e9a96f85ba26a]
class JsonException--><g id="elem_JsonException"><rect codeLine="4" fill="#F1F1F1" height="48" id="JsonException" rx="2.5" ry="2.5" style="stroke:#181818;stroke-width:0.5;" width="129" x="2128.5" y="246.2969"/><ellipse cx="2143.5" cy="262.2969" fill="#ADD1B2" rx="11" ry="11" style="stroke:#181818;stroke-width:1.0;"/><path d="M2146.4688,267.9375 Q2145.8906,268.2344 2145.25,268.375 Q2144.6094,268.5313 2143.9063,268.5313 Q2141.4063,268.5313 2140.0781,266.8906 Q2138.7656,265.2344 2138.7656,262.1094 Q2138.7656,258.9844 2140.0781,257.3281 Q2141.4063,255.6719 2143.9063,255.6719 Q2144.6094,255.6719 2145.25,255.8281 Q2145.9063,255.9844 2146.4688,256.2813 L2146.4688,259 Q2145.8438,258.4219 2145.25,258.1563 Q2144.6563,257.875 2144.0313,257.875 Q2142.6875,257.875 2142,258.9531 Q2141.3125,260.0156 2141.3125,262.1094 Q2141.3125,264.2031 2142,265.2813 Q2142.6875,266.3438 2144.0313,266.3438 Q2144.6563,266.3438 2145.25,266.0781 Q2145.8438,265.7969 2146.4688,265.2188 L2146.4688,267.9375 Z " fill="#000000"/><text fill="#000000" font-family="sans-serif" font-size="14" lengthAdjust="spacing" textLength="97" x="2157.5" y="267.1436">JsonException</text><line style="stroke:#181818;stroke-width:0.5;" x1="2129.5" x2="2256.5" y1="278.2969" y2="278.2969"/><line style="stroke:#181818;stroke-width:0.5;" x1="2129.5" x2="2256.5" y1="286.2969" y2="286.2969"/></g><!--MD5=[8c04cec630c98d2526b207e6977342f9]
class io.vrap.rmf.base.client.error.BaseException--><g id="elem_io.vrap.rmf.base.client.error.BaseException"><rect codeLine="7" fill="#F1F1F1" height="48" id="io.vrap.rmf.base.client.error.BaseException" rx="2.5" ry="2.5" style="stroke:#181818;stroke-width:0.5;" width="135" x="1581.5" y="98.2969"/><ellipse cx="1596.5" cy="114.2969" fill="#ADD1B2" rx="11" ry="11" style="stroke:#181818;stroke-width:1.0;"/><path d="M1599.4688,119.9375 Q1598.8906,120.2344 1598.25,120.375 Q1597.6094,120.5313 1596.9063,120.5313 Q1594.4063,120.5313 1593.0781,118.8906 Q1591.7656,117.2344 1591.7656,114.1094 Q1591.7656,110.9844 1593.0781,109.3281 Q1594.4063,107.6719 1596.9063,107.6719 Q1597.6094,107.6719 1598.25,107.8281 Q1598.9063,107.9844 1599.4688,108.2813 L1599.4688,111 Q1598.8438,110.4219 1598.25,110.1563 Q1597.6563,109.875 1597.0313,109.875 Q1595.6875,109.875 1595,110.9531 Q1594.3125,112.0156 1594.3125,114.1094 Q1594.3125,116.2031 1595,117.2813 Q1595.6875,118.3438 1597.0313,118.3438 Q1597.6563,118.3438 1598.25,118.0781 Q1598.8438,117.7969 1599.4688,117.2188 L1599.4688,119.9375 Z " fill="#000000"/><text fill="#000000" font-family="sans-serif" font-size="14" lengthAdjust="spacing" textLength="103" x="1610.5" y="119.1436">BaseException</text><line style="stroke:#181818;stroke-width:0.5;" x1="1582.5" x2="1715.5" y1="130.2969" y2="130.2969"/><line style="stroke:#181818;stroke-width:0.5;" x1="1582.5" x2="1715.5" y1="138.2969" y2="138.2969"/></g><polygon fill="none" points="1649.5333,146.2969,1656.9759,166.1364,1642.9794,166.4475" style="stroke:#181818;stroke-width:1.0;"/><line style="stroke:#181818;stroke-width:1.0;" x1="1649.9777" x2="1650" y1="166.2919" y2="167.2969"/><!--MD5=[86b742d2b62200b44b50e83386bb891d]
class io.vrap.rmf.base.client.error.JsonException--><g id="elem_io.vrap.rmf.base.client.error.JsonException"><rect codeLine="8" fill="#F1F1F1" height="48" id="io.vrap.rmf.base.client.error.JsonException" rx="2.5" ry="2.5" style="stroke:#181818;stroke-width:0.5;" width="129" x="1231.5" y="246.2969"/><ellipse cx="1246.5" cy="262.2969" fill="#ADD1B2" rx="11" ry="11" style="stroke:#181818;stroke-width:1.0;"/><path d="M1249.4688,267.9375 Q1248.8906,268.2344 1248.25,268.375 Q1247.6094,268.5313 1246.9063,268.5313 Q1244.4063,268.5313 1243.0781,266.8906 Q1241.7656,265.2344 1241.7656,262.1094 Q1241.7656,258.9844 1243.0781,257.3281 Q1244.4063,255.6719 1246.9063,255.6719 Q1247.6094,255.6719 1248.25,255.8281 Q1248.9063,255.9844 1249.4688,256.2813 L1249.4688,259 Q1248.8438,258.4219 1248.25,258.1563 Q1247.6563,257.875 1247.0313,257.875 Q1245.6875,257.875 1245,258.9531 Q1244.3125,260.0156 1244.3125,262.1094 Q1244.3125,264.2031 1245,265.2813 Q1245.6875,266.3438 1247.0313,266.3438 Q1247.6563,266.3438 1248.25,266.0781 Q1248.8438,265.7969 1249.4688,265.2188 L1249.4688,267.9375 Z " fill="#000000"/><text fill="#000000" font-family="sans-serif" font-size="14" lengthAdjust="spacing" textLength="97" x="1260.5" y="267.1436">JsonException</text><line style="stroke:#181818;stroke-width:0.5;" x1="1232.5" x2="1359.5" y1="278.2969" y2="278.2969"/><line style="stroke:#181818;stroke-width:0.5;" x1="1232.5" x2="1359.5" y1="286.2969" y2="286.2969"/></g><!--MD5=[1518fc0c44ec229ab92a3675a9286386]
class io.vrap.rmf.base.client.error.FileException--><g id="elem_io.vrap.rmf.base.client.error.FileException"><rect codeLine="9" fill="#F1F1F1" height="48" id="io.vrap.rmf.base.client.error.FileException" rx="2.5" ry="2.5" style="stroke:#181818;stroke-width:0.5;" width="123" x="1395.5" y="246.2969"/><ellipse cx="1410.5" cy="262.2969" fill="#ADD1B2" rx="11" ry="11" style="stroke:#181818;stroke-width:1.0;"/><path d="M1413.4688,267.9375 Q1412.8906,268.2344 1412.25,268.375 Q1411.6094,268.5313 1410.9063,268.5313 Q1408.4063,268.5313 1407.0781,266.8906 Q1405.7656,265.2344 1405.7656,262.1094 Q1405.7656,258.9844 1407.0781,257.3281 Q1408.4063,255.6719 1410.9063,255.6719 Q1411.6094,255.6719 1412.25,255.8281 Q1412.9063,255.9844 1413.4688,256.2813 L1413.4688,259 Q1412.8438,258.4219 1412.25,258.1563 Q1411.6563,257.875 1411.0313,257.875 Q1409.6875,257.875 1409,258.9531 Q1408.3125,260.0156 1408.3125,262.1094 Q1408.3125,264.2031 1409,265.2813 Q1409.6875,266.3438 1411.0313,266.3438 Q1411.6563,266.3438 1412.25,266.0781 Q1412.8438,265.7969 1413.4688,265.2188 L1413.4688,267.9375 Z " fill="#000000"/><text fill="#000000" font-family="sans-serif" font-size="14" lengthAdjust="spacing" textLength="91" x="1424.5" y="267.1436">FileException</text><line style="stroke:#181818;stroke-width:0.5;" x1="1396.5" x2="1517.5" y1="278.2969" y2="278.2969"/><line style="stroke:#181818;stroke-width:0.5;" x1="1396.5" x2="1517.5" y1="286.2969" y2="286.2969"/></g><!--MD5=[6298af0e4f55214f498dc864716867fd]
class io.vrap.rmf.base.client.error.ApiHttpException--><g id="elem_io.vrap.rmf.base.client.error.ApiHttpException"><rect codeLine="10" fill="#F1F1F1" height="48" id="io.vrap.rmf.base.client.error.ApiHttpException" rx="2.5" ry="2.5" style="stroke:#181818;stroke-width:0.5;" width="150" x="1574" y="246.2969"/><ellipse cx="1589" cy="262.2969" fill="#ADD1B2" rx="11" ry="11" style="stroke:#181818;stroke-width:1.0;"/><path d="M1591.9688,267.9375 Q1591.3906,268.2344 1590.75,268.375 Q1590.1094,268.5313 1589.4063,268.5313 Q1586.9063,268.5313 1585.5781,266.8906 Q1584.2656,265.2344 1584.2656,262.1094 Q1584.2656,258.9844 1585.5781,257.3281 Q1586.9063,255.6719 1589.4063,255.6719 Q1590.1094,255.6719 1590.75,255.8281 Q1591.4063,255.9844 1591.9688,256.2813 L1591.9688,259 Q1591.3438,258.4219 1590.75,258.1563 Q1590.1563,257.875 1589.5313,257.875 Q1588.1875,257.875 1587.5,258.9531 Q1586.8125,260.0156 1586.8125,262.1094 Q1586.8125,264.2031 1587.5,265.2813 Q1588.1875,266.3438 1589.5313,266.3438 Q1590.1563,266.3438 1590.75,266.0781 Q1591.3438,265.7969 1591.9688,265.2188 L1591.9688,267.9375 Z " fill="#000000"/><text fill="#000000" font-family="sans-serif" font-size="14" lengthAdjust="spacing" textLength="118" x="1603" y="267.1436">ApiHttpException</text><line style="stroke:#181818;stroke-width:0.5;" x1="1575" x2="1723" y1="278.2969" y2="278.2969"/><line style="stroke:#181818;stroke-width:0.5;" x1="1575" x2="1723" y1="286.2969" y2="286.2969"/></g><polygon fill="none" points="1636.2,294.2969,1632.9647,315.2381,1620.6118,308.6498" style="stroke:#181818;stroke-width:1.0;"/><line style="stroke:#181818;stroke-width:1.0;" x1="1626.7882" x2="1625" y1="311.9439" y2="315.2969"/><line style="stroke:#181818;stroke-width:1.0;" x1="1649.2277" x2="1649.42" y1="246.2969" y2="226.0369"/><!--MD5=[51c4d955a5d6a91b911d97b2aa66bf17]
class io.vrap.rmf.base.client.error.RmfTimeoutException--><g id="elem_io.vrap.rmf.base.client.error.RmfTimeoutException"><rect codeLine="11" fill="#F1F1F1" height="48" id="io.vrap.rmf.base.client.error.RmfTimeoutException" rx="2.5" ry="2.5" style="stroke:#181818;stroke-width:0.5;" width="184" x="1779" y="246.2969"/><ellipse cx="1794" cy="262.2969" fill="#ADD1B2" rx="11" ry="11" style="stroke:#181818;stroke-width:1.0;"/><path d="M1796.9688,267.9375 Q1796.3906,268.2344 1795.75,268.375 Q1795.1094,268.5313 1794.4063,268.5313 Q1791.9063,268.5313 1790.5781,266.8906 Q1789.2656,265.2344 1789.2656,262.1094 Q1789.2656,258.9844 1790.5781,257.3281 Q1791.9063,255.6719 1794.4063,255.6719 Q1795.1094,255.6719 1795.75,255.8281 Q1796.4063,255.9844 1796.9688,256.2813 L1796.9688,259 Q1796.3438,258.4219 1795.75,258.1563 Q1795.1563,257.875 1794.5313,257.875 Q1793.1875,257.875 1792.5,258.9531 Q1791.8125,260.0156 1791.8125,262.1094 Q1791.8125,264.2031 1792.5,265.2813 Q1793.1875,266.3438 1794.5313,266.3438 Q1795.1563,266.3438 1795.75,266.0781 Q1796.3438,265.7969 1796.9688,265.2188 L1796.9688,267.9375 Z " fill="#000000"/><text fill="#000000" font-family="sans-serif" font-size="14" lengthAdjust="spacing" textLength="152" x="1808" y="267.1436">RmfTimeoutException</text><line style="stroke:#181818;stroke-width:0.5;" x1="1780" x2="1962" y1="278.2969" y2="278.2969"/><line style="stroke:#181818;stroke-width:0.5;" x1="1780" x2="1962" y1="286.2969" y2="286.2969"/></g><!--MD5=[7ef6017c47bf4bf51ecdc660cd101fec]
class io.vrap.rmf.base.client.error.ApiClientException--><g id="elem_io.vrap.rmf.base.client.error.ApiClientException"><rect codeLine="13" fill="#F1F1F1" height="48" id="io.vrap.rmf.base.client.error.ApiClientException" rx="2.5" ry="2.5" style="stroke:#181818;stroke-width:0.5;" width="160" x="577" y="394.2969"/><ellipse cx="592" cy="410.2969" fill="#ADD1B2" rx="11" ry="11" style="stroke:#181818;stroke-width:1.0;"/><path d="M594.9688,415.9375 Q594.3906,416.2344 593.75,416.375 Q593.1094,416.5313 592.4063,416.5313 Q589.9063,416.5313 588.5781,414.8906 Q587.2656,413.2344 587.2656,410.1094 Q587.2656,406.9844 588.5781,405.3281 Q589.9063,403.6719 592.4063,403.6719 Q593.1094,403.6719 593.75,403.8281 Q594.4063,403.9844 594.9688,404.2813 L594.9688,407 Q594.3438,406.4219 593.75,406.1563 Q593.1563,405.875 592.5313,405.875 Q591.1875,405.875 590.5,406.9531 Q589.8125,408.0156 589.8125,410.1094 Q589.8125,412.2031 590.5,413.2813 Q591.1875,414.3438 592.5313,414.3438 Q593.1563,414.3438 593.75,414.0781 Q594.3438,413.7969 594.9688,413.2188 L594.9688,415.9375 Z " fill="#000000"/><text fill="#000000" font-family="sans-serif" font-size="14" lengthAdjust="spacing" textLength="128" x="606" y="415.1436">ApiClientException</text><line style="stroke:#181818;stroke-width:0.5;" x1="578" x2="736" y1="426.2969" y2="426.2969"/><line style="stroke:#181818;stroke-width:0.5;" x1="578" x2="736" y1="434.2969" y2="434.2969"/></g><polygon fill="none" points="647.9333,442.2969,647.4136,463.4801,634.317,458.5325" style="stroke:#181818;stroke-width:1.0;"/><line style="stroke:#181818;stroke-width:1.0;" x1="640.8653" x2="640" y1="461.0063" y2="463.2969"/><line style="stroke:#181818;stroke-width:1.0;" x1="737" x2="757.4" y1="409.0698" y2="406.7169"/><!--MD5=[e7362531533c206131329137446b828a]
class io.vrap.rmf.base.client.error.ApiServerException--><g id="elem_io.vrap.rmf.base.client.error.ApiServerException"><rect codeLine="14" fill="#F1F1F1" height="48" id="io.vrap.rmf.base.client.error.ApiServerException" rx="2.5" ry="2.5" style="stroke:#181818;stroke-width:0.5;" width="165" x="1464.5" y="394.2969"/><ellipse cx="1479.5" cy="410.2969" fill="#ADD1B2" rx="11" ry="11" style="stroke:#181818;stroke-width:1.0;"/><path d="M1482.4688,415.9375 Q1481.8906,416.2344 1481.25,416.375 Q1480.6094,416.5313 1479.9063,416.5313 Q1477.4063,416.5313 1476.0781,414.8906 Q1474.7656,413.2344 1474.7656,410.1094 Q1474.7656,406.9844 1476.0781,405.3281 Q1477.4063,403.6719 1479.9063,403.6719 Q1480.6094,403.6719 1481.25,403.8281 Q1481.9063,403.9844 1482.4688,404.2813 L1482.4688,407 Q1481.8438,406.4219 1481.25,406.1563 Q1480.6563,405.875 1480.0313,405.875 Q1478.6875,405.875 1478,406.9531 Q1477.3125,408.0156 1477.3125,410.1094 Q1477.3125,412.2031 1478,413.2813 Q1478.6875,414.3438 1480.0313,414.3438 Q1480.6563,414.3438 1481.25,414.0781 Q1481.8438,413.7969 1482.4688,413.2188 L1482.4688,415.9375 Z " fill="#000000"/><text fill="#000000" font-family="sans-serif" font-size="14" lengthAdjust="spacing" textLength="133" x="1493.5" y="415.1436">ApiServerException</text><line style="stroke:#181818;stroke-width:0.5;" x1="1465.5" x2="1628.5" y1="426.2969" y2="426.2969"/><line style="stroke:#181818;stroke-width:0.5;" x1="1465.5" x2="1628.5" y1="434.2969" y2="434.2969"/></g><polygon fill="none" points="1548.6,442.2969,1556.9149,461.7869,1542.9459,462.7182" style="stroke:#181818;stroke-width:1.0;"/><line style="stroke:#181818;stroke-width:1.0;" x1="1549.9304" x2="1550" y1="462.2526" y2="463.2969"/><line style="stroke:#181818;stroke-width:1.0;" x1="1564.9376" x2="1580.08" y1="394.2969" y2="374.0369"/><!--MD5=[f10f0cdba7e9f812c6843ace73a3ac62]
class io.vrap.rmf.base.client.error.AuthException--><g id="elem_io.vrap.rmf.base.client.error.AuthException"><rect codeLine="15" fill="#F1F1F1" height="48" id="io.vrap.rmf.base.client.error.AuthException" rx="2.5" ry="2.5" style="stroke:#181818;stroke-width:0.5;" width="132" x="1685" y="394.2969"/><ellipse cx="1700" cy="410.2969" fill="#ADD1B2" rx="11" ry="11" style="stroke:#181818;stroke-width:1.0;"/><path d="M1702.9688,415.9375 Q1702.3906,416.2344 1701.75,416.375 Q1701.1094,416.5313 1700.4063,416.5313 Q1697.9063,416.5313 1696.5781,414.8906 Q1695.2656,413.2344 1695.2656,410.1094 Q1695.2656,406.9844 1696.5781,405.3281 Q1697.9063,403.6719 1700.4063,403.6719 Q1701.1094,403.6719 1701.75,403.8281 Q1702.4063,403.9844 1702.9688,404.2813 L1702.9688,407 Q1702.3438,406.4219 1701.75,406.1563 Q1701.1563,405.875 1700.5313,405.875 Q1699.1875,405.875 1698.5,406.9531 Q1697.8125,408.0156 1697.8125,410.1094 Q1697.8125,412.2031 1698.5,413.2813 Q1699.1875,414.3438 1700.5313,414.3438 Q1701.1563,414.3438 1701.75,414.0781 Q1702.3438,413.7969 1702.9688,413.2188 L1702.9688,415.9375 Z " fill="#000000"/><text fill="#000000" font-family="sans-serif" font-size="14" lengthAdjust="spacing" textLength="100" x="1714" y="415.1436">AuthException</text><line style="stroke:#181818;stroke-width:0.5;" x1="1686" x2="1816" y1="426.2969" y2="426.2969"/><line style="stroke:#181818;stroke-width:0.5;" x1="1686" x2="1816" y1="434.2969" y2="434.2969"/></g><!--MD5=[67d1152951a21adc6f92ce22f1d8ce04]
class io.vrap.rmf.base.client.error.BadGateWayException--><g id="elem_io.vrap.rmf.base.client.error.BadGateWayException"><rect codeLine="17" fill="#F1F1F1" height="48" id="io.vrap.rmf.base.client.error.BadGateWayException" rx="2.5" ry="2.5" style="stroke:#181818;stroke-width:0.5;" width="188" x="1107" y="522.2969"/><ellipse cx="1122" cy="538.2969" fill="#ADD1B2" rx="11" ry="11" style="stroke:#181818;stroke-width:1.0;"/><path d="M1124.9688,543.9375 Q1124.3906,544.2344 1123.75,544.375 Q1123.1094,544.5313 1122.4063,544.5313 Q1119.9063,544.5313 1118.5781,542.8906 Q1117.2656,541.2344 1117.2656,538.1094 Q1117.2656,534.9844 1118.5781,533.3281 Q1119.9063,531.6719 1122.4063,531.6719 Q1123.1094,531.6719 1123.75,531.8281 Q1124.4063,531.9844 1124.9688,532.2813 L1124.9688,535 Q1124.3438,534.4219 1123.75,534.1563 Q1123.1563,533.875 1122.5313,533.875 Q1121.1875,533.875 1120.5,534.9531 Q1119.8125,536.0156 1119.8125,538.1094 Q1119.8125,540.2031 1120.5,541.2813 Q1121.1875,542.3438 1122.5313,542.3438 Q1123.1563,542.3438 1123.75,542.0781 Q1124.3438,541.7969 1124.9688,541.2188 L1124.9688,543.9375 Z " fill="#000000"/><text fill="#000000" font-family="sans-serif" font-size="14" lengthAdjust="spacing" textLength="156" x="1136" y="543.1436">BadGateWayException</text><line style="stroke:#181818;stroke-width:0.5;" x1="1108" x2="1294" y1="554.2969" y2="554.2969"/><line style="stroke:#181818;stroke-width:0.5;" x1="1108" x2="1294" y1="562.2969" y2="562.2969"/></g><!--MD5=[928751f1098985678d8a6352ab21d8b3]
class io.vrap.rmf.base.client.error.GatewayTimeoutException--><g id="elem_io.vrap.rmf.base.client.error.GatewayTimeoutException"><rect codeLine="18" fill="#F1F1F1" height="48" id="io.vrap.rmf.base.client.error.GatewayTimeoutException" rx="2.5" ry="2.5" style="stroke:#181818;stroke-width:0.5;" width="216" x="1330" y="522.2969"/><ellipse cx="1345" cy="538.2969" fill="#ADD1B2" rx="11" ry="11" style="stroke:#181818;stroke-width:1.0;"/><path d="M1347.9688,543.9375 Q1347.3906,544.2344 1346.75,544.375 Q1346.1094,544.5313 1345.4063,544.5313 Q1342.9063,544.5313 1341.5781,542.8906 Q1340.2656,541.2344 1340.2656,538.1094 Q1340.2656,534.9844 1341.5781,533.3281 Q1342.9063,531.6719 1345.4063,531.6719 Q1346.1094,531.6719 1346.75,531.8281 Q1347.4063,531.9844 1347.9688,532.2813 L1347.9688,535 Q1347.3438,534.4219 1346.75,534.1563 Q1346.1563,533.875 1345.5313,533.875 Q1344.1875,533.875 1343.5,534.9531 Q1342.8125,536.0156 1342.8125,538.1094 Q1342.8125,540.2031 1343.5,541.2813 Q1344.1875,542.3438 1345.5313,542.3438 Q1346.1563,542.3438 1346.75,542.0781 Q1347.3438,541.7969 1347.9688,541.2188 L1347.9688,543.9375 Z " fill="#000000"/><text fill="#000000" font-family="sans-serif" font-size="14" lengthAdjust="spacing" textLength="184" x="1359" y="543.1436">GatewayTimeoutException</text><line style="stroke:#181818;stroke-width:0.5;" x1="1331" x2="1545" y1="554.2969" y2="554.2969"/><line style="stroke:#181818;stroke-width:0.5;" x1="1331" x2="1545" y1="562.2969" y2="562.2969"/></g><!--MD5=[cdafab7c8ac89d71211c494343ab9e0a]
class io.vrap.rmf.base.client.error.InternalServerErrorException--><g id="elem_io.vrap.rmf.base.client.error.InternalServerErrorException"><rect codeLine="19" fill="#F1F1F1" height="48" id="io.vrap.rmf.base.client.error.InternalServerErrorException" rx="2.5" ry="2.5" style="stroke:#181818;stroke-width:0.5;" width="228" x="1581" y="522.2969"/><ellipse cx="1596" cy="538.2969" fill="#ADD1B2" rx="11" ry="11" style="stroke:#181818;stroke-width:1.0;"/><path d="M1598.9688,543.9375 Q1598.3906,544.2344 1597.75,544.375 Q1597.1094,544.5313 1596.4063,544.5313 Q1593.9063,544.5313 1592.5781,542.8906 Q1591.2656,541.2344 1591.2656,538.1094 Q1591.2656,534.9844 1592.5781,533.3281 Q1593.9063,531.6719 1596.4063,531.6719 Q1597.1094,531.6719 1597.75,531.8281 Q1598.4063,531.9844 1598.9688,532.2813 L1598.9688,535 Q1598.3438,534.4219 1597.75,534.1563 Q1597.1563,533.875 1596.5313,533.875 Q1595.1875,533.875 1594.5,534.9531 Q1593.8125,536.0156 1593.8125,538.1094 Q1593.8125,540.2031 1594.5,541.2813 Q1595.1875,542.3438 1596.5313,542.3438 Q1597.1563,542.3438 1597.75,542.0781 Q1598.3438,541.7969 1598.9688,541.2188 L1598.9688,543.9375 Z " fill="#000000"/><text fill="#000000" font-family="sans-serif" font-size="14" lengthAdjust="spacing" textLength="196" x="1610" y="543.1436">InternalServerErrorException</text><line style="stroke:#181818;stroke-width:0.5;" x1="1582" x2="1808" y1="554.2969" y2="554.2969"/><line style="stroke:#181818;stroke-width:0.5;" x1="1582" x2="1808" y1="562.2969" y2="562.2969"/></g><!--MD5=[a338d60d2ab87bf9c27e330b9b8d9bef]
class io.vrap.rmf.base.client.error.ServiceUnavailableException--><g id="elem_io.vrap.rmf.base.client.error.ServiceUnavailableException"><rect codeLine="20" fill="#F1F1F1" height="48" id="io.vrap.rmf.base.client.error.ServiceUnavailableException" rx="2.5" ry="2.5" style="stroke:#181818;stroke-width:0.5;" width="227" x="1844.5" y="522.2969"/><ellipse cx="1859.5" cy="538.2969" fill="#ADD1B2" rx="11" ry="11" style="stroke:#181818;stroke-width:1.0;"/><path d="M1862.4688,543.9375 Q1861.8906,544.2344 1861.25,544.375 Q1860.6094,544.5313 1859.9063,544.5313 Q1857.4063,544.5313 1856.0781,542.8906 Q1854.7656,541.2344 1854.7656,538.1094 Q1854.7656,534.9844 1856.0781,533.3281 Q1857.4063,531.6719 1859.9063,531.6719 Q1860.6094,531.6719 1861.25,531.8281 Q1861.9063,531.9844 1862.4688,532.2813 L1862.4688,535 Q1861.8438,534.4219 1861.25,534.1563 Q1860.6563,533.875 1860.0313,533.875 Q1858.6875,533.875 1858,534.9531 Q1857.3125,536.0156 1857.3125,538.1094 Q1857.3125,540.2031 1858,541.2813 Q1858.6875,542.3438 1860.0313,542.3438 Q1860.6563,542.3438 1861.25,542.0781 Q1861.8438,541.7969 1862.4688,541.2188 L1862.4688,543.9375 Z " fill="#000000"/><text fill="#000000" font-family="sans-serif" font-size="14" lengthAdjust="spacing" textLength="195" x="1873.5" y="543.1436">ServiceUnavailableException</text><line style="stroke:#181818;stroke-width:0.5;" x1="1845.5" x2="2070.5" y1="554.2969" y2="554.2969"/><line style="stroke:#181818;stroke-width:0.5;" x1="1845.5" x2="2070.5" y1="562.2969" y2="562.2969"/></g><!--MD5=[01a727bf6a270c9f94d975941a0daba2]
class io.vrap.rmf.base.client.error.BadRequestException--><g id="elem_io.vrap.rmf.base.client.error.BadRequestException"><rect codeLine="22" fill="#F1F1F1" height="48" id="io.vrap.rmf.base.client.error.BadRequestException" rx="2.5" ry="2.5" style="stroke:#181818;stroke-width:0.5;" width="186" x="22" y="522.2969"/><ellipse cx="37" cy="538.2969" fill="#ADD1B2" rx="11" ry="11" style="stroke:#181818;stroke-width:1.0;"/><path d="M39.9688,543.9375 Q39.3906,544.2344 38.75,544.375 Q38.1094,544.5313 37.4063,544.5313 Q34.9063,544.5313 33.5781,542.8906 Q32.2656,541.2344 32.2656,538.1094 Q32.2656,534.9844 33.5781,533.3281 Q34.9063,531.6719 37.4063,531.6719 Q38.1094,531.6719 38.75,531.8281 Q39.4063,531.9844 39.9688,532.2813 L39.9688,535 Q39.3438,534.4219 38.75,534.1563 Q38.1563,533.875 37.5313,533.875 Q36.1875,533.875 35.5,534.9531 Q34.8125,536.0156 34.8125,538.1094 Q34.8125,540.2031 35.5,541.2813 Q36.1875,542.3438 37.5313,542.3438 Q38.1563,542.3438 38.75,542.0781 Q39.3438,541.7969 39.9688,541.2188 L39.9688,543.9375 Z " fill="#000000"/><text fill="#000000" font-family="sans-serif" font-size="14" lengthAdjust="spacing" textLength="154" x="51" y="543.1436">BadRequestException</text><line style="stroke:#181818;stroke-width:0.5;" x1="23" x2="207" y1="554.2969" y2="554.2969"/><line style="stroke:#181818;stroke-width:0.5;" x1="23" x2="207" y1="562.2969" y2="562.2969"/></g><!--MD5=[8c272a1fa976ac85a6e28335dda177b7]
class io.vrap.rmf.base.client.error.ConcurrentModification--><g id="elem_io.vrap.rmf.base.client.error.ConcurrentModification"><rect codeLine="23" fill="#F1F1F1" height="48" id="io.vrap.rmf.base.client.error.ConcurrentModification" rx="2.5" ry="2.5" style="stroke:#181818;stroke-width:0.5;" width="192" x="243" y="522.2969"/><ellipse cx="258" cy="538.2969" fill="#ADD1B2" rx="11" ry="11" style="stroke:#181818;stroke-width:1.0;"/><path d="M260.9688,543.9375 Q260.3906,544.2344 259.75,544.375 Q259.1094,544.5313 258.4063,544.5313 Q255.9063,544.5313 254.5781,542.8906 Q253.2656,541.2344 253.2656,538.1094 Q253.2656,534.9844 254.5781,533.3281 Q255.9063,531.6719 258.4063,531.6719 Q259.1094,531.6719 259.75,531.8281 Q260.4063,531.9844 260.9688,532.2813 L260.9688,535 Q260.3438,534.4219 259.75,534.1563 Q259.1563,533.875 258.5313,533.875 Q257.1875,533.875 256.5,534.9531 Q255.8125,536.0156 255.8125,538.1094 Q255.8125,540.2031 256.5,541.2813 Q257.1875,542.3438 258.5313,542.3438 Q259.1563,542.3438 259.75,542.0781 Q260.3438,541.7969 260.9688,541.2188 L260.9688,543.9375 Z " fill="#000000"/><text fill="#000000" font-family="sans-serif" font-size="14" lengthAdjust="spacing" textLength="160" x="272" y="543.1436">ConcurrentModification</text><line style="stroke:#181818;stroke-width:0.5;" x1="244" x2="434" y1="554.2969" y2="554.2969"/><line style="stroke:#181818;stroke-width:0.5;" x1="244" x2="434" y1="562.2969" y2="562.2969"/></g><!--MD5=[b93113eea77b010e251b5f4659c7e107]
class io.vrap.rmf.base.client.error.ForbiddenException--><g id="elem_io.vrap.rmf.base.client.error.ForbiddenException"><rect codeLine="24" fill="#F1F1F1" height="48" id="io.vrap.rmf.base.client.error.ForbiddenException" rx="2.5" ry="2.5" style="stroke:#181818;stroke-width:0.5;" width="170" x="470" y="522.2969"/><ellipse cx="485" cy="538.2969" fill="#ADD1B2" rx="11" ry="11" style="stroke:#181818;stroke-width:1.0;"/><path d="M487.9688,543.9375 Q487.3906,544.2344 486.75,544.375 Q486.1094,544.5313 485.4063,544.5313 Q482.9063,544.5313 481.5781,542.8906 Q480.2656,541.2344 480.2656,538.1094 Q480.2656,534.9844 481.5781,533.3281 Q482.9063,531.6719 485.4063,531.6719 Q486.1094,531.6719 486.75,531.8281 Q487.4063,531.9844 487.9688,532.2813 L487.9688,535 Q487.3438,534.4219 486.75,534.1563 Q486.1563,533.875 485.5313,533.875 Q484.1875,533.875 483.5,534.9531 Q482.8125,536.0156 482.8125,538.1094 Q482.8125,540.2031 483.5,541.2813 Q484.1875,542.3438 485.5313,542.3438 Q486.1563,542.3438 486.75,542.0781 Q487.3438,541.7969 487.9688,541.2188 L487.9688,543.9375 Z " fill="#000000"/><text fill="#000000" font-family="sans-serif" font-size="14" lengthAdjust="spacing" textLength="138" x="499" y="543.1436">ForbiddenException</text><line style="stroke:#181818;stroke-width:0.5;" x1="471" x2="639" y1="554.2969" y2="554.2969"/><line style="stroke:#181818;stroke-width:0.5;" x1="471" x2="639" y1="562.2969" y2="562.2969"/></g><!--MD5=[cc1a2da6e2bbea8c47746b78c2f42ec2]
class io.vrap.rmf.base.client.error.NotFoundException--><g id="elem_io.vrap.rmf.base.client.error.NotFoundException"><rect codeLine="25" fill="#F1F1F1" height="48" id="io.vrap.rmf.base.client.error.NotFoundException" rx="2.5" ry="2.5" style="stroke:#181818;stroke-width:0.5;" width="168" x="675" y="522.2969"/><ellipse cx="690" cy="538.2969" fill="#ADD1B2" rx="11" ry="11" style="stroke:#181818;stroke-width:1.0;"/><path d="M692.9688,543.9375 Q692.3906,544.2344 691.75,544.375 Q691.1094,544.5313 690.4063,544.5313 Q687.9063,544.5313 686.5781,542.8906 Q685.2656,541.2344 685.2656,538.1094 Q685.2656,534.9844 686.5781,533.3281 Q687.9063,531.6719 690.4063,531.6719 Q691.1094,531.6719 691.75,531.8281 Q692.4063,531.9844 692.9688,532.2813 L692.9688,535 Q692.3438,534.4219 691.75,534.1563 Q691.1563,533.875 690.5313,533.875 Q689.1875,533.875 688.5,534.9531 Q687.8125,536.0156 687.8125,538.1094 Q687.8125,540.2031 688.5,541.2813 Q689.1875,542.3438 690.5313,542.3438 Q691.1563,542.3438 691.75,542.0781 Q692.3438,541.7969 692.9688,541.2188 L692.9688,543.9375 Z " fill="#000000"/><text fill="#000000" font-family="sans-serif" font-size="14" lengthAdjust="spacing" textLength="136" x="704" y="543.1436">NotFoundException</text><line style="stroke:#181818;stroke-width:0.5;" x1="676" x2="842" y1="554.2969" y2="554.2969"/><line style="stroke:#181818;stroke-width:0.5;" x1="676" x2="842" y1="562.2969" y2="562.2969"/></g><!--MD5=[39a9390d8bf57b90980f04f75d3d645b]
class io.vrap.rmf.base.client.error.UnauthorizedException--><g id="elem_io.vrap.rmf.base.client.error.UnauthorizedException"><rect codeLine="26" fill="#F1F1F1" height="48" id="io.vrap.rmf.base.client.error.UnauthorizedException" rx="2.5" ry="2.5" style="stroke:#181818;stroke-width:0.5;" width="193" x="878.5" y="522.2969"/><ellipse cx="893.5" cy="538.2969" fill="#ADD1B2" rx="11" ry="11" style="stroke:#181818;stroke-width:1.0;"/><path d="M896.4688,543.9375 Q895.8906,544.2344 895.25,544.375 Q894.6094,544.5313 893.9063,544.5313 Q891.4063,544.5313 890.0781,542.8906 Q888.7656,541.2344 888.7656,538.1094 Q888.7656,534.9844 890.0781,533.3281 Q891.4063,531.6719 893.9063,531.6719 Q894.6094,531.6719 895.25,531.8281 Q895.9063,531.9844 896.4688,532.2813 L896.4688,535 Q895.8438,534.4219 895.25,534.1563 Q894.6563,533.875 894.0313,533.875 Q892.6875,533.875 892,534.9531 Q891.3125,536.0156 891.3125,538.1094 Q891.3125,540.2031 892,541.2813 Q892.6875,542.3438 894.0313,542.3438 Q894.6563,542.3438 895.25,542.0781 Q895.8438,541.7969 896.4688,541.2188 L896.4688,543.9375 Z " fill="#000000"/><text fill="#000000" font-family="sans-serif" font-size="14" lengthAdjust="spacing" textLength="161" x="907.5" y="543.1436">UnauthorizedException</text><line style="stroke:#181818;stroke-width:0.5;" x1="879.5" x2="1070.5" y1="554.2969" y2="554.2969"/><line style="stroke:#181818;stroke-width:0.5;" x1="879.5" x2="1070.5" y1="562.2969" y2="562.2969"/></g><!--MD5=[441151c693a2e0c7cc393ef161c1b180]
reverse link io.vrap.rmf.base.client.error.BaseException to JsonException--><g id="link_io.vrap.rmf.base.client.error.BaseException_JsonException"><path d="M1650,167.2969 C1650,167.2969 1995.35,172.4269 2088,203.2969 C2116.19,212.6869 2144.5,231.1369 2164.61,246.1469 " fill="none" id="io.vrap.rmf.base.client.error.BaseException-backto-JsonException" style="stroke:#181818;stroke-width:1.0;"/></g><!--MD5=[9b778b3e9bb17aab1ece0ce446250e06]
reverse link io.vrap.rmf.base.client.error.BaseException to io.vrap.rmf.base.client.error.JsonException--><g id="link_io.vrap.rmf.base.client.error.BaseException_io.vrap.rmf.base.client.error.JsonException"><path d="M1650,167.2969 C1650,167.2969 1434.05,179.2969 1378,203.2969 C1354.99,213.1569 1333.12,231.3669 1317.76,246.1569 " fill="none" id="io.vrap.rmf.base.client.error.BaseException-backto-io.vrap.rmf.base.client.error.JsonException" style="stroke:#181818;stroke-width:1.0;"/></g><!--MD5=[e2b47b1d84982995f3d0a10170e7b838]
reverse link io.vrap.rmf.base.client.error.BaseException to io.vrap.rmf.base.client.error.FileException--><g id="link_io.vrap.rmf.base.client.error.BaseException_io.vrap.rmf.base.client.error.FileException"><path d="M1650,167.2969 C1650,167.2969 1583.28,178.0669 1537,203.2969 C1515.97,214.7569 1495.2,232.1269 1480.1,246.1669 " fill="none" id="io.vrap.rmf.base.client.error.BaseException-backto-io.vrap.rmf.base.client.error.FileException" style="stroke:#181818;stroke-width:1.0;"/></g><!--MD5=[a9f1dd52d00e189eee163f7fd40d9842]
reverse link io.vrap.rmf.base.client.error.BaseException to io.vrap.rmf.base.client.error.ApiHttpException--><g id="link_io.vrap.rmf.base.client.error.BaseException_io.vrap.rmf.base.client.error.ApiHttpException"><path d="M1650,167.2969 C1650,167.2969 1649.7,198.2369 1649.42,226.0369 " fill="none" id="io.vrap.rmf.base.client.error.BaseException-backto-io.vrap.rmf.base.client.error.ApiHttpException" style="stroke:#181818;stroke-width:1.0;"/></g><!--MD5=[52b560fd26ff58e59db5462039f13ec5]
reverse link io.vrap.rmf.base.client.error.BaseException to io.vrap.rmf.base.client.error.RmfTimeoutException--><g id="link_io.vrap.rmf.base.client.error.BaseException_io.vrap.rmf.base.client.error.RmfTimeoutException"><path d="M1650,167.2969 C1650,167.2969 1714.42,181.6069 1762,203.2969 C1788.37,215.3169 1816.29,232.3169 1837.28,246.0569 " fill="none" id="io.vrap.rmf.base.client.error.BaseException-backto-io.vrap.rmf.base.client.error.RmfTimeoutException" style="stroke:#181818;stroke-width:1.0;"/></g><!--MD5=[c6f8e92fa7ad745005d9c21ecbd79b3b]
reverse link io.vrap.rmf.base.client.error.ApiHttpException to io.vrap.rmf.base.client.error.ApiClientException--><g id="link_io.vrap.rmf.base.client.error.ApiHttpException_io.vrap.rmf.base.client.error.ApiClientException"><path d="M1625,315.2969 C1625,315.2969 1005.03,380.6269 757.4,406.7169 " fill="none" id="io.vrap.rmf.base.client.error.ApiHttpException-backto-io.vrap.rmf.base.client.error.ApiClientException" style="stroke:#181818;stroke-width:1.0;"/></g><!--MD5=[b17ff307a32feae994e213b8cf1d7eb4]
reverse link io.vrap.rmf.base.client.error.ApiHttpException to io.vrap.rmf.base.client.error.ApiServerException--><g id="link_io.vrap.rmf.base.client.error.ApiHttpException_io.vrap.rmf.base.client.error.ApiServerException"><path d="M1625,315.2969 C1625,315.2969 1601.34,346.2369 1580.08,374.0369 " fill="none" id="io.vrap.rmf.base.client.error.ApiHttpException-backto-io.vrap.rmf.base.client.error.ApiServerException" style="stroke:#181818;stroke-width:1.0;"/></g><!--MD5=[de17b01f6bee9fed5b0f5597c4c06d04]
reverse link io.vrap.rmf.base.client.error.ApiHttpException to io.vrap.rmf.base.client.error.AuthException--><g id="link_io.vrap.rmf.base.client.error.ApiHttpException_io.vrap.rmf.base.client.error.AuthException"><path d="M1625,315.2969 C1625,315.2969 1685.23,364.0569 1722.41,394.1469 " fill="none" id="io.vrap.rmf.base.client.error.ApiHttpException-backto-io.vrap.rmf.base.client.error.AuthException" style="stroke:#181818;stroke-width:1.0;"/></g><!--MD5=[e892fade8be2ae46e12266f3b426e181]
reverse link io.vrap.rmf.base.client.error.ApiServerException to io.vrap.rmf.base.client.error.BadGateWayException--><g id="link_io.vrap.rmf.base.client.error.ApiServerException_io.vrap.rmf.base.client.error.BadGateWayException"><path d="M1550,463.2969 C1550,463.2969 1398.8,498.8169 1295.44,523.1069 " fill="none" id="io.vrap.rmf.base.client.error.ApiServerException-backto-io.vrap.rmf.base.client.error.BadGateWayException" style="stroke:#181818;stroke-width:1.0;"/></g><!--MD5=[437c6f0d980f8e2395fb0efad2d90a3a]
reverse link io.vrap.rmf.base.client.error.ApiServerException to io.vrap.rmf.base.client.error.GatewayTimeoutException--><g id="link_io.vrap.rmf.base.client.error.ApiServerException_io.vrap.rmf.base.client.error.GatewayTimeoutException"><path d="M1550,463.2969 C1550,463.2969 1502.62,497.9869 1469.5,522.2369 " fill="none" id="io.vrap.rmf.base.client.error.ApiServerException-backto-io.vrap.rmf.base.client.error.GatewayTimeoutException" style="stroke:#181818;stroke-width:1.0;"/></g><!--MD5=[7ee44491689c0fa4f93bd9fbdf2dd4f8]
reverse link io.vrap.rmf.base.client.error.ApiServerException to io.vrap.rmf.base.client.error.InternalServerErrorException--><g id="link_io.vrap.rmf.base.client.error.ApiServerException_io.vrap.rmf.base.client.error.InternalServerErrorException"><path d="M1550,463.2969 C1550,463.2969 1611.34,497.9869 1654.22,522.2369 " fill="none" id="io.vrap.rmf.base.client.error.ApiServerException-backto-io.vrap.rmf.base.client.error.InternalServerErrorException" style="stroke:#181818;stroke-width:1.0;"/></g><!--MD5=[4a38446f5331aab89461b0708c41c65f]
reverse link io.vrap.rmf.base.client.error.ApiServerException to io.vrap.rmf.base.client.error.ServiceUnavailableException--><g id="link_io.vrap.rmf.base.client.error.ApiServerException_io.vrap.rmf.base.client.error.ServiceUnavailableException"><path d="M1550,463.2969 C1550,463.2969 1723.63,498.1969 1844.35,522.4569 " fill="none" id="io.vrap.rmf.base.client.error.ApiServerException-backto-io.vrap.rmf.base.client.error.ServiceUnavailableException" style="stroke:#181818;stroke-width:1.0;"/></g><!--MD5=[957415f3644fb728bc620af9940049cb]
reverse link io.vrap.rmf.base.client.error.ApiClientException to io.vrap.rmf.base.client.error.BadRequestException--><g id="link_io.vrap.rmf.base.client.error.ApiClientException_io.vrap.rmf.base.client.error.BadRequestException"><path d="M640,463.2969 C640,463.2969 409.09,490.3169 226,522.2969 C220.18,523.3169 214.21,524.4069 208.19,525.5469 " fill="none" id="io.vrap.rmf.base.client.error.ApiClientException-backto-io.vrap.rmf.base.client.error.BadRequestException" style="stroke:#181818;stroke-width:1.0;"/></g><!--MD5=[84b185ca025532299d4d63525ebfb8cc]
reverse link io.vrap.rmf.base.client.error.ApiClientException to io.vrap.rmf.base.client.error.ConcurrentModification--><g id="link_io.vrap.rmf.base.client.error.ApiClientException_io.vrap.rmf.base.client.error.ConcurrentModification"><path d="M640,463.2969 C640,463.2969 512.67,497.9869 423.65,522.2369 " fill="none" id="io.vrap.rmf.base.client.error.ApiClientException-backto-io.vrap.rmf.base.client.error.ConcurrentModification" style="stroke:#181818;stroke-width:1.0;"/></g><!--MD5=[d90d56d9bcc6d7cd90d33c7507cba973]
reverse link io.vrap.rmf.base.client.error.ApiClientException to io.vrap.rmf.base.client.error.ForbiddenException--><g id="link_io.vrap.rmf.base.client.error.ApiClientException_io.vrap.rmf.base.client.error.ForbiddenException"><path d="M640,463.2969 C640,463.2969 604.26,497.7769 579.13,522.0169 " fill="none" id="io.vrap.rmf.base.client.error.ApiClientException-backto-io.vrap.rmf.base.client.error.ForbiddenException" style="stroke:#181818;stroke-width:1.0;"/></g><!--MD5=[0564611abd0fe5f2bf366619ea206674]
reverse link io.vrap.rmf.base.client.error.ApiClientException to io.vrap.rmf.base.client.error.NotFoundException--><g id="link_io.vrap.rmf.base.client.error.ApiClientException_io.vrap.rmf.base.client.error.NotFoundException"><path d="M640,463.2969 C640,463.2969 690.34,497.9869 725.54,522.2369 " fill="none" id="io.vrap.rmf.base.client.error.ApiClientException-backto-io.vrap.rmf.base.client.error.NotFoundException" style="stroke:#181818;stroke-width:1.0;"/></g><!--MD5=[b3c78b8a93ec5d06c82bdeac047d9b1b]
reverse link io.vrap.rmf.base.client.error.ApiClientException to io.vrap.rmf.base.client.error.UnauthorizedException--><g id="link_io.vrap.rmf.base.client.error.ApiClientException_io.vrap.rmf.base.client.error.UnauthorizedException"><path d="M640,463.2969 C640,463.2969 781.71,497.9869 880.79,522.2369 " fill="none" id="io.vrap.rmf.base.client.error.ApiClientException-backto-io.vrap.rmf.base.client.error.UnauthorizedException" style="stroke:#181818;stroke-width:1.0;"/></g><!--MD5=[291e7cffe079890412fbd200d78e9eb1]
@startuml
title Exception hierarchy
 skinparam groupInheritance 2
 package io.vrap.rmf.base.client.utils.json {
     class JsonException extends io.vrap.rmf.base.client.error.BaseException
 }
 package io.vrap.rmf.base.client.error {
   class BaseException
   class JsonException extends BaseException
   class FileException extends BaseException
   class ApiHttpException extends BaseException
   class RmfTimeoutException extends BaseException

   class ApiClientException extends ApiHttpException
   class ApiServerException extends ApiHttpException
   class AuthException extends ApiHttpException

   class BadGateWayException extends ApiServerException
   class GatewayTimeoutException extends ApiServerException
   class InternalServerErrorException extends ApiServerException
   class ServiceUnavailableException extends ApiServerException

   class BadRequestException extends ApiClientException
   class ConcurrentModification extends ApiClientException
   class ForbiddenException extends ApiClientException
   class NotFoundException extends ApiClientException
   class UnauthorizedException extends ApiClientException
 }
@enduml

PlantUML version 1.2022.13(Sat Nov 19 13:22:17 UTC 2022)
(GPL source distribution)
Java Runtime: OpenJDK Runtime Environment
JVM: OpenJDK 64-Bit Server VM
Default Encoding: UTF-8
Language: en
Country: null
--></g></svg>