<?xml version="1.0" encoding="UTF-8" standalone="no"?><svg xmlns="http://www.w3.org/2000/svg" xmlns:xlink="http://www.w3.org/1999/xlink" contentScriptType="application/ecmascript" contentStyleType="text/css" height="576px" preserveAspectRatio="none" style="width:2260px;height:576px;background:#FFFFFF;" version="1.1" viewBox="0 0 2260 576" width="2260px" zoomAndPan="magnify"><defs><filter height="300%" id="f1hixridr34dk1" width="300%" x="-1" y="-1"><feGaussianBlur result="blurOut" stdDeviation="2.0"/><feColorMatrix in="blurOut" result="blurOut2" type="matrix" values="0 0 0 0 0 0 0 0 0 0 0 0 0 0 0 0 0 0 .4 0"/><feOffset dx="4.0" dy="4.0" in="blurOut2" result="blurOut3"/><feBlend in="SourceGraphic" in2="blurOut3" mode="normal"/></filter></defs><g><text fill="#000000" font-family="sans-serif" font-size="18" lengthAdjust="spacing" textLength="177" x="1035" y="16.708">Exception hierarchy</text><!--MD5=[e9d981c69c95cc57158f6e7d27f69975]
cluster io.vrap.rmf.base.client.utils.json--><polygon fill="#FFFFFF" filter="url(#f1hixridr34dk1)" points="1974,194.9531,2233,194.9531,2240,217.25,2243,217.25,2243,293.9531,1974,293.9531,1974,194.9531" style="stroke:#000000;stroke-width:1.5;"/><line style="stroke:#000000;stroke-width:1.5;" x1="1974" x2="2240" y1="217.25" y2="217.25"/><text fill="#000000" font-family="sans-serif" font-size="14" font-weight="bold" lengthAdjust="spacing" textLength="253" x="1978" y="209.9482">io.vrap.rmf.base.client.utils.json</text><!--MD5=[155f099c5c9b177f0b44192671d3ee2e]
cluster io.vrap.rmf.base.client.error--><polygon fill="#FFFFFF" filter="url(#f1hixridr34dk1)" points="16,26.9531,245,26.9531,252,49.25,1950,49.25,1950,569.9531,16,569.9531,16,26.9531" style="stroke:#000000;stroke-width:1.5;"/><line style="stroke:#000000;stroke-width:1.5;" x1="16" x2="252" y1="49.25" y2="49.25"/><text fill="#000000" font-family="sans-serif" font-size="14" font-weight="bold" lengthAdjust="spacing" textLength="223" x="20" y="41.9482">io.vrap.rmf.base.client.error</text><!--MD5=[b826a97db55563387b1e9a96f85ba26a]
class JsonException--><rect codeLine="4" fill="#FEFECE" filter="url(#f1hixridr34dk1)" height="48" id="JsonException" style="stroke:#A80036;stroke-width:1.5;" width="119" x="1990.5" y="229.9531"/><ellipse cx="2005.5" cy="245.9531" fill="#ADD1B2" rx="11" ry="11" style="stroke:#A80036;stroke-width:1.0;"/><path d="M2008.4688,251.5938 Q2007.8906,251.8906 2007.25,252.0313 Q2006.6094,252.1875 2005.9063,252.1875 Q2003.4063,252.1875 2002.0781,250.5469 Q2000.7656,248.8906 2000.7656,245.7656 Q2000.7656,242.6406 2002.0781,240.9844 Q2003.4063,239.3281 2005.9063,239.3281 Q2006.6094,239.3281 2007.25,239.4844 Q2007.9063,239.6406 2008.4688,239.9375 L2008.4688,242.6563 Q2007.8438,242.0781 2007.25,241.8125 Q2006.6563,241.5313 2006.0313,241.5313 Q2004.6875,241.5313 2004,242.6094 Q2003.3125,243.6719 2003.3125,245.7656 Q2003.3125,247.8594 2004,248.9375 Q2004.6875,250 2006.0313,250 Q2006.6563,250 2007.25,249.7344 Q2007.8438,249.4531 2008.4688,248.875 L2008.4688,251.5938 Z " fill="#000000"/><text fill="#000000" font-family="sans-serif" font-size="12" lengthAdjust="spacing" textLength="87" x="2019.5" y="250.1074">JsonException</text><line style="stroke:#A80036;stroke-width:1.5;" x1="1991.5" x2="2108.5" y1="261.9531" y2="261.9531"/><line style="stroke:#A80036;stroke-width:1.5;" x1="1991.5" x2="2108.5" y1="269.9531" y2="269.9531"/><!--MD5=[8c04cec630c98d2526b207e6977342f9]
class io.vrap.rmf.base.client.error.BaseException--><rect codeLine="7" fill="#FEFECE" filter="url(#f1hixridr34dk1)" height="48" id="io.vrap.rmf.base.client.error.BaseException" style="stroke:#A80036;stroke-width:1.5;" width="124" x="1714" y="81.9531"/><ellipse cx="1729" cy="97.9531" fill="#ADD1B2" rx="11" ry="11" style="stroke:#A80036;stroke-width:1.0;"/><path d="M1731.9688,103.5938 Q1731.3906,103.8906 1730.75,104.0313 Q1730.1094,104.1875 1729.4063,104.1875 Q1726.9063,104.1875 1725.5781,102.5469 Q1724.2656,100.8906 1724.2656,97.7656 Q1724.2656,94.6406 1725.5781,92.9844 Q1726.9063,91.3281 1729.4063,91.3281 Q1730.1094,91.3281 1730.75,91.4844 Q1731.4063,91.6406 1731.9688,91.9375 L1731.9688,94.6563 Q1731.3438,94.0781 1730.75,93.8125 Q1730.1563,93.5313 1729.5313,93.5313 Q1728.1875,93.5313 1727.5,94.6094 Q1726.8125,95.6719 1726.8125,97.7656 Q1726.8125,99.8594 1727.5,100.9375 Q1728.1875,102 1729.5313,102 Q1730.1563,102 1730.75,101.7344 Q1731.3438,101.4531 1731.9688,100.875 L1731.9688,103.5938 Z " fill="#000000"/><text fill="#000000" font-family="sans-serif" font-size="12" lengthAdjust="spacing" textLength="92" x="1743" y="102.1074">BaseException</text><line style="stroke:#A80036;stroke-width:1.5;" x1="1715" x2="1837" y1="113.9531" y2="113.9531"/><line style="stroke:#A80036;stroke-width:1.5;" x1="1715" x2="1837" y1="121.9531" y2="121.9531"/><polygon fill="none" points="1775.4667,129.9531,1782.0206,150.1037,1768.0241,149.7927" style="stroke:#A80036;stroke-width:1.0;"/><line style="stroke:#A80036;stroke-width:1.0;" x1="1775.0223" x2="1775" y1="149.9482" y2="150.9531"/><!--MD5=[6298af0e4f55214f498dc864716867fd]
class io.vrap.rmf.base.client.error.ApiHttpException--><rect codeLine="8" fill="#FEFECE" filter="url(#f1hixridr34dk1)" height="48" id="io.vrap.rmf.base.client.error.ApiHttpException" style="stroke:#A80036;stroke-width:1.5;" width="139" x="1349.5" y="229.9531"/><ellipse cx="1364.5" cy="245.9531" fill="#ADD1B2" rx="11" ry="11" style="stroke:#A80036;stroke-width:1.0;"/><path d="M1367.4688,251.5938 Q1366.8906,251.8906 1366.25,252.0313 Q1365.6094,252.1875 1364.9063,252.1875 Q1362.4063,252.1875 1361.0781,250.5469 Q1359.7656,248.8906 1359.7656,245.7656 Q1359.7656,242.6406 1361.0781,240.9844 Q1362.4063,239.3281 1364.9063,239.3281 Q1365.6094,239.3281 1366.25,239.4844 Q1366.9063,239.6406 1367.4688,239.9375 L1367.4688,242.6563 Q1366.8438,242.0781 1366.25,241.8125 Q1365.6563,241.5313 1365.0313,241.5313 Q1363.6875,241.5313 1363,242.6094 Q1362.3125,243.6719 1362.3125,245.7656 Q1362.3125,247.8594 1363,248.9375 Q1363.6875,250 1365.0313,250 Q1365.6563,250 1366.25,249.7344 Q1366.8438,249.4531 1367.4688,248.875 L1367.4688,251.5938 Z " fill="#000000"/><text fill="#000000" font-family="sans-serif" font-size="12" lengthAdjust="spacing" textLength="107" x="1378.5" y="250.1074">ApiHttpException</text><line style="stroke:#A80036;stroke-width:1.5;" x1="1350.5" x2="1487.5" y1="261.9531" y2="261.9531"/><line style="stroke:#A80036;stroke-width:1.5;" x1="1350.5" x2="1487.5" y1="269.9531" y2="269.9531"/><polygon fill="none" points="1399.2667,277.9531,1391.9715,297.8474,1381.1576,288.9559" style="stroke:#A80036;stroke-width:1.0;"/><line style="stroke:#A80036;stroke-width:1.0;" x1="1386.5646" x2="1382" y1="293.4016" y2="298.9531"/><line style="stroke:#A80036;stroke-width:1.0;" x1="1488.5" x2="1508.83" y1="233.2648" y2="227.2131"/><!--MD5=[51c4d955a5d6a91b911d97b2aa66bf17]
class io.vrap.rmf.base.client.error.RmfTimeoutException--><rect codeLine="9" fill="#FEFECE" filter="url(#f1hixridr34dk1)" height="48" id="io.vrap.rmf.base.client.error.RmfTimeoutException" style="stroke:#A80036;stroke-width:1.5;" width="166" x="1693" y="229.9531"/><ellipse cx="1708" cy="245.9531" fill="#ADD1B2" rx="11" ry="11" style="stroke:#A80036;stroke-width:1.0;"/><path d="M1710.9688,251.5938 Q1710.3906,251.8906 1709.75,252.0313 Q1709.1094,252.1875 1708.4063,252.1875 Q1705.9063,252.1875 1704.5781,250.5469 Q1703.2656,248.8906 1703.2656,245.7656 Q1703.2656,242.6406 1704.5781,240.9844 Q1705.9063,239.3281 1708.4063,239.3281 Q1709.1094,239.3281 1709.75,239.4844 Q1710.4063,239.6406 1710.9688,239.9375 L1710.9688,242.6563 Q1710.3438,242.0781 1709.75,241.8125 Q1709.1563,241.5313 1708.5313,241.5313 Q1707.1875,241.5313 1706.5,242.6094 Q1705.8125,243.6719 1705.8125,245.7656 Q1705.8125,247.8594 1706.5,248.9375 Q1707.1875,250 1708.5313,250 Q1709.1563,250 1709.75,249.7344 Q1710.3438,249.4531 1710.9688,248.875 L1710.9688,251.5938 Z " fill="#000000"/><text fill="#000000" font-family="sans-serif" font-size="12" lengthAdjust="spacing" textLength="134" x="1722" y="250.1074">RmfTimeoutException</text><line style="stroke:#A80036;stroke-width:1.5;" x1="1694" x2="1858" y1="261.9531" y2="261.9531"/><line style="stroke:#A80036;stroke-width:1.5;" x1="1694" x2="1858" y1="269.9531" y2="269.9531"/><!--MD5=[7ef6017c47bf4bf51ecdc660cd101fec]
class io.vrap.rmf.base.client.error.ApiClientException--><rect codeLine="11" fill="#FEFECE" filter="url(#f1hixridr34dk1)" height="48" id="io.vrap.rmf.base.client.error.ApiClientException" style="stroke:#A80036;stroke-width:1.5;" width="147" x="547.5" y="377.9531"/><ellipse cx="562.5" cy="393.9531" fill="#ADD1B2" rx="11" ry="11" style="stroke:#A80036;stroke-width:1.0;"/><path d="M565.4688,399.5938 Q564.8906,399.8906 564.25,400.0313 Q563.6094,400.1875 562.9063,400.1875 Q560.4063,400.1875 559.0781,398.5469 Q557.7656,396.8906 557.7656,393.7656 Q557.7656,390.6406 559.0781,388.9844 Q560.4063,387.3281 562.9063,387.3281 Q563.6094,387.3281 564.25,387.4844 Q564.9063,387.6406 565.4688,387.9375 L565.4688,390.6563 Q564.8438,390.0781 564.25,389.8125 Q563.6563,389.5313 563.0313,389.5313 Q561.6875,389.5313 561,390.6094 Q560.3125,391.6719 560.3125,393.7656 Q560.3125,395.8594 561,396.9375 Q561.6875,398 563.0313,398 Q563.6563,398 564.25,397.7344 Q564.8438,397.4531 565.4688,396.875 L565.4688,399.5938 Z " fill="#000000"/><text fill="#000000" font-family="sans-serif" font-size="12" lengthAdjust="spacing" textLength="115" x="576.5" y="398.1074">ApiClientException</text><line style="stroke:#A80036;stroke-width:1.5;" x1="548.5" x2="693.5" y1="409.9531" y2="409.9531"/><line style="stroke:#A80036;stroke-width:1.5;" x1="548.5" x2="693.5" y1="417.9531" y2="417.9531"/><polygon fill="none" points="612.4667,425.9531,612.362,447.1425,599.171,442.4524" style="stroke:#A80036;stroke-width:1.0;"/><line style="stroke:#A80036;stroke-width:1.0;" x1="605.7665" x2="605" y1="444.7974" y2="446.9531"/><line style="stroke:#A80036;stroke-width:1.0;" x1="694.5" x2="714.69" y1="391.3153" y2="388.3931"/><!--MD5=[e7362531533c206131329137446b828a]
class io.vrap.rmf.base.client.error.ApiServerException--><rect codeLine="12" fill="#FEFECE" filter="url(#f1hixridr34dk1)" height="48" id="io.vrap.rmf.base.client.error.ApiServerException" style="stroke:#A80036;stroke-width:1.5;" width="152" x="1343" y="377.9531"/><ellipse cx="1358" cy="393.9531" fill="#ADD1B2" rx="11" ry="11" style="stroke:#A80036;stroke-width:1.0;"/><path d="M1360.9688,399.5938 Q1360.3906,399.8906 1359.75,400.0313 Q1359.1094,400.1875 1358.4063,400.1875 Q1355.9063,400.1875 1354.5781,398.5469 Q1353.2656,396.8906 1353.2656,393.7656 Q1353.2656,390.6406 1354.5781,388.9844 Q1355.9063,387.3281 1358.4063,387.3281 Q1359.1094,387.3281 1359.75,387.4844 Q1360.4063,387.6406 1360.9688,387.9375 L1360.9688,390.6563 Q1360.3438,390.0781 1359.75,389.8125 Q1359.1563,389.5313 1358.5313,389.5313 Q1357.1875,389.5313 1356.5,390.6094 Q1355.8125,391.6719 1355.8125,393.7656 Q1355.8125,395.8594 1356.5,396.9375 Q1357.1875,398 1358.5313,398 Q1359.1563,398 1359.75,397.7344 Q1360.3438,397.4531 1360.9688,396.875 L1360.9688,399.5938 Z " fill="#000000"/><text fill="#000000" font-family="sans-serif" font-size="12" lengthAdjust="spacing" textLength="120" x="1372" y="398.1074">ApiServerException</text><line style="stroke:#A80036;stroke-width:1.5;" x1="1344" x2="1494" y1="409.9531" y2="409.9531"/><line style="stroke:#A80036;stroke-width:1.5;" x1="1344" x2="1494" y1="417.9531" y2="417.9531"/><polygon fill="none" points="1422.7333,425.9531,1432.7243,444.6395,1418.8907,446.7914" style="stroke:#A80036;stroke-width:1.0;"/><line style="stroke:#A80036;stroke-width:1.0;" x1="1425.8075" x2="1426" y1="445.7155" y2="446.9531"/><line style="stroke:#A80036;stroke-width:1.0;" x1="1410.4921" x2="1403.31" y1="377.9531" y2="357.6931"/><!--MD5=[67d1152951a21adc6f92ce22f1d8ce04]
class io.vrap.rmf.base.client.error.BadGateWayException--><rect codeLine="14" fill="#FEFECE" filter="url(#f1hixridr34dk1)" height="48" id="io.vrap.rmf.base.client.error.BadGateWayException" style="stroke:#A80036;stroke-width:1.5;" width="172" x="1039" y="505.9531"/><ellipse cx="1054" cy="521.9531" fill="#ADD1B2" rx="11" ry="11" style="stroke:#A80036;stroke-width:1.0;"/><path d="M1056.9688,527.5938 Q1056.3906,527.8906 1055.75,528.0313 Q1055.1094,528.1875 1054.4063,528.1875 Q1051.9063,528.1875 1050.5781,526.5469 Q1049.2656,524.8906 1049.2656,521.7656 Q1049.2656,518.6406 1050.5781,516.9844 Q1051.9063,515.3281 1054.4063,515.3281 Q1055.1094,515.3281 1055.75,515.4844 Q1056.4063,515.6406 1056.9688,515.9375 L1056.9688,518.6563 Q1056.3438,518.0781 1055.75,517.8125 Q1055.1563,517.5313 1054.5313,517.5313 Q1053.1875,517.5313 1052.5,518.6094 Q1051.8125,519.6719 1051.8125,521.7656 Q1051.8125,523.8594 1052.5,524.9375 Q1053.1875,526 1054.5313,526 Q1055.1563,526 1055.75,525.7344 Q1056.3438,525.4531 1056.9688,524.875 L1056.9688,527.5938 Z " fill="#000000"/><text fill="#000000" font-family="sans-serif" font-size="12" lengthAdjust="spacing" textLength="140" x="1068" y="526.1074">BadGateWayException</text><line style="stroke:#A80036;stroke-width:1.5;" x1="1040" x2="1210" y1="537.9531" y2="537.9531"/><line style="stroke:#A80036;stroke-width:1.5;" x1="1040" x2="1210" y1="545.9531" y2="545.9531"/><!--MD5=[928751f1098985678d8a6352ab21d8b3]
class io.vrap.rmf.base.client.error.GatewayTimeoutException--><rect codeLine="15" fill="#FEFECE" filter="url(#f1hixridr34dk1)" height="48" id="io.vrap.rmf.base.client.error.GatewayTimeoutException" style="stroke:#A80036;stroke-width:1.5;" width="196" x="1246" y="505.9531"/><ellipse cx="1261" cy="521.9531" fill="#ADD1B2" rx="11" ry="11" style="stroke:#A80036;stroke-width:1.0;"/><path d="M1263.9688,527.5938 Q1263.3906,527.8906 1262.75,528.0313 Q1262.1094,528.1875 1261.4063,528.1875 Q1258.9063,528.1875 1257.5781,526.5469 Q1256.2656,524.8906 1256.2656,521.7656 Q1256.2656,518.6406 1257.5781,516.9844 Q1258.9063,515.3281 1261.4063,515.3281 Q1262.1094,515.3281 1262.75,515.4844 Q1263.4063,515.6406 1263.9688,515.9375 L1263.9688,518.6563 Q1263.3438,518.0781 1262.75,517.8125 Q1262.1563,517.5313 1261.5313,517.5313 Q1260.1875,517.5313 1259.5,518.6094 Q1258.8125,519.6719 1258.8125,521.7656 Q1258.8125,523.8594 1259.5,524.9375 Q1260.1875,526 1261.5313,526 Q1262.1563,526 1262.75,525.7344 Q1263.3438,525.4531 1263.9688,524.875 L1263.9688,527.5938 Z " fill="#000000"/><text fill="#000000" font-family="sans-serif" font-size="12" lengthAdjust="spacing" textLength="164" x="1275" y="526.1074">GatewayTimeoutException</text><line style="stroke:#A80036;stroke-width:1.5;" x1="1247" x2="1441" y1="537.9531" y2="537.9531"/><line style="stroke:#A80036;stroke-width:1.5;" x1="1247" x2="1441" y1="545.9531" y2="545.9531"/><!--MD5=[cdafab7c8ac89d71211c494343ab9e0a]
class io.vrap.rmf.base.client.error.InternalServerErrorException--><rect codeLine="16" fill="#FEFECE" filter="url(#f1hixridr34dk1)" height="48" id="io.vrap.rmf.base.client.error.InternalServerErrorException" style="stroke:#A80036;stroke-width:1.5;" width="212" x="1477" y="505.9531"/><ellipse cx="1492" cy="521.9531" fill="#ADD1B2" rx="11" ry="11" style="stroke:#A80036;stroke-width:1.0;"/><path d="M1494.9688,527.5938 Q1494.3906,527.8906 1493.75,528.0313 Q1493.1094,528.1875 1492.4063,528.1875 Q1489.9063,528.1875 1488.5781,526.5469 Q1487.2656,524.8906 1487.2656,521.7656 Q1487.2656,518.6406 1488.5781,516.9844 Q1489.9063,515.3281 1492.4063,515.3281 Q1493.1094,515.3281 1493.75,515.4844 Q1494.4063,515.6406 1494.9688,515.9375 L1494.9688,518.6563 Q1494.3438,518.0781 1493.75,517.8125 Q1493.1563,517.5313 1492.5313,517.5313 Q1491.1875,517.5313 1490.5,518.6094 Q1489.8125,519.6719 1489.8125,521.7656 Q1489.8125,523.8594 1490.5,524.9375 Q1491.1875,526 1492.5313,526 Q1493.1563,526 1493.75,525.7344 Q1494.3438,525.4531 1494.9688,524.875 L1494.9688,527.5938 Z " fill="#000000"/><text fill="#000000" font-family="sans-serif" font-size="12" lengthAdjust="spacing" textLength="180" x="1506" y="526.1074">InternalServerErrorException</text><line style="stroke:#A80036;stroke-width:1.5;" x1="1478" x2="1688" y1="537.9531" y2="537.9531"/><line style="stroke:#A80036;stroke-width:1.5;" x1="1478" x2="1688" y1="545.9531" y2="545.9531"/><!--MD5=[a338d60d2ab87bf9c27e330b9b8d9bef]
class io.vrap.rmf.base.client.error.ServiceUnavailableException--><rect codeLine="17" fill="#FEFECE" filter="url(#f1hixridr34dk1)" height="48" id="io.vrap.rmf.base.client.error.ServiceUnavailableException" style="stroke:#A80036;stroke-width:1.5;" width="210" x="1724" y="505.9531"/><ellipse cx="1739" cy="521.9531" fill="#ADD1B2" rx="11" ry="11" style="stroke:#A80036;stroke-width:1.0;"/><path d="M1741.9688,527.5938 Q1741.3906,527.8906 1740.75,528.0313 Q1740.1094,528.1875 1739.4063,528.1875 Q1736.9063,528.1875 1735.5781,526.5469 Q1734.2656,524.8906 1734.2656,521.7656 Q1734.2656,518.6406 1735.5781,516.9844 Q1736.9063,515.3281 1739.4063,515.3281 Q1740.1094,515.3281 1740.75,515.4844 Q1741.4063,515.6406 1741.9688,515.9375 L1741.9688,518.6563 Q1741.3438,518.0781 1740.75,517.8125 Q1740.1563,517.5313 1739.5313,517.5313 Q1738.1875,517.5313 1737.5,518.6094 Q1736.8125,519.6719 1736.8125,521.7656 Q1736.8125,523.8594 1737.5,524.9375 Q1738.1875,526 1739.5313,526 Q1740.1563,526 1740.75,525.7344 Q1741.3438,525.4531 1741.9688,524.875 L1741.9688,527.5938 Z " fill="#000000"/><text fill="#000000" font-family="sans-serif" font-size="12" lengthAdjust="spacing" textLength="178" x="1753" y="526.1074">ServiceUnavailableException</text><line style="stroke:#A80036;stroke-width:1.5;" x1="1725" x2="1933" y1="537.9531" y2="537.9531"/><line style="stroke:#A80036;stroke-width:1.5;" x1="1725" x2="1933" y1="545.9531" y2="545.9531"/><!--MD5=[01a727bf6a270c9f94d975941a0daba2]
class io.vrap.rmf.base.client.error.BadRequestException--><rect codeLine="19" fill="#FEFECE" filter="url(#f1hixridr34dk1)" height="48" id="io.vrap.rmf.base.client.error.BadRequestException" style="stroke:#A80036;stroke-width:1.5;" width="169" x="31.5" y="505.9531"/><ellipse cx="46.5" cy="521.9531" fill="#ADD1B2" rx="11" ry="11" style="stroke:#A80036;stroke-width:1.0;"/><path d="M49.4688,527.5938 Q48.8906,527.8906 48.25,528.0313 Q47.6094,528.1875 46.9063,528.1875 Q44.4063,528.1875 43.0781,526.5469 Q41.7656,524.8906 41.7656,521.7656 Q41.7656,518.6406 43.0781,516.9844 Q44.4063,515.3281 46.9063,515.3281 Q47.6094,515.3281 48.25,515.4844 Q48.9063,515.6406 49.4688,515.9375 L49.4688,518.6563 Q48.8438,518.0781 48.25,517.8125 Q47.6563,517.5313 47.0313,517.5313 Q45.6875,517.5313 45,518.6094 Q44.3125,519.6719 44.3125,521.7656 Q44.3125,523.8594 45,524.9375 Q45.6875,526 47.0313,526 Q47.6563,526 48.25,525.7344 Q48.8438,525.4531 49.4688,524.875 L49.4688,527.5938 Z " fill="#000000"/><text fill="#000000" font-family="sans-serif" font-size="12" lengthAdjust="spacing" textLength="137" x="60.5" y="526.1074">BadRequestException</text><line style="stroke:#A80036;stroke-width:1.5;" x1="32.5" x2="199.5" y1="537.9531" y2="537.9531"/><line style="stroke:#A80036;stroke-width:1.5;" x1="32.5" x2="199.5" y1="545.9531" y2="545.9531"/><!--MD5=[8c272a1fa976ac85a6e28335dda177b7]
class io.vrap.rmf.base.client.error.ConcurrentModification--><rect codeLine="20" fill="#FEFECE" filter="url(#f1hixridr34dk1)" height="48" id="io.vrap.rmf.base.client.error.ConcurrentModification" style="stroke:#A80036;stroke-width:1.5;" width="177" x="235.5" y="505.9531"/><ellipse cx="250.5" cy="521.9531" fill="#ADD1B2" rx="11" ry="11" style="stroke:#A80036;stroke-width:1.0;"/><path d="M253.4688,527.5938 Q252.8906,527.8906 252.25,528.0313 Q251.6094,528.1875 250.9063,528.1875 Q248.4063,528.1875 247.0781,526.5469 Q245.7656,524.8906 245.7656,521.7656 Q245.7656,518.6406 247.0781,516.9844 Q248.4063,515.3281 250.9063,515.3281 Q251.6094,515.3281 252.25,515.4844 Q252.9063,515.6406 253.4688,515.9375 L253.4688,518.6563 Q252.8438,518.0781 252.25,517.8125 Q251.6563,517.5313 251.0313,517.5313 Q249.6875,517.5313 249,518.6094 Q248.3125,519.6719 248.3125,521.7656 Q248.3125,523.8594 249,524.9375 Q249.6875,526 251.0313,526 Q251.6563,526 252.25,525.7344 Q252.8438,525.4531 253.4688,524.875 L253.4688,527.5938 Z " fill="#000000"/><text fill="#000000" font-family="sans-serif" font-size="12" lengthAdjust="spacing" textLength="145" x="264.5" y="526.1074">ConcurrentModification</text><line style="stroke:#A80036;stroke-width:1.5;" x1="236.5" x2="411.5" y1="537.9531" y2="537.9531"/><line style="stroke:#A80036;stroke-width:1.5;" x1="236.5" x2="411.5" y1="545.9531" y2="545.9531"/><!--MD5=[b93113eea77b010e251b5f4659c7e107]
class io.vrap.rmf.base.client.error.ForbiddenException--><rect codeLine="21" fill="#FEFECE" filter="url(#f1hixridr34dk1)" height="48" id="io.vrap.rmf.base.client.error.ForbiddenException" style="stroke:#A80036;stroke-width:1.5;" width="156" x="448" y="505.9531"/><ellipse cx="463" cy="521.9531" fill="#ADD1B2" rx="11" ry="11" style="stroke:#A80036;stroke-width:1.0;"/><path d="M465.9688,527.5938 Q465.3906,527.8906 464.75,528.0313 Q464.1094,528.1875 463.4063,528.1875 Q460.9063,528.1875 459.5781,526.5469 Q458.2656,524.8906 458.2656,521.7656 Q458.2656,518.6406 459.5781,516.9844 Q460.9063,515.3281 463.4063,515.3281 Q464.1094,515.3281 464.75,515.4844 Q465.4063,515.6406 465.9688,515.9375 L465.9688,518.6563 Q465.3438,518.0781 464.75,517.8125 Q464.1563,517.5313 463.5313,517.5313 Q462.1875,517.5313 461.5,518.6094 Q460.8125,519.6719 460.8125,521.7656 Q460.8125,523.8594 461.5,524.9375 Q462.1875,526 463.5313,526 Q464.1563,526 464.75,525.7344 Q465.3438,525.4531 465.9688,524.875 L465.9688,527.5938 Z " fill="#000000"/><text fill="#000000" font-family="sans-serif" font-size="12" lengthAdjust="spacing" textLength="124" x="477" y="526.1074">ForbiddenException</text><line style="stroke:#A80036;stroke-width:1.5;" x1="449" x2="603" y1="537.9531" y2="537.9531"/><line style="stroke:#A80036;stroke-width:1.5;" x1="449" x2="603" y1="545.9531" y2="545.9531"/><!--MD5=[cc1a2da6e2bbea8c47746b78c2f42ec2]
class io.vrap.rmf.base.client.error.NotFoundException--><rect codeLine="22" fill="#FEFECE" filter="url(#f1hixridr34dk1)" height="48" id="io.vrap.rmf.base.client.error.NotFoundException" style="stroke:#A80036;stroke-width:1.5;" width="154" x="639" y="505.9531"/><ellipse cx="654" cy="521.9531" fill="#ADD1B2" rx="11" ry="11" style="stroke:#A80036;stroke-width:1.0;"/><path d="M656.9688,527.5938 Q656.3906,527.8906 655.75,528.0313 Q655.1094,528.1875 654.4063,528.1875 Q651.9063,528.1875 650.5781,526.5469 Q649.2656,524.8906 649.2656,521.7656 Q649.2656,518.6406 650.5781,516.9844 Q651.9063,515.3281 654.4063,515.3281 Q655.1094,515.3281 655.75,515.4844 Q656.4063,515.6406 656.9688,515.9375 L656.9688,518.6563 Q656.3438,518.0781 655.75,517.8125 Q655.1563,517.5313 654.5313,517.5313 Q653.1875,517.5313 652.5,518.6094 Q651.8125,519.6719 651.8125,521.7656 Q651.8125,523.8594 652.5,524.9375 Q653.1875,526 654.5313,526 Q655.1563,526 655.75,525.7344 Q656.3438,525.4531 656.9688,524.875 L656.9688,527.5938 Z " fill="#000000"/><text fill="#000000" font-family="sans-serif" font-size="12" lengthAdjust="spacing" textLength="122" x="668" y="526.1074">NotFoundException</text><line style="stroke:#A80036;stroke-width:1.5;" x1="640" x2="792" y1="537.9531" y2="537.9531"/><line style="stroke:#A80036;stroke-width:1.5;" x1="640" x2="792" y1="545.9531" y2="545.9531"/><!--MD5=[39a9390d8bf57b90980f04f75d3d645b]
class io.vrap.rmf.base.client.error.UnauthorizedException--><rect codeLine="23" fill="#FEFECE" filter="url(#f1hixridr34dk1)" height="48" id="io.vrap.rmf.base.client.error.UnauthorizedException" style="stroke:#A80036;stroke-width:1.5;" width="176" x="828" y="505.9531"/><ellipse cx="843" cy="521.9531" fill="#ADD1B2" rx="11" ry="11" style="stroke:#A80036;stroke-width:1.0;"/><path d="M845.9688,527.5938 Q845.3906,527.8906 844.75,528.0313 Q844.1094,528.1875 843.4063,528.1875 Q840.9063,528.1875 839.5781,526.5469 Q838.2656,524.8906 838.2656,521.7656 Q838.2656,518.6406 839.5781,516.9844 Q840.9063,515.3281 843.4063,515.3281 Q844.1094,515.3281 844.75,515.4844 Q845.4063,515.6406 845.9688,515.9375 L845.9688,518.6563 Q845.3438,518.0781 844.75,517.8125 Q844.1563,517.5313 843.5313,517.5313 Q842.1875,517.5313 841.5,518.6094 Q840.8125,519.6719 840.8125,521.7656 Q840.8125,523.8594 841.5,524.9375 Q842.1875,526 843.5313,526 Q844.1563,526 844.75,525.7344 Q845.3438,525.4531 845.9688,524.875 L845.9688,527.5938 Z " fill="#000000"/><text fill="#000000" font-family="sans-serif" font-size="12" lengthAdjust="spacing" textLength="144" x="857" y="526.1074">UnauthorizedException</text><line style="stroke:#A80036;stroke-width:1.5;" x1="829" x2="1003" y1="537.9531" y2="537.9531"/><line style="stroke:#A80036;stroke-width:1.5;" x1="829" x2="1003" y1="545.9531" y2="545.9531"/><!--MD5=[441151c693a2e0c7cc393ef161c1b180]
reverse link io.vrap.rmf.base.client.error.BaseException to JsonException--><path d="M1775,150.9531 C1775,150.9531 1876.65,156.5331 1950,186.9531 C1975.94,197.7131 2002.33,215.4731 2021.48,229.8631 " fill="none" id="io.vrap.rmf.base.client.error.BaseException-backto-JsonException" style="stroke:#A80036;stroke-width:1.0;"/><!--MD5=[a9f1dd52d00e189eee163f7fd40d9842]
reverse link io.vrap.rmf.base.client.error.BaseException to io.vrap.rmf.base.client.error.ApiHttpException--><path d="M1775,150.9531 C1775,150.9531 1614.3,196.9931 1508.83,227.2131 " fill="none" id="io.vrap.rmf.base.client.error.BaseException-backto-io.vrap.rmf.base.client.error.ApiHttpException" style="stroke:#A80036;stroke-width:1.0;"/><!--MD5=[52b560fd26ff58e59db5462039f13ec5]
reverse link io.vrap.rmf.base.client.error.BaseException to io.vrap.rmf.base.client.error.RmfTimeoutException--><path d="M1775,150.9531 C1775,150.9531 1775.48,199.7131 1775.77,229.8031 " fill="none" id="io.vrap.rmf.base.client.error.BaseException-backto-io.vrap.rmf.base.client.error.RmfTimeoutException" style="stroke:#A80036;stroke-width:1.0;"/><!--MD5=[c6f8e92fa7ad745005d9c21ecbd79b3b]
reverse link io.vrap.rmf.base.client.error.ApiHttpException to io.vrap.rmf.base.client.error.ApiClientException--><path d="M1382,298.9531 C1382,298.9531 918.1,361.1331 714.69,388.3931 " fill="none" id="io.vrap.rmf.base.client.error.ApiHttpException-backto-io.vrap.rmf.base.client.error.ApiClientException" style="stroke:#A80036;stroke-width:1.0;"/><!--MD5=[b17ff307a32feae994e213b8cf1d7eb4]
reverse link io.vrap.rmf.base.client.error.ApiHttpException to io.vrap.rmf.base.client.error.ApiServerException--><path d="M1382,298.9531 C1382,298.9531 1393.22,329.8931 1403.31,357.6931 " fill="none" id="io.vrap.rmf.base.client.error.ApiHttpException-backto-io.vrap.rmf.base.client.error.ApiServerException" style="stroke:#A80036;stroke-width:1.0;"/><!--MD5=[e892fade8be2ae46e12266f3b426e181]
reverse link io.vrap.rmf.base.client.error.ApiServerException to io.vrap.rmf.base.client.error.BadGateWayException--><path d="M1426,446.9531 C1426,446.9531 1298.67,481.6431 1209.65,505.8931 " fill="none" id="io.vrap.rmf.base.client.error.ApiServerException-backto-io.vrap.rmf.base.client.error.BadGateWayException" style="stroke:#A80036;stroke-width:1.0;"/><!--MD5=[437c6f0d980f8e2395fb0efad2d90a3a]
reverse link io.vrap.rmf.base.client.error.ApiServerException to io.vrap.rmf.base.client.error.GatewayTimeoutException--><path d="M1426,446.9531 C1426,446.9531 1391.52,481.4331 1367.28,505.6731 " fill="none" id="io.vrap.rmf.base.client.error.ApiServerException-backto-io.vrap.rmf.base.client.error.GatewayTimeoutException" style="stroke:#A80036;stroke-width:1.0;"/><!--MD5=[7ee44491689c0fa4f93bd9fbdf2dd4f8]
reverse link io.vrap.rmf.base.client.error.ApiServerException to io.vrap.rmf.base.client.error.InternalServerErrorException--><path d="M1426,446.9531 C1426,446.9531 1492.41,481.6431 1538.85,505.8931 " fill="none" id="io.vrap.rmf.base.client.error.ApiServerException-backto-io.vrap.rmf.base.client.error.InternalServerErrorException" style="stroke:#A80036;stroke-width:1.0;"/><!--MD5=[4a38446f5331aab89461b0708c41c65f]
reverse link io.vrap.rmf.base.client.error.ApiServerException to io.vrap.rmf.base.client.error.ServiceUnavailableException--><path d="M1426,446.9531 C1426,446.9531 1604.5,483.2731 1723.91,507.5731 " fill="none" id="io.vrap.rmf.base.client.error.ApiServerException-backto-io.vrap.rmf.base.client.error.ServiceUnavailableException" style="stroke:#A80036;stroke-width:1.0;"/><!--MD5=[957415f3644fb728bc620af9940049cb]
reverse link io.vrap.rmf.base.client.error.ApiClientException to io.vrap.rmf.base.client.error.BadRequestException--><path d="M605,446.9531 C605,446.9531 388.97,473.6831 218,505.9531 C212.29,507.0331 206.42,508.1931 200.51,509.4131 " fill="none" id="io.vrap.rmf.base.client.error.ApiClientException-backto-io.vrap.rmf.base.client.error.BadRequestException" style="stroke:#A80036;stroke-width:1.0;"/><!--MD5=[84b185ca025532299d4d63525ebfb8cc]
reverse link io.vrap.rmf.base.client.error.ApiClientException to io.vrap.rmf.base.client.error.ConcurrentModification--><path d="M605,446.9531 C605,446.9531 486.13,481.6431 403.02,505.8931 " fill="none" id="io.vrap.rmf.base.client.error.ApiClientException-backto-io.vrap.rmf.base.client.error.ConcurrentModification" style="stroke:#A80036;stroke-width:1.0;"/><!--MD5=[d90d56d9bcc6d7cd90d33c7507cba973]
reverse link io.vrap.rmf.base.client.error.ApiClientException to io.vrap.rmf.base.client.error.ForbiddenException--><path d="M605,446.9531 C605,446.9531 571.78,481.4331 548.43,505.6731 " fill="none" id="io.vrap.rmf.base.client.error.ApiClientException-backto-io.vrap.rmf.base.client.error.ForbiddenException" style="stroke:#A80036;stroke-width:1.0;"/><!--MD5=[0564611abd0fe5f2bf366619ea206674]
reverse link io.vrap.rmf.base.client.error.ApiClientException to io.vrap.rmf.base.client.error.NotFoundException--><path d="M605,446.9531 C605,446.9531 651.95,481.6431 684.78,505.8931 " fill="none" id="io.vrap.rmf.base.client.error.ApiClientException-backto-io.vrap.rmf.base.client.error.NotFoundException" style="stroke:#A80036;stroke-width:1.0;"/><!--MD5=[b3c78b8a93ec5d06c82bdeac047d9b1b]
reverse link io.vrap.rmf.base.client.error.ApiClientException to io.vrap.rmf.base.client.error.UnauthorizedException--><path d="M605,446.9531 C605,446.9531 736.56,481.6431 828.54,505.8931 " fill="none" id="io.vrap.rmf.base.client.error.ApiClientException-backto-io.vrap.rmf.base.client.error.UnauthorizedException" style="stroke:#A80036;stroke-width:1.0;"/><!--MD5=[9e783a1e8477fa7ca39897ae684c1fa8]
@startuml
title Exception hierarchy
 skinparam groupInheritance 2
 package io.vrap.rmf.base.client.utils.json {
     class JsonException extends io.vrap.rmf.base.client.error.BaseException
 }
 package io.vrap.rmf.base.client.error {
   class BaseException
   class ApiHttpException extends BaseException
   class RmfTimeoutException extends BaseException

   class ApiClientException extends ApiHttpException
   class ApiServerException extends ApiHttpException

   class BadGateWayException extends ApiServerException
   class GatewayTimeoutException extends ApiServerException
   class InternalServerErrorException extends ApiServerException
   class ServiceUnavailableException extends ApiServerException

   class BadRequestException extends ApiClientException
   class ConcurrentModification extends ApiClientException
   class ForbiddenException extends ApiClientException
   class NotFoundException extends ApiClientException
   class UnauthorizedException extends ApiClientException
 }
@enduml

PlantUML version 1.2021.10(Mon Aug 30 13:43:48 UTC 2021)
(GPL source distribution)
Java Runtime: OpenJDK Runtime Environment
JVM: OpenJDK 64-Bit Server VM
Default Encoding: UTF-8
Language: en
Country: null
--></g></svg>