<?xml version="1.0" encoding="us-ascii" standalone="no"?><svg xmlns="http://www.w3.org/2000/svg" xmlns:xlink="http://www.w3.org/1999/xlink" contentStyleType="text/css" height="942px" preserveAspectRatio="none" style="width:2561px;height:942px;background:#FFFFFF;" version="1.1" viewBox="0 0 2561 942" width="2561px" zoomAndPan="magnify"><defs/><g><text fill="#000000" font-family="sans-serif" font-size="14" font-weight="bold" lengthAdjust="spacing" textLength="140" x="1203.5" y="23.5352">Exception hierarchy</text><!--cluster io--><g id="cluster_io"><path d="M8.5,43.4883 L23.5,43.4883 A3.75,3.75 0 0 1 26,45.9883 L33,65.9766 L2551.5,65.9766 A2.5,2.5 0 0 1 2554,68.4766 L2554,932.9883 A2.5,2.5 0 0 1 2551.5,935.4883 L8.5,935.4883 A2.5,2.5 0 0 1 6,932.9883 L6,45.9883 A2.5,2.5 0 0 1 8.5,43.4883 " fill="none" style="stroke:#000000;stroke-width:1.5;"/><line style="stroke:#000000;stroke-width:1.5;" x1="6" x2="33" y1="65.9766" y2="65.9766"/><text fill="#000000" font-family="sans-serif" font-size="14" font-weight="bold" lengthAdjust="spacing" textLength="14" x="10" y="59.0234">io</text></g><!--cluster vrap--><g id="cluster_vrap"><path d="M32.5,86.4883 L64.5,86.4883 A3.75,3.75 0 0 1 67,88.9883 L74,108.9766 L2527.5,108.9766 A2.5,2.5 0 0 1 2530,111.4766 L2530,908.9883 A2.5,2.5 0 0 1 2527.5,911.4883 L32.5,911.4883 A2.5,2.5 0 0 1 30,908.9883 L30,88.9883 A2.5,2.5 0 0 1 32.5,86.4883 " fill="none" style="stroke:#000000;stroke-width:1.5;"/><line style="stroke:#000000;stroke-width:1.5;" x1="30" x2="74" y1="108.9766" y2="108.9766"/><text fill="#000000" font-family="sans-serif" font-size="14" font-weight="bold" lengthAdjust="spacing" textLength="31" x="34" y="102.0234">vrap</text></g><!--cluster rmf--><g id="cluster_rmf"><path d="M56.5,129.4883 L83.5,129.4883 A3.75,3.75 0 0 1 86,131.9883 L93,151.9766 L2503.5,151.9766 A2.5,2.5 0 0 1 2506,154.4766 L2506,884.9883 A2.5,2.5 0 0 1 2503.5,887.4883 L56.5,887.4883 A2.5,2.5 0 0 1 54,884.9883 L54,131.9883 A2.5,2.5 0 0 1 56.5,129.4883 " fill="none" style="stroke:#000000;stroke-width:1.5;"/><line style="stroke:#000000;stroke-width:1.5;" x1="54" x2="93" y1="151.9766" y2="151.9766"/><text fill="#000000" font-family="sans-serif" font-size="14" font-weight="bold" lengthAdjust="spacing" textLength="26" x="58" y="145.0234">rmf</text></g><!--cluster base--><g id="cluster_base"><path d="M80.5,172.4883 L114.5,172.4883 A3.75,3.75 0 0 1 117,174.9883 L124,194.9766 L2479.5,194.9766 A2.5,2.5 0 0 1 2482,197.4766 L2482,860.9883 A2.5,2.5 0 0 1 2479.5,863.4883 L80.5,863.4883 A2.5,2.5 0 0 1 78,860.9883 L78,174.9883 A2.5,2.5 0 0 1 80.5,172.4883 " fill="none" style="stroke:#000000;stroke-width:1.5;"/><line style="stroke:#000000;stroke-width:1.5;" x1="78" x2="124" y1="194.9766" y2="194.9766"/><text fill="#000000" font-family="sans-serif" font-size="14" font-weight="bold" lengthAdjust="spacing" textLength="33" x="82" y="188.0234">base</text></g><!--cluster client--><g id="cluster_client"><path d="M104.5,215.4883 L145.5,215.4883 A3.75,3.75 0 0 1 148,217.9883 L155,237.9766 L2455.5,237.9766 A2.5,2.5 0 0 1 2458,240.4766 L2458,836.9883 A2.5,2.5 0 0 1 2455.5,839.4883 L104.5,839.4883 A2.5,2.5 0 0 1 102,836.9883 L102,217.9883 A2.5,2.5 0 0 1 104.5,215.4883 " fill="none" style="stroke:#000000;stroke-width:1.5;"/><line style="stroke:#000000;stroke-width:1.5;" x1="102" x2="155" y1="237.9766" y2="237.9766"/><text fill="#000000" font-family="sans-serif" font-size="14" font-weight="bold" lengthAdjust="spacing" textLength="40" x="106" y="231.0234">client</text></g><!--cluster utils--><g id="cluster_utils"><path d="M2226.5,397.4883 L2260.5,397.4883 A3.75,3.75 0 0 1 2263,399.9883 L2270,419.9766 L2431.5,419.9766 A2.5,2.5 0 0 1 2434,422.4766 L2434,560.9883 A2.5,2.5 0 0 1 2431.5,563.4883 L2226.5,563.4883 A2.5,2.5 0 0 1 2224,560.9883 L2224,399.9883 A2.5,2.5 0 0 1 2226.5,397.4883 " fill="none" style="stroke:#000000;stroke-width:1.5;"/><line style="stroke:#000000;stroke-width:1.5;" x1="2224" x2="2270" y1="419.9766" y2="419.9766"/><text fill="#000000" font-family="sans-serif" font-size="14" font-weight="bold" lengthAdjust="spacing" textLength="33" x="2228" y="413.0234">utils</text></g><!--cluster json--><g id="cluster_json"><path d="M2250.5,440.4883 L2282.5,440.4883 A3.75,3.75 0 0 1 2285,442.9883 L2292,462.9766 L2407.5,462.9766 A2.5,2.5 0 0 1 2410,465.4766 L2410,536.9883 A2.5,2.5 0 0 1 2407.5,539.4883 L2250.5,539.4883 A2.5,2.5 0 0 1 2248,536.9883 L2248,442.9883 A2.5,2.5 0 0 1 2250.5,440.4883 " fill="none" style="stroke:#000000;stroke-width:1.5;"/><line style="stroke:#000000;stroke-width:1.5;" x1="2248" x2="2292" y1="462.9766" y2="462.9766"/><text fill="#000000" font-family="sans-serif" font-size="14" font-weight="bold" lengthAdjust="spacing" textLength="31" x="2252" y="456.0234">json</text></g><!--cluster error--><g id="cluster_error"><path d="M128.5,258.4883 L164.5,258.4883 A3.75,3.75 0 0 1 167,260.9883 L174,280.9766 L2197.5,280.9766 A2.5,2.5 0 0 1 2200,283.4766 L2200,812.9883 A2.5,2.5 0 0 1 2197.5,815.4883 L128.5,815.4883 A2.5,2.5 0 0 1 126,812.9883 L126,260.9883 A2.5,2.5 0 0 1 128.5,258.4883 " fill="none" style="stroke:#000000;stroke-width:1.5;"/><line style="stroke:#000000;stroke-width:1.5;" x1="126" x2="174" y1="280.9766" y2="280.9766"/><text fill="#000000" font-family="sans-serif" font-size="14" font-weight="bold" lengthAdjust="spacing" textLength="35" x="130" y="274.0234">error</text></g><!--class JsonException--><g id="elem_JsonException"><rect codeLine="4" fill="#F1F1F1" height="48" id="JsonException" rx="2.5" ry="2.5" style="stroke:#181818;stroke-width:0.5;" width="129" x="2264.5" y="475.4883"/><ellipse cx="2279.5" cy="491.4883" fill="#ADD1B2" rx="11" ry="11" style="stroke:#181818;stroke-width:1.0;"/><path d="M2281.9731,497.6313 Q2281.3921,497.9302 2280.7529,498.0796 Q2280.1138,498.229 2279.4082,498.229 Q2276.9014,498.229 2275.5815,496.5771 Q2274.2617,494.9253 2274.2617,491.8042 Q2274.2617,488.6748 2275.5815,487.0229 Q2276.9014,485.3711 2279.4082,485.3711 Q2280.1138,485.3711 2280.7612,485.5205 Q2281.4087,485.6699 2281.9731,485.9688 L2281.9731,488.6914 Q2281.3423,488.1104 2280.7488,487.8406 Q2280.1553,487.5708 2279.5244,487.5708 Q2278.1797,487.5708 2277.4949,488.6375 Q2276.8101,489.7041 2276.8101,491.8042 Q2276.8101,493.896 2277.4949,494.9626 Q2278.1797,496.0293 2279.5244,496.0293 Q2280.1553,496.0293 2280.7488,495.7595 Q2281.3423,495.4897 2281.9731,494.9087 Z " fill="#000000"/><text fill="#000000" font-family="sans-serif" font-size="14" lengthAdjust="spacing" textLength="97" x="2293.5" y="496.7793">JsonException</text><line style="stroke:#181818;stroke-width:0.5;" x1="2265.5" x2="2392.5" y1="507.4883" y2="507.4883"/><line style="stroke:#181818;stroke-width:0.5;" x1="2265.5" x2="2392.5" y1="515.4883" y2="515.4883"/></g><!--class BaseException--><g id="elem_BaseException"><rect codeLine="7" fill="#F1F1F1" height="48" id="BaseException" rx="2.5" ry="2.5" style="stroke:#181818;stroke-width:0.5;" width="131" x="1694.5" y="313.4883"/><ellipse cx="1709.5" cy="329.4883" fill="#ADD1B2" rx="11" ry="11" style="stroke:#181818;stroke-width:1.0;"/><path d="M1711.9731,335.6313 Q1711.3921,335.9302 1710.7529,336.0796 Q1710.1138,336.229 1709.4082,336.229 Q1706.9014,336.229 1705.5815,334.5771 Q1704.2617,332.9253 1704.2617,329.8042 Q1704.2617,326.6748 1705.5815,325.0229 Q1706.9014,323.3711 1709.4082,323.3711 Q1710.1138,323.3711 1710.7612,323.5205 Q1711.4087,323.6699 1711.9731,323.9688 L1711.9731,326.6914 Q1711.3423,326.1104 1710.7488,325.8406 Q1710.1553,325.5708 1709.5244,325.5708 Q1708.1797,325.5708 1707.4949,326.6375 Q1706.8101,327.7041 1706.8101,329.8042 Q1706.8101,331.896 1707.4949,332.9626 Q1708.1797,334.0293 1709.5244,334.0293 Q1710.1553,334.0293 1710.7488,333.7595 Q1711.3423,333.4897 1711.9731,332.9087 Z " fill="#000000"/><text fill="#000000" font-family="sans-serif" font-size="14" lengthAdjust="spacing" textLength="99" x="1723.5" y="334.7793">BaseException</text><line style="stroke:#181818;stroke-width:0.5;" x1="1695.5" x2="1824.5" y1="345.4883" y2="345.4883"/><line style="stroke:#181818;stroke-width:0.5;" x1="1695.5" x2="1824.5" y1="353.4883" y2="353.4883"/></g><polygon fill="none" points="1760.5333,361.4883,1767.9759,381.3278,1753.9794,381.6389" style="stroke:#181818;stroke-width:1.0;"/><line style="stroke:#181818;stroke-width:1.0;" x1="1760.9777" x2="1761" y1="381.4833" y2="382.4883"/><!--class JsonException--><g id="elem_JsonException"><rect codeLine="8" fill="#F1F1F1" height="48" id="JsonException" rx="2.5" ry="2.5" style="stroke:#181818;stroke-width:0.5;" width="129" x="1340.5" y="475.4883"/><ellipse cx="1355.5" cy="491.4883" fill="#ADD1B2" rx="11" ry="11" style="stroke:#181818;stroke-width:1.0;"/><path d="M1357.9731,497.6313 Q1357.3921,497.9302 1356.7529,498.0796 Q1356.1138,498.229 1355.4082,498.229 Q1352.9014,498.229 1351.5815,496.5771 Q1350.2617,494.9253 1350.2617,491.8042 Q1350.2617,488.6748 1351.5815,487.0229 Q1352.9014,485.3711 1355.4082,485.3711 Q1356.1138,485.3711 1356.7612,485.5205 Q1357.4087,485.6699 1357.9731,485.9688 L1357.9731,488.6914 Q1357.3423,488.1104 1356.7488,487.8406 Q1356.1553,487.5708 1355.5244,487.5708 Q1354.1797,487.5708 1353.4949,488.6375 Q1352.8101,489.7041 1352.8101,491.8042 Q1352.8101,493.896 1353.4949,494.9626 Q1354.1797,496.0293 1355.5244,496.0293 Q1356.1553,496.0293 1356.7488,495.7595 Q1357.3423,495.4897 1357.9731,494.9087 Z " fill="#000000"/><text fill="#000000" font-family="sans-serif" font-size="14" lengthAdjust="spacing" textLength="97" x="1369.5" y="496.7793">JsonException</text><line style="stroke:#181818;stroke-width:0.5;" x1="1341.5" x2="1468.5" y1="507.4883" y2="507.4883"/><line style="stroke:#181818;stroke-width:0.5;" x1="1341.5" x2="1468.5" y1="515.4883" y2="515.4883"/></g><!--class FileException--><g id="elem_FileException"><rect codeLine="9" fill="#F1F1F1" height="48" id="FileException" rx="2.5" ry="2.5" style="stroke:#181818;stroke-width:0.5;" width="124" x="1505" y="475.4883"/><ellipse cx="1520" cy="491.4883" fill="#ADD1B2" rx="11" ry="11" style="stroke:#181818;stroke-width:1.0;"/><path d="M1522.4731,497.6313 Q1521.8921,497.9302 1521.2529,498.0796 Q1520.6138,498.229 1519.9082,498.229 Q1517.4014,498.229 1516.0815,496.5771 Q1514.7617,494.9253 1514.7617,491.8042 Q1514.7617,488.6748 1516.0815,487.0229 Q1517.4014,485.3711 1519.9082,485.3711 Q1520.6138,485.3711 1521.2612,485.5205 Q1521.9087,485.6699 1522.4731,485.9688 L1522.4731,488.6914 Q1521.8423,488.1104 1521.2488,487.8406 Q1520.6553,487.5708 1520.0244,487.5708 Q1518.6797,487.5708 1517.9949,488.6375 Q1517.3101,489.7041 1517.3101,491.8042 Q1517.3101,493.896 1517.9949,494.9626 Q1518.6797,496.0293 1520.0244,496.0293 Q1520.6553,496.0293 1521.2488,495.7595 Q1521.8423,495.4897 1522.4731,494.9087 Z " fill="#000000"/><text fill="#000000" font-family="sans-serif" font-size="14" lengthAdjust="spacing" textLength="92" x="1534" y="496.7793">FileException</text><line style="stroke:#181818;stroke-width:0.5;" x1="1506" x2="1628" y1="507.4883" y2="507.4883"/><line style="stroke:#181818;stroke-width:0.5;" x1="1506" x2="1628" y1="515.4883" y2="515.4883"/></g><!--class ApiHttpException--><g id="elem_ApiHttpException"><rect codeLine="10" fill="#F1F1F1" height="48" id="ApiHttpException" rx="2.5" ry="2.5" style="stroke:#181818;stroke-width:0.5;" width="152" x="1684" y="475.4883"/><ellipse cx="1699" cy="491.4883" fill="#ADD1B2" rx="11" ry="11" style="stroke:#181818;stroke-width:1.0;"/><path d="M1701.4731,497.6313 Q1700.8921,497.9302 1700.2529,498.0796 Q1699.6138,498.229 1698.9082,498.229 Q1696.4014,498.229 1695.0815,496.5771 Q1693.7617,494.9253 1693.7617,491.8042 Q1693.7617,488.6748 1695.0815,487.0229 Q1696.4014,485.3711 1698.9082,485.3711 Q1699.6138,485.3711 1700.2612,485.5205 Q1700.9087,485.6699 1701.4731,485.9688 L1701.4731,488.6914 Q1700.8423,488.1104 1700.2488,487.8406 Q1699.6553,487.5708 1699.0244,487.5708 Q1697.6797,487.5708 1696.9949,488.6375 Q1696.3101,489.7041 1696.3101,491.8042 Q1696.3101,493.896 1696.9949,494.9626 Q1697.6797,496.0293 1699.0244,496.0293 Q1699.6553,496.0293 1700.2488,495.7595 Q1700.8423,495.4897 1701.4731,494.9087 Z " fill="#000000"/><text fill="#000000" font-family="sans-serif" font-size="14" lengthAdjust="spacing" textLength="120" x="1713" y="496.7793">ApiHttpException</text><line style="stroke:#181818;stroke-width:0.5;" x1="1685" x2="1835" y1="507.4883" y2="507.4883"/><line style="stroke:#181818;stroke-width:0.5;" x1="1685" x2="1835" y1="515.4883" y2="515.4883"/></g><polygon fill="none" points="1747.2,523.4883,1743.9647,544.4295,1731.6118,537.8412" style="stroke:#181818;stroke-width:1.0;"/><line style="stroke:#181818;stroke-width:1.0;" x1="1737.7882" x2="1736" y1="541.1353" y2="544.4883"/><line style="stroke:#181818;stroke-width:1.0;" x1="1760.201" x2="1760.37" y1="475.4883" y2="455.2983"/><!--class RmfTimeoutException--><g id="elem_RmfTimeoutException"><rect codeLine="11" fill="#F1F1F1" height="48" id="RmfTimeoutException" rx="2.5" ry="2.5" style="stroke:#181818;stroke-width:0.5;" width="184" x="1891" y="475.4883"/><ellipse cx="1906" cy="491.4883" fill="#ADD1B2" rx="11" ry="11" style="stroke:#181818;stroke-width:1.0;"/><path d="M1908.4731,497.6313 Q1907.8921,497.9302 1907.2529,498.0796 Q1906.6138,498.229 1905.9082,498.229 Q1903.4014,498.229 1902.0815,496.5771 Q1900.7617,494.9253 1900.7617,491.8042 Q1900.7617,488.6748 1902.0815,487.0229 Q1903.4014,485.3711 1905.9082,485.3711 Q1906.6138,485.3711 1907.2612,485.5205 Q1907.9087,485.6699 1908.4731,485.9688 L1908.4731,488.6914 Q1907.8423,488.1104 1907.2488,487.8406 Q1906.6553,487.5708 1906.0244,487.5708 Q1904.6797,487.5708 1903.9949,488.6375 Q1903.3101,489.7041 1903.3101,491.8042 Q1903.3101,493.896 1903.9949,494.9626 Q1904.6797,496.0293 1906.0244,496.0293 Q1906.6553,496.0293 1907.2488,495.7595 Q1907.8423,495.4897 1908.4731,494.9087 Z " fill="#000000"/><text fill="#000000" font-family="sans-serif" font-size="14" lengthAdjust="spacing" textLength="152" x="1920" y="496.7793">RmfTimeoutException</text><line style="stroke:#181818;stroke-width:0.5;" x1="1892" x2="2074" y1="507.4883" y2="507.4883"/><line style="stroke:#181818;stroke-width:0.5;" x1="1892" x2="2074" y1="515.4883" y2="515.4883"/></g><!--class ApiClientException--><g id="elem_ApiClientException"><rect codeLine="13" fill="#F1F1F1" height="48" id="ApiClientException" rx="2.5" ry="2.5" style="stroke:#181818;stroke-width:0.5;" width="163" x="692.5" y="623.4883"/><ellipse cx="707.5" cy="639.4883" fill="#ADD1B2" rx="11" ry="11" style="stroke:#181818;stroke-width:1.0;"/><path d="M709.9731,645.6313 Q709.3921,645.9302 708.7529,646.0796 Q708.1138,646.229 707.4082,646.229 Q704.9014,646.229 703.5815,644.5771 Q702.2617,642.9253 702.2617,639.8042 Q702.2617,636.6748 703.5815,635.0229 Q704.9014,633.3711 707.4082,633.3711 Q708.1138,633.3711 708.7612,633.5205 Q709.4087,633.6699 709.9731,633.9688 L709.9731,636.6914 Q709.3423,636.1104 708.7488,635.8406 Q708.1553,635.5708 707.5244,635.5708 Q706.1797,635.5708 705.4949,636.6375 Q704.8101,637.7041 704.8101,639.8042 Q704.8101,641.896 705.4949,642.9626 Q706.1797,644.0293 707.5244,644.0293 Q708.1553,644.0293 708.7488,643.7595 Q709.3423,643.4897 709.9731,642.9087 Z " fill="#000000"/><text fill="#000000" font-family="sans-serif" font-size="14" lengthAdjust="spacing" textLength="131" x="721.5" y="644.7793">ApiClientException</text><line style="stroke:#181818;stroke-width:0.5;" x1="693.5" x2="854.5" y1="655.4883" y2="655.4883"/><line style="stroke:#181818;stroke-width:0.5;" x1="693.5" x2="854.5" y1="663.4883" y2="663.4883"/></g><polygon fill="none" points="764.9333,671.4883,764.4136,692.6715,751.317,687.7239" style="stroke:#181818;stroke-width:1.0;"/><line style="stroke:#181818;stroke-width:1.0;" x1="757.8653" x2="757" y1="690.1977" y2="692.4883"/><line style="stroke:#181818;stroke-width:1.0;" x1="855.5" x2="875.96" y1="645.0983" y2="644.4983"/><!--class ApiServerException--><g id="elem_ApiServerException"><rect codeLine="14" fill="#F1F1F1" height="48" id="ApiServerException" rx="2.5" ry="2.5" style="stroke:#181818;stroke-width:0.5;" width="166" x="1575" y="623.4883"/><ellipse cx="1590" cy="639.4883" fill="#ADD1B2" rx="11" ry="11" style="stroke:#181818;stroke-width:1.0;"/><path d="M1592.4731,645.6313 Q1591.8921,645.9302 1591.2529,646.0796 Q1590.6138,646.229 1589.9082,646.229 Q1587.4014,646.229 1586.0815,644.5771 Q1584.7617,642.9253 1584.7617,639.8042 Q1584.7617,636.6748 1586.0815,635.0229 Q1587.4014,633.3711 1589.9082,633.3711 Q1590.6138,633.3711 1591.2612,633.5205 Q1591.9087,633.6699 1592.4731,633.9688 L1592.4731,636.6914 Q1591.8423,636.1104 1591.2488,635.8406 Q1590.6553,635.5708 1590.0244,635.5708 Q1588.6797,635.5708 1587.9949,636.6375 Q1587.3101,637.7041 1587.3101,639.8042 Q1587.3101,641.896 1587.9949,642.9626 Q1588.6797,644.0293 1590.0244,644.0293 Q1590.6553,644.0293 1591.2488,643.7595 Q1591.8423,643.4897 1592.4731,642.9087 Z " fill="#000000"/><text fill="#000000" font-family="sans-serif" font-size="14" lengthAdjust="spacing" textLength="134" x="1604" y="644.7793">ApiServerException</text><line style="stroke:#181818;stroke-width:0.5;" x1="1576" x2="1740" y1="655.4883" y2="655.4883"/><line style="stroke:#181818;stroke-width:0.5;" x1="1576" x2="1740" y1="663.4883" y2="663.4883"/></g><polygon fill="none" points="1659.6,671.4883,1667.9149,690.9784,1653.9459,691.9096" style="stroke:#181818;stroke-width:1.0;"/><line style="stroke:#181818;stroke-width:1.0;" x1="1660.9304" x2="1661" y1="691.444" y2="692.4883"/><line style="stroke:#181818;stroke-width:1.0;" x1="1675.9376" x2="1691.08" y1="623.4883" y2="603.2283"/><!--class AuthException--><g id="elem_AuthException"><rect codeLine="15" fill="#F1F1F1" height="48" id="AuthException" rx="2.5" ry="2.5" style="stroke:#181818;stroke-width:0.5;" width="133" x="1795.5" y="623.4883"/><ellipse cx="1810.5" cy="639.4883" fill="#ADD1B2" rx="11" ry="11" style="stroke:#181818;stroke-width:1.0;"/><path d="M1812.9731,645.6313 Q1812.3921,645.9302 1811.7529,646.0796 Q1811.1138,646.229 1810.4082,646.229 Q1807.9014,646.229 1806.5815,644.5771 Q1805.2617,642.9253 1805.2617,639.8042 Q1805.2617,636.6748 1806.5815,635.0229 Q1807.9014,633.3711 1810.4082,633.3711 Q1811.1138,633.3711 1811.7612,633.5205 Q1812.4087,633.6699 1812.9731,633.9688 L1812.9731,636.6914 Q1812.3423,636.1104 1811.7488,635.8406 Q1811.1553,635.5708 1810.5244,635.5708 Q1809.1797,635.5708 1808.4949,636.6375 Q1807.8101,637.7041 1807.8101,639.8042 Q1807.8101,641.896 1808.4949,642.9626 Q1809.1797,644.0293 1810.5244,644.0293 Q1811.1553,644.0293 1811.7488,643.7595 Q1812.3423,643.4897 1812.9731,642.9087 Z " fill="#000000"/><text fill="#000000" font-family="sans-serif" font-size="14" lengthAdjust="spacing" textLength="101" x="1824.5" y="644.7793">AuthException</text><line style="stroke:#181818;stroke-width:0.5;" x1="1796.5" x2="1927.5" y1="655.4883" y2="655.4883"/><line style="stroke:#181818;stroke-width:0.5;" x1="1796.5" x2="1927.5" y1="663.4883" y2="663.4883"/></g><!--class BadGateWayException--><g id="elem_BadGateWayException"><rect codeLine="17" fill="#F1F1F1" height="48" id="BadGateWayException" rx="2.5" ry="2.5" style="stroke:#181818;stroke-width:0.5;" width="183" x="1223.5" y="751.4883"/><ellipse cx="1238.5" cy="767.4883" fill="#ADD1B2" rx="11" ry="11" style="stroke:#181818;stroke-width:1.0;"/><path d="M1240.9731,773.6313 Q1240.3921,773.9302 1239.7529,774.0796 Q1239.1138,774.229 1238.4082,774.229 Q1235.9014,774.229 1234.5815,772.5771 Q1233.2617,770.9253 1233.2617,767.8042 Q1233.2617,764.6748 1234.5815,763.0229 Q1235.9014,761.3711 1238.4082,761.3711 Q1239.1138,761.3711 1239.7612,761.5205 Q1240.4087,761.6699 1240.9731,761.9688 L1240.9731,764.6914 Q1240.3423,764.1104 1239.7488,763.8406 Q1239.1553,763.5708 1238.5244,763.5708 Q1237.1797,763.5708 1236.4949,764.6375 Q1235.8101,765.7041 1235.8101,767.8042 Q1235.8101,769.896 1236.4949,770.9626 Q1237.1797,772.0293 1238.5244,772.0293 Q1239.1553,772.0293 1239.7488,771.7595 Q1240.3423,771.4897 1240.9731,770.9087 Z " fill="#000000"/><text fill="#000000" font-family="sans-serif" font-size="14" lengthAdjust="spacing" textLength="151" x="1252.5" y="772.7793">BadGateWayException</text><line style="stroke:#181818;stroke-width:0.5;" x1="1224.5" x2="1405.5" y1="783.4883" y2="783.4883"/><line style="stroke:#181818;stroke-width:0.5;" x1="1224.5" x2="1405.5" y1="791.4883" y2="791.4883"/></g><!--class GatewayTimeoutException--><g id="elem_GatewayTimeoutException"><rect codeLine="18" fill="#F1F1F1" height="48" id="GatewayTimeoutException" rx="2.5" ry="2.5" style="stroke:#181818;stroke-width:0.5;" width="214" x="1442" y="751.4883"/><ellipse cx="1457" cy="767.4883" fill="#ADD1B2" rx="11" ry="11" style="stroke:#181818;stroke-width:1.0;"/><path d="M1459.4731,773.6313 Q1458.8921,773.9302 1458.2529,774.0796 Q1457.6138,774.229 1456.9082,774.229 Q1454.4014,774.229 1453.0815,772.5771 Q1451.7617,770.9253 1451.7617,767.8042 Q1451.7617,764.6748 1453.0815,763.0229 Q1454.4014,761.3711 1456.9082,761.3711 Q1457.6138,761.3711 1458.2612,761.5205 Q1458.9087,761.6699 1459.4731,761.9688 L1459.4731,764.6914 Q1458.8423,764.1104 1458.2488,763.8406 Q1457.6553,763.5708 1457.0244,763.5708 Q1455.6797,763.5708 1454.9949,764.6375 Q1454.3101,765.7041 1454.3101,767.8042 Q1454.3101,769.896 1454.9949,770.9626 Q1455.6797,772.0293 1457.0244,772.0293 Q1457.6553,772.0293 1458.2488,771.7595 Q1458.8423,771.4897 1459.4731,770.9087 Z " fill="#000000"/><text fill="#000000" font-family="sans-serif" font-size="14" lengthAdjust="spacing" textLength="182" x="1471" y="772.7793">GatewayTimeoutException</text><line style="stroke:#181818;stroke-width:0.5;" x1="1443" x2="1655" y1="783.4883" y2="783.4883"/><line style="stroke:#181818;stroke-width:0.5;" x1="1443" x2="1655" y1="791.4883" y2="791.4883"/></g><!--class InternalServerErrorException--><g id="elem_InternalServerErrorException"><rect codeLine="19" fill="#F1F1F1" height="48" id="InternalServerErrorException" rx="2.5" ry="2.5" style="stroke:#181818;stroke-width:0.5;" width="231" x="1690.5" y="751.4883"/><ellipse cx="1705.5" cy="767.4883" fill="#ADD1B2" rx="11" ry="11" style="stroke:#181818;stroke-width:1.0;"/><path d="M1707.9731,773.6313 Q1707.3921,773.9302 1706.7529,774.0796 Q1706.1138,774.229 1705.4082,774.229 Q1702.9014,774.229 1701.5815,772.5771 Q1700.2617,770.9253 1700.2617,767.8042 Q1700.2617,764.6748 1701.5815,763.0229 Q1702.9014,761.3711 1705.4082,761.3711 Q1706.1138,761.3711 1706.7612,761.5205 Q1707.4087,761.6699 1707.9731,761.9688 L1707.9731,764.6914 Q1707.3423,764.1104 1706.7488,763.8406 Q1706.1553,763.5708 1705.5244,763.5708 Q1704.1797,763.5708 1703.4949,764.6375 Q1702.8101,765.7041 1702.8101,767.8042 Q1702.8101,769.896 1703.4949,770.9626 Q1704.1797,772.0293 1705.5244,772.0293 Q1706.1553,772.0293 1706.7488,771.7595 Q1707.3423,771.4897 1707.9731,770.9087 Z " fill="#000000"/><text fill="#000000" font-family="sans-serif" font-size="14" lengthAdjust="spacing" textLength="199" x="1719.5" y="772.7793">InternalServerErrorException</text><line style="stroke:#181818;stroke-width:0.5;" x1="1691.5" x2="1920.5" y1="783.4883" y2="783.4883"/><line style="stroke:#181818;stroke-width:0.5;" x1="1691.5" x2="1920.5" y1="791.4883" y2="791.4883"/></g><!--class ServiceUnavailableException--><g id="elem_ServiceUnavailableException"><rect codeLine="20" fill="#F1F1F1" height="48" id="ServiceUnavailableException" rx="2.5" ry="2.5" style="stroke:#181818;stroke-width:0.5;" width="227" x="1956.5" y="751.4883"/><ellipse cx="1971.5" cy="767.4883" fill="#ADD1B2" rx="11" ry="11" style="stroke:#181818;stroke-width:1.0;"/><path d="M1973.9731,773.6313 Q1973.3921,773.9302 1972.7529,774.0796 Q1972.1138,774.229 1971.4082,774.229 Q1968.9014,774.229 1967.5815,772.5771 Q1966.2617,770.9253 1966.2617,767.8042 Q1966.2617,764.6748 1967.5815,763.0229 Q1968.9014,761.3711 1971.4082,761.3711 Q1972.1138,761.3711 1972.7612,761.5205 Q1973.4087,761.6699 1973.9731,761.9688 L1973.9731,764.6914 Q1973.3423,764.1104 1972.7488,763.8406 Q1972.1553,763.5708 1971.5244,763.5708 Q1970.1797,763.5708 1969.4949,764.6375 Q1968.8101,765.7041 1968.8101,767.8042 Q1968.8101,769.896 1969.4949,770.9626 Q1970.1797,772.0293 1971.5244,772.0293 Q1972.1553,772.0293 1972.7488,771.7595 Q1973.3423,771.4897 1973.9731,770.9087 Z " fill="#000000"/><text fill="#000000" font-family="sans-serif" font-size="14" lengthAdjust="spacing" textLength="195" x="1985.5" y="772.7793">ServiceUnavailableException</text><line style="stroke:#181818;stroke-width:0.5;" x1="1957.5" x2="2182.5" y1="783.4883" y2="783.4883"/><line style="stroke:#181818;stroke-width:0.5;" x1="1957.5" x2="2182.5" y1="791.4883" y2="791.4883"/></g><!--class BadRequestException--><g id="elem_BadRequestException"><rect codeLine="22" fill="#F1F1F1" height="48" id="BadRequestException" rx="2.5" ry="2.5" style="stroke:#181818;stroke-width:0.5;" width="180" x="142" y="751.4883"/><ellipse cx="157" cy="767.4883" fill="#ADD1B2" rx="11" ry="11" style="stroke:#181818;stroke-width:1.0;"/><path d="M159.4731,773.6313 Q158.8921,773.9302 158.2529,774.0796 Q157.6138,774.229 156.9082,774.229 Q154.4014,774.229 153.0815,772.5771 Q151.7617,770.9253 151.7617,767.8042 Q151.7617,764.6748 153.0815,763.0229 Q154.4014,761.3711 156.9082,761.3711 Q157.6138,761.3711 158.2612,761.5205 Q158.9087,761.6699 159.4731,761.9688 L159.4731,764.6914 Q158.8423,764.1104 158.2488,763.8406 Q157.6553,763.5708 157.0244,763.5708 Q155.6797,763.5708 154.9949,764.6375 Q154.3101,765.7041 154.3101,767.8042 Q154.3101,769.896 154.9949,770.9626 Q155.6797,772.0293 157.0244,772.0293 Q157.6553,772.0293 158.2488,771.7595 Q158.8423,771.4897 159.4731,770.9087 Z " fill="#000000"/><text fill="#000000" font-family="sans-serif" font-size="14" lengthAdjust="spacing" textLength="148" x="171" y="772.7793">BadRequestException</text><line style="stroke:#181818;stroke-width:0.5;" x1="143" x2="321" y1="783.4883" y2="783.4883"/><line style="stroke:#181818;stroke-width:0.5;" x1="143" x2="321" y1="791.4883" y2="791.4883"/></g><!--class ConcurrentModification--><g id="elem_ConcurrentModification"><rect codeLine="23" fill="#F1F1F1" height="48" id="ConcurrentModification" rx="2.5" ry="2.5" style="stroke:#181818;stroke-width:0.5;" width="195" x="356.5" y="751.4883"/><ellipse cx="371.5" cy="767.4883" fill="#ADD1B2" rx="11" ry="11" style="stroke:#181818;stroke-width:1.0;"/><path d="M373.9731,773.6313 Q373.3921,773.9302 372.7529,774.0796 Q372.1138,774.229 371.4082,774.229 Q368.9014,774.229 367.5815,772.5771 Q366.2617,770.9253 366.2617,767.8042 Q366.2617,764.6748 367.5815,763.0229 Q368.9014,761.3711 371.4082,761.3711 Q372.1138,761.3711 372.7612,761.5205 Q373.4087,761.6699 373.9731,761.9688 L373.9731,764.6914 Q373.3423,764.1104 372.7488,763.8406 Q372.1553,763.5708 371.5244,763.5708 Q370.1797,763.5708 369.4949,764.6375 Q368.8101,765.7041 368.8101,767.8042 Q368.8101,769.896 369.4949,770.9626 Q370.1797,772.0293 371.5244,772.0293 Q372.1553,772.0293 372.7488,771.7595 Q373.3423,771.4897 373.9731,770.9087 Z " fill="#000000"/><text fill="#000000" font-family="sans-serif" font-size="14" lengthAdjust="spacing" textLength="163" x="385.5" y="772.7793">ConcurrentModification</text><line style="stroke:#181818;stroke-width:0.5;" x1="357.5" x2="550.5" y1="783.4883" y2="783.4883"/><line style="stroke:#181818;stroke-width:0.5;" x1="357.5" x2="550.5" y1="791.4883" y2="791.4883"/></g><!--class ForbiddenException--><g id="elem_ForbiddenException"><rect codeLine="24" fill="#F1F1F1" height="48" id="ForbiddenException" rx="2.5" ry="2.5" style="stroke:#181818;stroke-width:0.5;" width="171" x="586.5" y="751.4883"/><ellipse cx="601.5" cy="767.4883" fill="#ADD1B2" rx="11" ry="11" style="stroke:#181818;stroke-width:1.0;"/><path d="M603.9731,773.6313 Q603.3921,773.9302 602.7529,774.0796 Q602.1138,774.229 601.4082,774.229 Q598.9014,774.229 597.5815,772.5771 Q596.2617,770.9253 596.2617,767.8042 Q596.2617,764.6748 597.5815,763.0229 Q598.9014,761.3711 601.4082,761.3711 Q602.1138,761.3711 602.7612,761.5205 Q603.4087,761.6699 603.9731,761.9688 L603.9731,764.6914 Q603.3423,764.1104 602.7488,763.8406 Q602.1553,763.5708 601.5244,763.5708 Q600.1797,763.5708 599.4949,764.6375 Q598.8101,765.7041 598.8101,767.8042 Q598.8101,769.896 599.4949,770.9626 Q600.1797,772.0293 601.5244,772.0293 Q602.1553,772.0293 602.7488,771.7595 Q603.3423,771.4897 603.9731,770.9087 Z " fill="#000000"/><text fill="#000000" font-family="sans-serif" font-size="14" lengthAdjust="spacing" textLength="139" x="615.5" y="772.7793">ForbiddenException</text><line style="stroke:#181818;stroke-width:0.5;" x1="587.5" x2="756.5" y1="783.4883" y2="783.4883"/><line style="stroke:#181818;stroke-width:0.5;" x1="587.5" x2="756.5" y1="791.4883" y2="791.4883"/></g><!--class NotFoundException--><g id="elem_NotFoundException"><rect codeLine="25" fill="#F1F1F1" height="48" id="NotFoundException" rx="2.5" ry="2.5" style="stroke:#181818;stroke-width:0.5;" width="168" x="792" y="751.4883"/><ellipse cx="807" cy="767.4883" fill="#ADD1B2" rx="11" ry="11" style="stroke:#181818;stroke-width:1.0;"/><path d="M809.4731,773.6313 Q808.8921,773.9302 808.2529,774.0796 Q807.6138,774.229 806.9082,774.229 Q804.4014,774.229 803.0815,772.5771 Q801.7617,770.9253 801.7617,767.8042 Q801.7617,764.6748 803.0815,763.0229 Q804.4014,761.3711 806.9082,761.3711 Q807.6138,761.3711 808.2612,761.5205 Q808.9087,761.6699 809.4731,761.9688 L809.4731,764.6914 Q808.8423,764.1104 808.2488,763.8406 Q807.6553,763.5708 807.0244,763.5708 Q805.6797,763.5708 804.9949,764.6375 Q804.3101,765.7041 804.3101,767.8042 Q804.3101,769.896 804.9949,770.9626 Q805.6797,772.0293 807.0244,772.0293 Q807.6553,772.0293 808.2488,771.7595 Q808.8423,771.4897 809.4731,770.9087 Z " fill="#000000"/><text fill="#000000" font-family="sans-serif" font-size="14" lengthAdjust="spacing" textLength="136" x="821" y="772.7793">NotFoundException</text><line style="stroke:#181818;stroke-width:0.5;" x1="793" x2="959" y1="783.4883" y2="783.4883"/><line style="stroke:#181818;stroke-width:0.5;" x1="793" x2="959" y1="791.4883" y2="791.4883"/></g><!--class UnauthorizedException--><g id="elem_UnauthorizedException"><rect codeLine="26" fill="#F1F1F1" height="48" id="UnauthorizedException" rx="2.5" ry="2.5" style="stroke:#181818;stroke-width:0.5;" width="194" x="995" y="751.4883"/><ellipse cx="1010" cy="767.4883" fill="#ADD1B2" rx="11" ry="11" style="stroke:#181818;stroke-width:1.0;"/><path d="M1012.4731,773.6313 Q1011.8921,773.9302 1011.2529,774.0796 Q1010.6138,774.229 1009.9082,774.229 Q1007.4014,774.229 1006.0815,772.5771 Q1004.7617,770.9253 1004.7617,767.8042 Q1004.7617,764.6748 1006.0815,763.0229 Q1007.4014,761.3711 1009.9082,761.3711 Q1010.6138,761.3711 1011.2612,761.5205 Q1011.9087,761.6699 1012.4731,761.9688 L1012.4731,764.6914 Q1011.8423,764.1104 1011.2488,763.8406 Q1010.6553,763.5708 1010.0244,763.5708 Q1008.6797,763.5708 1007.9949,764.6375 Q1007.3101,765.7041 1007.3101,767.8042 Q1007.3101,769.896 1007.9949,770.9626 Q1008.6797,772.0293 1010.0244,772.0293 Q1010.6553,772.0293 1011.2488,771.7595 Q1011.8423,771.4897 1012.4731,770.9087 Z " fill="#000000"/><text fill="#000000" font-family="sans-serif" font-size="14" lengthAdjust="spacing" textLength="162" x="1024" y="772.7793">UnauthorizedException</text><line style="stroke:#181818;stroke-width:0.5;" x1="996" x2="1188" y1="783.4883" y2="783.4883"/><line style="stroke:#181818;stroke-width:0.5;" x1="996" x2="1188" y1="791.4883" y2="791.4883"/></g><!--reverse link BaseException to JsonException--><g id="link_BaseException_JsonException"><path d="M1761,382.4883 C1761,382.4883 2177.16,380.9283 2200,389.4883 C2246.4,406.8883 2287.75,448.8183 2310.51,475.3083 " fill="none" id="BaseException-backto-JsonException" style="stroke:#181818;stroke-width:1.0;"/></g><!--reverse link BaseException to JsonException--><g id="link_BaseException_JsonException"><path d="M1761,382.4883 C1761,382.4883 1501.51,382.5783 1488,389.4883 C1452.42,407.6883 1427.8,448.9383 1415.07,475.1583 " fill="none" id="BaseException-backto-JsonException-1" style="stroke:#181818;stroke-width:1.0;"/></g><!--reverse link BaseException to FileException--><g id="link_BaseException_FileException"><path d="M1761,382.4883 C1761,382.4883 1657.22,383.3283 1646,389.4883 C1611.58,408.3883 1588.32,449.4283 1576.39,475.4083 " fill="none" id="BaseException-backto-FileException" style="stroke:#181818;stroke-width:1.0;"/></g><!--reverse link BaseException to ApiHttpException--><g id="link_BaseException_ApiHttpException"><path d="M1761,382.4883 C1761,382.4883 1760.66,422.3183 1760.37,455.2983 " fill="none" id="BaseException-backto-ApiHttpException" style="stroke:#181818;stroke-width:1.0;"/></g><!--reverse link BaseException to RmfTimeoutException--><g id="link_BaseException_RmfTimeoutException"><path d="M1761,382.4883 C1761,382.4883 1851.06,379.1483 1874,389.4883 C1914.99,407.9683 1949.12,449.1383 1967.74,475.2583 " fill="none" id="BaseException-backto-RmfTimeoutException" style="stroke:#181818;stroke-width:1.0;"/></g><!--reverse link ApiHttpException to ApiClientException--><g id="link_ApiHttpException_ApiClientException"><path d="M1736,544.4883 C1736,544.4883 1687.02,563.6583 1646,571.4883 C1370.82,624.0183 1039.7,639.7883 875.96,644.4983 " fill="none" id="ApiHttpException-backto-ApiClientException" style="stroke:#181818;stroke-width:1.0;"/></g><!--reverse link ApiHttpException to ApiServerException--><g id="link_ApiHttpException_ApiServerException"><path d="M1736,544.4883 C1736,544.4883 1712.34,575.4283 1691.08,603.2283 " fill="none" id="ApiHttpException-backto-ApiServerException" style="stroke:#181818;stroke-width:1.0;"/></g><!--reverse link ApiHttpException to AuthException--><g id="link_ApiHttpException_AuthException"><path d="M1736,544.4883 C1736,544.4883 1795.89,592.9783 1833.09,623.0883 " fill="none" id="ApiHttpException-backto-AuthException" style="stroke:#181818;stroke-width:1.0;"/></g><!--reverse link ApiServerException to BadGateWayException--><g id="link_ApiServerException_BadGateWayException"><path d="M1661,692.4883 C1661,692.4883 1509.32,728.4383 1406.81,752.7283 " fill="none" id="ApiServerException-backto-BadGateWayException" style="stroke:#181818;stroke-width:1.0;"/></g><!--reverse link ApiServerException to GatewayTimeoutException--><g id="link_ApiServerException_GatewayTimeoutException"><path d="M1661,692.4883 C1661,692.4883 1614.19,726.7583 1581.09,750.9883 " fill="none" id="ApiServerException-backto-GatewayTimeoutException" style="stroke:#181818;stroke-width:1.0;"/></g><!--reverse link ApiServerException to InternalServerErrorException--><g id="link_ApiServerException_InternalServerErrorException"><path d="M1661,692.4883 C1661,692.4883 1721.6,726.7583 1764.45,750.9883 " fill="none" id="ApiServerException-backto-InternalServerErrorException" style="stroke:#181818;stroke-width:1.0;"/></g><!--reverse link ApiServerException to ServiceUnavailableException--><g id="link_ApiServerException_ServiceUnavailableException"><path d="M1661,692.4883 C1661,692.4883 1835.05,727.3883 1956.07,751.6483 " fill="none" id="ApiServerException-backto-ServiceUnavailableException" style="stroke:#181818;stroke-width:1.0;"/></g><!--reverse link ApiClientException to BadRequestException--><g id="link_ApiClientException_BadRequestException"><path d="M757,692.4883 C757,692.4883 523.72,718.6383 339,751.4883 C333.57,752.4483 328.01,753.4983 322.4,754.5783 " fill="none" id="ApiClientException-backto-BadRequestException" style="stroke:#181818;stroke-width:1.0;"/></g><!--reverse link ApiClientException to ConcurrentModification--><g id="link_ApiClientException_ConcurrentModification"><path d="M757,692.4883 C757,692.4883 630.36,726.7583 540.83,750.9883 " fill="none" id="ApiClientException-backto-ConcurrentModification" style="stroke:#181818;stroke-width:1.0;"/></g><!--reverse link ApiClientException to ForbiddenException--><g id="link_ApiClientException_ForbiddenException"><path d="M757,692.4883 C757,692.4883 721.26,726.9683 696.13,751.2083 " fill="none" id="ApiClientException-backto-ForbiddenException" style="stroke:#181818;stroke-width:1.0;"/></g><!--reverse link ApiClientException to NotFoundException--><g id="link_ApiClientException_NotFoundException"><path d="M757,692.4883 C757,692.4883 806.74,726.7583 841.9,750.9883 " fill="none" id="ApiClientException-backto-NotFoundException" style="stroke:#181818;stroke-width:1.0;"/></g><!--reverse link ApiClientException to UnauthorizedException--><g id="link_ApiClientException_UnauthorizedException"><path d="M757,692.4883 C757,692.4883 897.01,726.7583 996,750.9883 " fill="none" id="ApiClientException-backto-UnauthorizedException" style="stroke:#181818;stroke-width:1.0;"/></g><!--SRC=[bPBFKi8m4CRlVOeyGGw-WJ9MSKOFeEDvIHUwaYPniq7GuTrjmH6f1TeSDzzll_qd91RLxTfW4F9EbOGCRCfDfkAIN026IYtOfp1s9J89E8FgAbC1p18MgCZh5KFGNCtr329gOmcTw2HaetwBTSwlJ3NFM8XHFTIHWnsk1LqHJsP1Pi_wfexyCfdQNdRVSNlZlMqhnVbgJeXpijXRV1teNYJqra-g-JDLw9DSGeuyHhj-_oDj-oDeYhn27WGbANle_ywxk0F1LzXqOgqA3bm3VS3cv2ZEiMCdo0xiZw0vWM49cWyo-E9W1MHXrhNk3lwewmc-9upTbRUMTU16tfd4N7y- -eBcPA0tcdkUKL6W6-Ruv2NtoHN3g7eozI5ufa_iIMw_0G00]--></g></svg>