<svg xmlns="http://www.w3.org/2000/svg" xmlns:xlink="http://www.w3.org/1999/xlink" contentStyleType="text/css" height="942px" preserveAspectRatio="none" style="width:2604px;height:942px;background:#FFFFFF;" version="1.1" viewBox="0 0 2604 942" width="2604px" zoomAndPan="magnify"><title>Exception hierarchy</title><defs/><g><text fill="#000000" font-family="sans-serif" font-size="14" font-weight="bold" lengthAdjust="spacing" textLength="157.2676" x="1216.3662" y="22.9951">Exception hierarchy</text><!--cluster io--><g id="cluster_io"><path d="M8.5,43.2969 L23.917,43.2969 A3.75,3.75 0 0 1 26.417,45.7969 L33.417,65.5938 L2594.5,65.5938 A2.5,2.5 0 0 1 2597,68.0938 L2597,932.7969 A2.5,2.5 0 0 1 2594.5,935.2969 L8.5,935.2969 A2.5,2.5 0 0 1 6,932.7969 L6,45.7969 A2.5,2.5 0 0 1 8.5,43.2969 " fill="none" style="stroke:#000000;stroke-width:1.5;"/><line style="stroke:#000000;stroke-width:1.5;" x1="6" x2="33.417" y1="65.5938" y2="65.5938"/><text fill="#000000" font-family="sans-serif" font-size="14" font-weight="bold" lengthAdjust="spacing" textLength="14.417" x="10" y="58.292">io</text></g><!--cluster vrap--><g id="cluster_vrap"><path d="M32.5,86.2969 L68.999,86.2969 A3.75,3.75 0 0 1 71.499,88.7969 L78.499,108.5938 L2570.5,108.5938 A2.5,2.5 0 0 1 2573,111.0938 L2573,908.7969 A2.5,2.5 0 0 1 2570.5,911.2969 L32.5,911.2969 A2.5,2.5 0 0 1 30,908.7969 L30,88.7969 A2.5,2.5 0 0 1 32.5,86.2969 " fill="none" style="stroke:#000000;stroke-width:1.5;"/><line style="stroke:#000000;stroke-width:1.5;" x1="30" x2="78.499" y1="108.5938" y2="108.5938"/><text fill="#000000" font-family="sans-serif" font-size="14" font-weight="bold" lengthAdjust="spacing" textLength="35.499" x="34" y="101.292">vrap</text></g><!--cluster rmf--><g id="cluster_rmf"><path d="M56.5,129.2969 L85.083,129.2969 A3.75,3.75 0 0 1 87.583,131.7969 L94.583,151.5938 L2546.5,151.5938 A2.5,2.5 0 0 1 2549,154.0938 L2549,884.7969 A2.5,2.5 0 0 1 2546.5,887.2969 L56.5,887.2969 A2.5,2.5 0 0 1 54,884.7969 L54,131.7969 A2.5,2.5 0 0 1 56.5,129.2969 " fill="none" style="stroke:#000000;stroke-width:1.5;"/><line style="stroke:#000000;stroke-width:1.5;" x1="54" x2="94.583" y1="151.5938" y2="151.5938"/><text fill="#000000" font-family="sans-serif" font-size="14" font-weight="bold" lengthAdjust="spacing" textLength="27.583" x="58" y="144.292">rmf</text></g><!--cluster base--><g id="cluster_base"><path d="M80.5,172.2969 L118.7969,172.2969 A3.75,3.75 0 0 1 121.2969,174.7969 L128.2969,194.5938 L2522.5,194.5938 A2.5,2.5 0 0 1 2525,197.0938 L2525,860.7969 A2.5,2.5 0 0 1 2522.5,863.2969 L80.5,863.2969 A2.5,2.5 0 0 1 78,860.7969 L78,174.7969 A2.5,2.5 0 0 1 80.5,172.2969 " fill="none" style="stroke:#000000;stroke-width:1.5;"/><line style="stroke:#000000;stroke-width:1.5;" x1="78" x2="128.2969" y1="194.5938" y2="194.5938"/><text fill="#000000" font-family="sans-serif" font-size="14" font-weight="bold" lengthAdjust="spacing" textLength="37.2969" x="82" y="187.292">base</text></g><!--cluster client--><g id="cluster_client"><path d="M104.5,215.2969 L149.5508,215.2969 A3.75,3.75 0 0 1 152.0508,217.7969 L159.0508,237.5938 L2498.5,237.5938 A2.5,2.5 0 0 1 2501,240.0938 L2501,836.7969 A2.5,2.5 0 0 1 2498.5,839.2969 L104.5,839.2969 A2.5,2.5 0 0 1 102,836.7969 L102,217.7969 A2.5,2.5 0 0 1 104.5,215.2969 " fill="none" style="stroke:#000000;stroke-width:1.5;"/><line style="stroke:#000000;stroke-width:1.5;" x1="102" x2="159.0508" y1="237.5938" y2="237.5938"/><text fill="#000000" font-family="sans-serif" font-size="14" font-weight="bold" lengthAdjust="spacing" textLength="44.0508" x="106" y="230.292">client</text></g><!--cluster utils--><g id="cluster_utils"><path d="M2269.5,397.2969 L2305.0898,397.2969 A3.75,3.75 0 0 1 2307.5898,399.7969 L2314.5898,419.5938 L2474.5,419.5938 A2.5,2.5 0 0 1 2477,422.0938 L2477,560.7969 A2.5,2.5 0 0 1 2474.5,563.2969 L2269.5,563.2969 A2.5,2.5 0 0 1 2267,560.7969 L2267,399.7969 A2.5,2.5 0 0 1 2269.5,397.2969 " fill="none" style="stroke:#000000;stroke-width:1.5;"/><line style="stroke:#000000;stroke-width:1.5;" x1="2267" x2="2314.5898" y1="419.5938" y2="419.5938"/><text fill="#000000" font-family="sans-serif" font-size="14" font-weight="bold" lengthAdjust="spacing" textLength="34.5898" x="2271" y="412.292">utils</text></g><!--cluster json--><g id="cluster_json"><path d="M2293.5,440.2969 L2327.2168,440.2969 A3.75,3.75 0 0 1 2329.7168,442.7969 L2336.7168,462.5938 L2450.5,462.5938 A2.5,2.5 0 0 1 2453,465.0938 L2453,536.7969 A2.5,2.5 0 0 1 2450.5,539.2969 L2293.5,539.2969 A2.5,2.5 0 0 1 2291,536.7969 L2291,442.7969 A2.5,2.5 0 0 1 2293.5,440.2969 " fill="none" style="stroke:#000000;stroke-width:1.5;"/><line style="stroke:#000000;stroke-width:1.5;" x1="2291" x2="2336.7168" y1="462.5938" y2="462.5938"/><text fill="#000000" font-family="sans-serif" font-size="14" font-weight="bold" lengthAdjust="spacing" textLength="32.7168" x="2295" y="455.292">json</text></g><!--cluster error--><g id="cluster_error"><path d="M128.5,258.2969 L169.3262,258.2969 A3.75,3.75 0 0 1 171.8262,260.7969 L178.8262,280.5938 L2240.5,280.5938 A2.5,2.5 0 0 1 2243,283.0938 L2243,812.7969 A2.5,2.5 0 0 1 2240.5,815.2969 L128.5,815.2969 A2.5,2.5 0 0 1 126,812.7969 L126,260.7969 A2.5,2.5 0 0 1 128.5,258.2969 " fill="none" style="stroke:#000000;stroke-width:1.5;"/><line style="stroke:#000000;stroke-width:1.5;" x1="126" x2="178.8262" y1="280.5938" y2="280.5938"/><text fill="#000000" font-family="sans-serif" font-size="14" font-weight="bold" lengthAdjust="spacing" textLength="39.8262" x="130" y="273.292">error</text></g><!--class JsonException--><g id="elem_JsonException"><rect codeLine="4" fill="#F1F1F1" height="48" id="JsonException" rx="2.5" ry="2.5" style="stroke:#181818;stroke-width:0.5;" width="130.0068" x="2307" y="475.2969"/><ellipse cx="2322" cy="491.2969" fill="#ADD1B2" rx="11" ry="11" style="stroke:#181818;stroke-width:1;"/><path d="M2324.9688,496.9375 Q2324.3906,497.2344 2323.75,497.375 Q2323.1094,497.5313 2322.4063,497.5313 Q2319.9063,497.5313 2318.5781,495.8906 Q2317.2656,494.2344 2317.2656,491.1094 Q2317.2656,487.9844 2318.5781,486.3281 Q2319.9063,484.6719 2322.4063,484.6719 Q2323.1094,484.6719 2323.75,484.8281 Q2324.4063,484.9844 2324.9688,485.2813 L2324.9688,488 Q2324.3438,487.4219 2323.75,487.1563 Q2323.1563,486.875 2322.5313,486.875 Q2321.1875,486.875 2320.5,487.9531 Q2319.8125,489.0156 2319.8125,491.1094 Q2319.8125,493.2031 2320.5,494.2813 Q2321.1875,495.3438 2322.5313,495.3438 Q2323.1563,495.3438 2323.75,495.0781 Q2324.3438,494.7969 2324.9688,494.2188 L2324.9688,496.9375 Z " fill="#000000"/><text fill="#000000" font-family="sans-serif" font-size="14" lengthAdjust="spacing" textLength="98.0068" x="2336" y="496.1436">JsonException</text><line style="stroke:#181818;stroke-width:0.5;" x1="2308" x2="2436.0068" y1="507.2969" y2="507.2969"/><line style="stroke:#181818;stroke-width:0.5;" x1="2308" x2="2436.0068" y1="515.2969" y2="515.2969"/></g><!--class BaseException--><g id="elem_BaseException"><rect codeLine="7" fill="#F1F1F1" height="48" id="BaseException" rx="2.5" ry="2.5" style="stroke:#181818;stroke-width:0.5;" width="135.2363" x="1724.5" y="313.2969"/><ellipse cx="1739.5" cy="329.2969" fill="#ADD1B2" rx="11" ry="11" style="stroke:#181818;stroke-width:1;"/><path d="M1742.4688,334.9375 Q1741.8906,335.2344 1741.25,335.375 Q1740.6094,335.5313 1739.9063,335.5313 Q1737.4063,335.5313 1736.0781,333.8906 Q1734.7656,332.2344 1734.7656,329.1094 Q1734.7656,325.9844 1736.0781,324.3281 Q1737.4063,322.6719 1739.9063,322.6719 Q1740.6094,322.6719 1741.25,322.8281 Q1741.9063,322.9844 1742.4688,323.2813 L1742.4688,326 Q1741.8438,325.4219 1741.25,325.1563 Q1740.6563,324.875 1740.0313,324.875 Q1738.6875,324.875 1738,325.9531 Q1737.3125,327.0156 1737.3125,329.1094 Q1737.3125,331.2031 1738,332.2813 Q1738.6875,333.3438 1740.0313,333.3438 Q1740.6563,333.3438 1741.25,333.0781 Q1741.8438,332.7969 1742.4688,332.2188 L1742.4688,334.9375 Z " fill="#000000"/><text fill="#000000" font-family="sans-serif" font-size="14" lengthAdjust="spacing" textLength="103.2363" x="1753.5" y="334.1436">BaseException</text><line style="stroke:#181818;stroke-width:0.5;" x1="1725.5" x2="1858.7363" y1="345.2969" y2="345.2969"/><line style="stroke:#181818;stroke-width:0.5;" x1="1725.5" x2="1858.7363" y1="353.2969" y2="353.2969"/></g><polygon fill="none" points="1792.5885,361.2969,1799.979,381.1559,1785.9817,381.4302" style="stroke:#181818;stroke-width:1;"/><line style="stroke:#181818;stroke-width:1;" x1="1792.9803" x2="1793" y1="381.293" y2="382.2969"/><!--class JsonException--><g id="elem_JsonException"><rect codeLine="8" fill="#F1F1F1" height="48" id="JsonException" rx="2.5" ry="2.5" style="stroke:#181818;stroke-width:0.5;" width="130.0068" x="1369" y="475.2969"/><ellipse cx="1384" cy="491.2969" fill="#ADD1B2" rx="11" ry="11" style="stroke:#181818;stroke-width:1;"/><path d="M1386.9688,496.9375 Q1386.3906,497.2344 1385.75,497.375 Q1385.1094,497.5313 1384.4063,497.5313 Q1381.9063,497.5313 1380.5781,495.8906 Q1379.2656,494.2344 1379.2656,491.1094 Q1379.2656,487.9844 1380.5781,486.3281 Q1381.9063,484.6719 1384.4063,484.6719 Q1385.1094,484.6719 1385.75,484.8281 Q1386.4063,484.9844 1386.9688,485.2813 L1386.9688,488 Q1386.3438,487.4219 1385.75,487.1563 Q1385.1563,486.875 1384.5313,486.875 Q1383.1875,486.875 1382.5,487.9531 Q1381.8125,489.0156 1381.8125,491.1094 Q1381.8125,493.2031 1382.5,494.2813 Q1383.1875,495.3438 1384.5313,495.3438 Q1385.1563,495.3438 1385.75,495.0781 Q1386.3438,494.7969 1386.9688,494.2188 L1386.9688,496.9375 Z " fill="#000000"/><text fill="#000000" font-family="sans-serif" font-size="14" lengthAdjust="spacing" textLength="98.0068" x="1398" y="496.1436">JsonException</text><line style="stroke:#181818;stroke-width:0.5;" x1="1370" x2="1498.0068" y1="507.2969" y2="507.2969"/><line style="stroke:#181818;stroke-width:0.5;" x1="1370" x2="1498.0068" y1="515.2969" y2="515.2969"/></g><!--class FileException--><g id="elem_FileException"><rect codeLine="9" fill="#F1F1F1" height="48" id="FileException" rx="2.5" ry="2.5" style="stroke:#181818;stroke-width:0.5;" width="125.5908" x="1534" y="475.2969"/><ellipse cx="1549" cy="491.2969" fill="#ADD1B2" rx="11" ry="11" style="stroke:#181818;stroke-width:1;"/><path d="M1551.9688,496.9375 Q1551.3906,497.2344 1550.75,497.375 Q1550.1094,497.5313 1549.4063,497.5313 Q1546.9063,497.5313 1545.5781,495.8906 Q1544.2656,494.2344 1544.2656,491.1094 Q1544.2656,487.9844 1545.5781,486.3281 Q1546.9063,484.6719 1549.4063,484.6719 Q1550.1094,484.6719 1550.75,484.8281 Q1551.4063,484.9844 1551.9688,485.2813 L1551.9688,488 Q1551.3438,487.4219 1550.75,487.1563 Q1550.1563,486.875 1549.5313,486.875 Q1548.1875,486.875 1547.5,487.9531 Q1546.8125,489.0156 1546.8125,491.1094 Q1546.8125,493.2031 1547.5,494.2813 Q1548.1875,495.3438 1549.5313,495.3438 Q1550.1563,495.3438 1550.75,495.0781 Q1551.3438,494.7969 1551.9688,494.2188 L1551.9688,496.9375 Z " fill="#000000"/><text fill="#000000" font-family="sans-serif" font-size="14" lengthAdjust="spacing" textLength="93.5908" x="1563" y="496.1436">FileException</text><line style="stroke:#181818;stroke-width:0.5;" x1="1535" x2="1658.5908" y1="507.2969" y2="507.2969"/><line style="stroke:#181818;stroke-width:0.5;" x1="1535" x2="1658.5908" y1="515.2969" y2="515.2969"/></g><!--class ApiHttpException--><g id="elem_ApiHttpException"><rect codeLine="10" fill="#F1F1F1" height="48" id="ApiHttpException" rx="2.5" ry="2.5" style="stroke:#181818;stroke-width:0.5;" width="153.8916" x="1715" y="475.2969"/><ellipse cx="1730" cy="491.2969" fill="#ADD1B2" rx="11" ry="11" style="stroke:#181818;stroke-width:1;"/><path d="M1732.9688,496.9375 Q1732.3906,497.2344 1731.75,497.375 Q1731.1094,497.5313 1730.4063,497.5313 Q1727.9063,497.5313 1726.5781,495.8906 Q1725.2656,494.2344 1725.2656,491.1094 Q1725.2656,487.9844 1726.5781,486.3281 Q1727.9063,484.6719 1730.4063,484.6719 Q1731.1094,484.6719 1731.75,484.8281 Q1732.4063,484.9844 1732.9688,485.2813 L1732.9688,488 Q1732.3438,487.4219 1731.75,487.1563 Q1731.1563,486.875 1730.5313,486.875 Q1729.1875,486.875 1728.5,487.9531 Q1727.8125,489.0156 1727.8125,491.1094 Q1727.8125,493.2031 1728.5,494.2813 Q1729.1875,495.3438 1730.5313,495.3438 Q1731.1563,495.3438 1731.75,495.0781 Q1732.3438,494.7969 1732.9688,494.2188 L1732.9688,496.9375 Z " fill="#000000"/><text fill="#000000" font-family="sans-serif" font-size="14" lengthAdjust="spacing" textLength="121.8916" x="1744" y="496.1436">ApiHttpException</text><line style="stroke:#181818;stroke-width:0.5;" x1="1716" x2="1867.8916" y1="507.2969" y2="507.2969"/><line style="stroke:#181818;stroke-width:0.5;" x1="1716" x2="1867.8916" y1="515.2969" y2="515.2969"/></g><polygon fill="none" points="1779.1747,523.2969,1775.9591,544.2411,1763.5999,537.6644" style="stroke:#181818;stroke-width:1;"/><line style="stroke:#181818;stroke-width:1;" x1="1769.7795" x2="1768" y1="540.9528" y2="544.2969"/><line style="stroke:#181818;stroke-width:1;" x1="1792.1762" x2="1792.37" y1="475.2969" y2="455.1069"/><!--class RmfTimeoutException--><g id="elem_RmfTimeoutException"><rect codeLine="11" fill="#F1F1F1" height="48" id="RmfTimeoutException" rx="2.5" ry="2.5" style="stroke:#181818;stroke-width:0.5;" width="187.0596" x="1924.5" y="475.2969"/><ellipse cx="1939.5" cy="491.2969" fill="#ADD1B2" rx="11" ry="11" style="stroke:#181818;stroke-width:1;"/><path d="M1942.4688,496.9375 Q1941.8906,497.2344 1941.25,497.375 Q1940.6094,497.5313 1939.9063,497.5313 Q1937.4063,497.5313 1936.0781,495.8906 Q1934.7656,494.2344 1934.7656,491.1094 Q1934.7656,487.9844 1936.0781,486.3281 Q1937.4063,484.6719 1939.9063,484.6719 Q1940.6094,484.6719 1941.25,484.8281 Q1941.9063,484.9844 1942.4688,485.2813 L1942.4688,488 Q1941.8438,487.4219 1941.25,487.1563 Q1940.6563,486.875 1940.0313,486.875 Q1938.6875,486.875 1938,487.9531 Q1937.3125,489.0156 1937.3125,491.1094 Q1937.3125,493.2031 1938,494.2813 Q1938.6875,495.3438 1940.0313,495.3438 Q1940.6563,495.3438 1941.25,495.0781 Q1941.8438,494.7969 1942.4688,494.2188 L1942.4688,496.9375 Z " fill="#000000"/><text fill="#000000" font-family="sans-serif" font-size="14" lengthAdjust="spacing" textLength="155.0596" x="1953.5" y="496.1436">RmfTimeoutException</text><line style="stroke:#181818;stroke-width:0.5;" x1="1925.5" x2="2110.5596" y1="507.2969" y2="507.2969"/><line style="stroke:#181818;stroke-width:0.5;" x1="1925.5" x2="2110.5596" y1="515.2969" y2="515.2969"/></g><!--class ApiClientException--><g id="elem_ApiClientException"><rect codeLine="13" fill="#F1F1F1" height="48" id="ApiClientException" rx="2.5" ry="2.5" style="stroke:#181818;stroke-width:0.5;" width="164.0293" x="701" y="623.2969"/><ellipse cx="716" cy="639.2969" fill="#ADD1B2" rx="11" ry="11" style="stroke:#181818;stroke-width:1;"/><path d="M718.9688,644.9375 Q718.3906,645.2344 717.75,645.375 Q717.1094,645.5313 716.4063,645.5313 Q713.9063,645.5313 712.5781,643.8906 Q711.2656,642.2344 711.2656,639.1094 Q711.2656,635.9844 712.5781,634.3281 Q713.9063,632.6719 716.4063,632.6719 Q717.1094,632.6719 717.75,632.8281 Q718.4063,632.9844 718.9688,633.2813 L718.9688,636 Q718.3438,635.4219 717.75,635.1563 Q717.1563,634.875 716.5313,634.875 Q715.1875,634.875 714.5,635.9531 Q713.8125,637.0156 713.8125,639.1094 Q713.8125,641.2031 714.5,642.2813 Q715.1875,643.3438 716.5313,643.3438 Q717.1563,643.3438 717.75,643.0781 Q718.3438,642.7969 718.9688,642.2188 L718.9688,644.9375 Z " fill="#000000"/><text fill="#000000" font-family="sans-serif" font-size="14" lengthAdjust="spacing" textLength="132.0293" x="730" y="644.1436">ApiClientException</text><line style="stroke:#181818;stroke-width:0.5;" x1="702" x2="864.0293" y1="655.2969" y2="655.2969"/><line style="stroke:#181818;stroke-width:0.5;" x1="702" x2="864.0293" y1="663.2969" y2="663.2969"/></g><polygon fill="none" points="773.9402,671.2969,773.4144,692.48,760.3192,687.5286" style="stroke:#181818;stroke-width:1;"/><line style="stroke:#181818;stroke-width:1;" x1="766.8668" x2="766" y1="690.0043" y2="692.2969"/><line style="stroke:#181818;stroke-width:1;" x1="865.0293" x2="885.27" y1="645.1474" y2="644.6169"/><!--class ApiServerException--><g id="elem_ApiServerException"><rect codeLine="14" fill="#F1F1F1" height="48" id="ApiServerException" rx="2.5" ry="2.5" style="stroke:#181818;stroke-width:0.5;" width="169.4092" x="1604.5" y="623.2969"/><ellipse cx="1619.5" cy="639.2969" fill="#ADD1B2" rx="11" ry="11" style="stroke:#181818;stroke-width:1;"/><path d="M1622.4688,644.9375 Q1621.8906,645.2344 1621.25,645.375 Q1620.6094,645.5313 1619.9063,645.5313 Q1617.4063,645.5313 1616.0781,643.8906 Q1614.7656,642.2344 1614.7656,639.1094 Q1614.7656,635.9844 1616.0781,634.3281 Q1617.4063,632.6719 1619.9063,632.6719 Q1620.6094,632.6719 1621.25,632.8281 Q1621.9063,632.9844 1622.4688,633.2813 L1622.4688,636 Q1621.8438,635.4219 1621.25,635.1563 Q1620.6563,634.875 1620.0313,634.875 Q1618.6875,634.875 1618,635.9531 Q1617.3125,637.0156 1617.3125,639.1094 Q1617.3125,641.2031 1618,642.2813 Q1618.6875,643.3438 1620.0313,643.3438 Q1620.6563,643.3438 1621.25,643.0781 Q1621.8438,642.7969 1622.4688,642.2188 L1622.4688,644.9375 Z " fill="#000000"/><text fill="#000000" font-family="sans-serif" font-size="14" lengthAdjust="spacing" textLength="137.4092" x="1633.5" y="644.1436">ApiServerException</text><line style="stroke:#181818;stroke-width:0.5;" x1="1605.5" x2="1772.9092" y1="655.2969" y2="655.2969"/><line style="stroke:#181818;stroke-width:0.5;" x1="1605.5" x2="1772.9092" y1="663.2969" y2="663.2969"/></g><polygon fill="none" points="1690.1621,671.2969,1697.9539,691.0019,1683.965,691.56" style="stroke:#181818;stroke-width:1;"/><line style="stroke:#181818;stroke-width:1;" x1="1690.9595" x2="1691" y1="691.281" y2="692.2969"/><line style="stroke:#181818;stroke-width:1;" x1="1707.259" x2="1722.5" y1="623.2969" y2="603.0369"/><!--class AuthException--><g id="elem_AuthException"><rect codeLine="15" fill="#F1F1F1" height="48" id="AuthException" rx="2.5" ry="2.5" style="stroke:#181818;stroke-width:0.5;" width="133.958" x="1829" y="623.2969"/><ellipse cx="1844" cy="639.2969" fill="#ADD1B2" rx="11" ry="11" style="stroke:#181818;stroke-width:1;"/><path d="M1846.9688,644.9375 Q1846.3906,645.2344 1845.75,645.375 Q1845.1094,645.5313 1844.4063,645.5313 Q1841.9063,645.5313 1840.5781,643.8906 Q1839.2656,642.2344 1839.2656,639.1094 Q1839.2656,635.9844 1840.5781,634.3281 Q1841.9063,632.6719 1844.4063,632.6719 Q1845.1094,632.6719 1845.75,632.8281 Q1846.4063,632.9844 1846.9688,633.2813 L1846.9688,636 Q1846.3438,635.4219 1845.75,635.1563 Q1845.1563,634.875 1844.5313,634.875 Q1843.1875,634.875 1842.5,635.9531 Q1841.8125,637.0156 1841.8125,639.1094 Q1841.8125,641.2031 1842.5,642.2813 Q1843.1875,643.3438 1844.5313,643.3438 Q1845.1563,643.3438 1845.75,643.0781 Q1846.3438,642.7969 1846.9688,642.2188 L1846.9688,644.9375 Z " fill="#000000"/><text fill="#000000" font-family="sans-serif" font-size="14" lengthAdjust="spacing" textLength="101.958" x="1858" y="644.1436">AuthException</text><line style="stroke:#181818;stroke-width:0.5;" x1="1830" x2="1961.958" y1="655.2969" y2="655.2969"/><line style="stroke:#181818;stroke-width:0.5;" x1="1830" x2="1961.958" y1="663.2969" y2="663.2969"/></g><!--class BadGateWayException--><g id="elem_BadGateWayException"><rect codeLine="17" fill="#F1F1F1" height="48" id="BadGateWayException" rx="2.5" ry="2.5" style="stroke:#181818;stroke-width:0.5;" width="192.4531" x="1236" y="751.2969"/><ellipse cx="1251" cy="767.2969" fill="#ADD1B2" rx="11" ry="11" style="stroke:#181818;stroke-width:1;"/><path d="M1253.9688,772.9375 Q1253.3906,773.2344 1252.75,773.375 Q1252.1094,773.5313 1251.4063,773.5313 Q1248.9063,773.5313 1247.5781,771.8906 Q1246.2656,770.2344 1246.2656,767.1094 Q1246.2656,763.9844 1247.5781,762.3281 Q1248.9063,760.6719 1251.4063,760.6719 Q1252.1094,760.6719 1252.75,760.8281 Q1253.4063,760.9844 1253.9688,761.2813 L1253.9688,764 Q1253.3438,763.4219 1252.75,763.1563 Q1252.1563,762.875 1251.5313,762.875 Q1250.1875,762.875 1249.5,763.9531 Q1248.8125,765.0156 1248.8125,767.1094 Q1248.8125,769.2031 1249.5,770.2813 Q1250.1875,771.3438 1251.5313,771.3438 Q1252.1563,771.3438 1252.75,771.0781 Q1253.3438,770.7969 1253.9688,770.2188 L1253.9688,772.9375 Z " fill="#000000"/><text fill="#000000" font-family="sans-serif" font-size="14" lengthAdjust="spacing" textLength="160.4531" x="1265" y="772.1436">BadGateWayException</text><line style="stroke:#181818;stroke-width:0.5;" x1="1237" x2="1427.4531" y1="783.2969" y2="783.2969"/><line style="stroke:#181818;stroke-width:0.5;" x1="1237" x2="1427.4531" y1="791.2969" y2="791.2969"/></g><!--class GatewayTimeoutException--><g id="elem_GatewayTimeoutException"><rect codeLine="18" fill="#F1F1F1" height="48" id="GatewayTimeoutException" rx="2.5" ry="2.5" style="stroke:#181818;stroke-width:0.5;" width="220.6104" x="1463.5" y="751.2969"/><ellipse cx="1478.5" cy="767.2969" fill="#ADD1B2" rx="11" ry="11" style="stroke:#181818;stroke-width:1;"/><path d="M1481.4688,772.9375 Q1480.8906,773.2344 1480.25,773.375 Q1479.6094,773.5313 1478.9063,773.5313 Q1476.4063,773.5313 1475.0781,771.8906 Q1473.7656,770.2344 1473.7656,767.1094 Q1473.7656,763.9844 1475.0781,762.3281 Q1476.4063,760.6719 1478.9063,760.6719 Q1479.6094,760.6719 1480.25,760.8281 Q1480.9063,760.9844 1481.4688,761.2813 L1481.4688,764 Q1480.8438,763.4219 1480.25,763.1563 Q1479.6563,762.875 1479.0313,762.875 Q1477.6875,762.875 1477,763.9531 Q1476.3125,765.0156 1476.3125,767.1094 Q1476.3125,769.2031 1477,770.2813 Q1477.6875,771.3438 1479.0313,771.3438 Q1479.6563,771.3438 1480.25,771.0781 Q1480.8438,770.7969 1481.4688,770.2188 L1481.4688,772.9375 Z " fill="#000000"/><text fill="#000000" font-family="sans-serif" font-size="14" lengthAdjust="spacing" textLength="188.6104" x="1492.5" y="772.1436">GatewayTimeoutException</text><line style="stroke:#181818;stroke-width:0.5;" x1="1464.5" x2="1683.1104" y1="783.2969" y2="783.2969"/><line style="stroke:#181818;stroke-width:0.5;" x1="1464.5" x2="1683.1104" y1="791.2969" y2="791.2969"/></g><!--class InternalServerErrorException--><g id="elem_InternalServerErrorException"><rect codeLine="19" fill="#F1F1F1" height="48" id="InternalServerErrorException" rx="2.5" ry="2.5" style="stroke:#181818;stroke-width:0.5;" width="235.9365" x="1720" y="751.2969"/><ellipse cx="1735" cy="767.2969" fill="#ADD1B2" rx="11" ry="11" style="stroke:#181818;stroke-width:1;"/><path d="M1737.9688,772.9375 Q1737.3906,773.2344 1736.75,773.375 Q1736.1094,773.5313 1735.4063,773.5313 Q1732.9063,773.5313 1731.5781,771.8906 Q1730.2656,770.2344 1730.2656,767.1094 Q1730.2656,763.9844 1731.5781,762.3281 Q1732.9063,760.6719 1735.4063,760.6719 Q1736.1094,760.6719 1736.75,760.8281 Q1737.4063,760.9844 1737.9688,761.2813 L1737.9688,764 Q1737.3438,763.4219 1736.75,763.1563 Q1736.1563,762.875 1735.5313,762.875 Q1734.1875,762.875 1733.5,763.9531 Q1732.8125,765.0156 1732.8125,767.1094 Q1732.8125,769.2031 1733.5,770.2813 Q1734.1875,771.3438 1735.5313,771.3438 Q1736.1563,771.3438 1736.75,771.0781 Q1737.3438,770.7969 1737.9688,770.2188 L1737.9688,772.9375 Z " fill="#000000"/><text fill="#000000" font-family="sans-serif" font-size="14" lengthAdjust="spacing" textLength="203.9365" x="1749" y="772.1436">InternalServerErrorException</text><line style="stroke:#181818;stroke-width:0.5;" x1="1721" x2="1954.9365" y1="783.2969" y2="783.2969"/><line style="stroke:#181818;stroke-width:0.5;" x1="1721" x2="1954.9365" y1="791.2969" y2="791.2969"/></g><!--class ServiceUnavailableException--><g id="elem_ServiceUnavailableException"><rect codeLine="20" fill="#F1F1F1" height="48" id="ServiceUnavailableException" rx="2.5" ry="2.5" style="stroke:#181818;stroke-width:0.5;" width="235.1982" x="1991.5" y="751.2969"/><ellipse cx="2006.5" cy="767.2969" fill="#ADD1B2" rx="11" ry="11" style="stroke:#181818;stroke-width:1;"/><path d="M2009.4688,772.9375 Q2008.8906,773.2344 2008.25,773.375 Q2007.6094,773.5313 2006.9063,773.5313 Q2004.4063,773.5313 2003.0781,771.8906 Q2001.7656,770.2344 2001.7656,767.1094 Q2001.7656,763.9844 2003.0781,762.3281 Q2004.4063,760.6719 2006.9063,760.6719 Q2007.6094,760.6719 2008.25,760.8281 Q2008.9063,760.9844 2009.4688,761.2813 L2009.4688,764 Q2008.8438,763.4219 2008.25,763.1563 Q2007.6563,762.875 2007.0313,762.875 Q2005.6875,762.875 2005,763.9531 Q2004.3125,765.0156 2004.3125,767.1094 Q2004.3125,769.2031 2005,770.2813 Q2005.6875,771.3438 2007.0313,771.3438 Q2007.6563,771.3438 2008.25,771.0781 Q2008.8438,770.7969 2009.4688,770.2188 L2009.4688,772.9375 Z " fill="#000000"/><text fill="#000000" font-family="sans-serif" font-size="14" lengthAdjust="spacing" textLength="203.1982" x="2020.5" y="772.1436">ServiceUnavailableException</text><line style="stroke:#181818;stroke-width:0.5;" x1="1992.5" x2="2225.6982" y1="783.2969" y2="783.2969"/><line style="stroke:#181818;stroke-width:0.5;" x1="1992.5" x2="2225.6982" y1="791.2969" y2="791.2969"/></g><!--class BadRequestException--><g id="elem_BadRequestException"><rect codeLine="22" fill="#F1F1F1" height="48" id="BadRequestException" rx="2.5" ry="2.5" style="stroke:#181818;stroke-width:0.5;" width="185.7129" x="142" y="751.2969"/><ellipse cx="157" cy="767.2969" fill="#ADD1B2" rx="11" ry="11" style="stroke:#181818;stroke-width:1;"/><path d="M159.9688,772.9375 Q159.3906,773.2344 158.75,773.375 Q158.1094,773.5313 157.4063,773.5313 Q154.9063,773.5313 153.5781,771.8906 Q152.2656,770.2344 152.2656,767.1094 Q152.2656,763.9844 153.5781,762.3281 Q154.9063,760.6719 157.4063,760.6719 Q158.1094,760.6719 158.75,760.8281 Q159.4063,760.9844 159.9688,761.2813 L159.9688,764 Q159.3438,763.4219 158.75,763.1563 Q158.1563,762.875 157.5313,762.875 Q156.1875,762.875 155.5,763.9531 Q154.8125,765.0156 154.8125,767.1094 Q154.8125,769.2031 155.5,770.2813 Q156.1875,771.3438 157.5313,771.3438 Q158.1563,771.3438 158.75,771.0781 Q159.3438,770.7969 159.9688,770.2188 L159.9688,772.9375 Z " fill="#000000"/><text fill="#000000" font-family="sans-serif" font-size="14" lengthAdjust="spacing" textLength="153.7129" x="171" y="772.1436">BadRequestException</text><line style="stroke:#181818;stroke-width:0.5;" x1="143" x2="326.7129" y1="783.2969" y2="783.2969"/><line style="stroke:#181818;stroke-width:0.5;" x1="143" x2="326.7129" y1="791.2969" y2="791.2969"/></g><!--class ConcurrentModification--><g id="elem_ConcurrentModification"><rect codeLine="23" fill="#F1F1F1" height="48" id="ConcurrentModification" rx="2.5" ry="2.5" style="stroke:#181818;stroke-width:0.5;" width="195.6045" x="363" y="751.2969"/><ellipse cx="378" cy="767.2969" fill="#ADD1B2" rx="11" ry="11" style="stroke:#181818;stroke-width:1;"/><path d="M380.9688,772.9375 Q380.3906,773.2344 379.75,773.375 Q379.1094,773.5313 378.4063,773.5313 Q375.9063,773.5313 374.5781,771.8906 Q373.2656,770.2344 373.2656,767.1094 Q373.2656,763.9844 374.5781,762.3281 Q375.9063,760.6719 378.4063,760.6719 Q379.1094,760.6719 379.75,760.8281 Q380.4063,760.9844 380.9688,761.2813 L380.9688,764 Q380.3438,763.4219 379.75,763.1563 Q379.1563,762.875 378.5313,762.875 Q377.1875,762.875 376.5,763.9531 Q375.8125,765.0156 375.8125,767.1094 Q375.8125,769.2031 376.5,770.2813 Q377.1875,771.3438 378.5313,771.3438 Q379.1563,771.3438 379.75,771.0781 Q380.3438,770.7969 380.9688,770.2188 L380.9688,772.9375 Z " fill="#000000"/><text fill="#000000" font-family="sans-serif" font-size="14" lengthAdjust="spacing" textLength="163.6045" x="392" y="772.1436">ConcurrentModification</text><line style="stroke:#181818;stroke-width:0.5;" x1="364" x2="557.6045" y1="783.2969" y2="783.2969"/><line style="stroke:#181818;stroke-width:0.5;" x1="364" x2="557.6045" y1="791.2969" y2="791.2969"/></g><!--class ForbiddenException--><g id="elem_ForbiddenException"><rect codeLine="24" fill="#F1F1F1" height="48" id="ForbiddenException" rx="2.5" ry="2.5" style="stroke:#181818;stroke-width:0.5;" width="171.5557" x="594" y="751.2969"/><ellipse cx="609" cy="767.2969" fill="#ADD1B2" rx="11" ry="11" style="stroke:#181818;stroke-width:1;"/><path d="M611.9688,772.9375 Q611.3906,773.2344 610.75,773.375 Q610.1094,773.5313 609.4063,773.5313 Q606.9063,773.5313 605.5781,771.8906 Q604.2656,770.2344 604.2656,767.1094 Q604.2656,763.9844 605.5781,762.3281 Q606.9063,760.6719 609.4063,760.6719 Q610.1094,760.6719 610.75,760.8281 Q611.4063,760.9844 611.9688,761.2813 L611.9688,764 Q611.3438,763.4219 610.75,763.1563 Q610.1563,762.875 609.5313,762.875 Q608.1875,762.875 607.5,763.9531 Q606.8125,765.0156 606.8125,767.1094 Q606.8125,769.2031 607.5,770.2813 Q608.1875,771.3438 609.5313,771.3438 Q610.1563,771.3438 610.75,771.0781 Q611.3438,770.7969 611.9688,770.2188 L611.9688,772.9375 Z " fill="#000000"/><text fill="#000000" font-family="sans-serif" font-size="14" lengthAdjust="spacing" textLength="139.5557" x="623" y="772.1436">ForbiddenException</text><line style="stroke:#181818;stroke-width:0.5;" x1="595" x2="764.5557" y1="783.2969" y2="783.2969"/><line style="stroke:#181818;stroke-width:0.5;" x1="595" x2="764.5557" y1="791.2969" y2="791.2969"/></g><!--class NotFoundException--><g id="elem_NotFoundException"><rect codeLine="25" fill="#F1F1F1" height="48" id="NotFoundException" rx="2.5" ry="2.5" style="stroke:#181818;stroke-width:0.5;" width="168.9238" x="801.5" y="751.2969"/><ellipse cx="816.5" cy="767.2969" fill="#ADD1B2" rx="11" ry="11" style="stroke:#181818;stroke-width:1;"/><path d="M819.4688,772.9375 Q818.8906,773.2344 818.25,773.375 Q817.6094,773.5313 816.9063,773.5313 Q814.4063,773.5313 813.0781,771.8906 Q811.7656,770.2344 811.7656,767.1094 Q811.7656,763.9844 813.0781,762.3281 Q814.4063,760.6719 816.9063,760.6719 Q817.6094,760.6719 818.25,760.8281 Q818.9063,760.9844 819.4688,761.2813 L819.4688,764 Q818.8438,763.4219 818.25,763.1563 Q817.6563,762.875 817.0313,762.875 Q815.6875,762.875 815,763.9531 Q814.3125,765.0156 814.3125,767.1094 Q814.3125,769.2031 815,770.2813 Q815.6875,771.3438 817.0313,771.3438 Q817.6563,771.3438 818.25,771.0781 Q818.8438,770.7969 819.4688,770.2188 L819.4688,772.9375 Z " fill="#000000"/><text fill="#000000" font-family="sans-serif" font-size="14" lengthAdjust="spacing" textLength="136.9238" x="830.5" y="772.1436">NotFoundException</text><line style="stroke:#181818;stroke-width:0.5;" x1="802.5" x2="969.4238" y1="783.2969" y2="783.2969"/><line style="stroke:#181818;stroke-width:0.5;" x1="802.5" x2="969.4238" y1="791.2969" y2="791.2969"/></g><!--class UnauthorizedException--><g id="elem_UnauthorizedException"><rect codeLine="26" fill="#F1F1F1" height="48" id="UnauthorizedException" rx="2.5" ry="2.5" style="stroke:#181818;stroke-width:0.5;" width="195.1396" x="1005.5" y="751.2969"/><ellipse cx="1020.5" cy="767.2969" fill="#ADD1B2" rx="11" ry="11" style="stroke:#181818;stroke-width:1;"/><path d="M1023.4688,772.9375 Q1022.8906,773.2344 1022.25,773.375 Q1021.6094,773.5313 1020.9063,773.5313 Q1018.4063,773.5313 1017.0781,771.8906 Q1015.7656,770.2344 1015.7656,767.1094 Q1015.7656,763.9844 1017.0781,762.3281 Q1018.4063,760.6719 1020.9063,760.6719 Q1021.6094,760.6719 1022.25,760.8281 Q1022.9063,760.9844 1023.4688,761.2813 L1023.4688,764 Q1022.8438,763.4219 1022.25,763.1563 Q1021.6563,762.875 1021.0313,762.875 Q1019.6875,762.875 1019,763.9531 Q1018.3125,765.0156 1018.3125,767.1094 Q1018.3125,769.2031 1019,770.2813 Q1019.6875,771.3438 1021.0313,771.3438 Q1021.6563,771.3438 1022.25,771.0781 Q1022.8438,770.7969 1023.4688,770.2188 L1023.4688,772.9375 Z " fill="#000000"/><text fill="#000000" font-family="sans-serif" font-size="14" lengthAdjust="spacing" textLength="163.1396" x="1034.5" y="772.1436">UnauthorizedException</text><line style="stroke:#181818;stroke-width:0.5;" x1="1006.5" x2="1199.6396" y1="783.2969" y2="783.2969"/><line style="stroke:#181818;stroke-width:0.5;" x1="1006.5" x2="1199.6396" y1="791.2969" y2="791.2969"/></g><!--reverse link BaseException to JsonException--><g id="link_BaseException_JsonException"><path d="M1793,382.2969 C1793,382.2969 2219.59,380.5269 2243,389.2969 C2289.4,406.6869 2330.76,448.6169 2353.51,475.1069 " fill="none" id="BaseException-backto-JsonException" style="stroke:#181818;stroke-width:1;"/></g><!--reverse link BaseException to JsonException--><g id="link_BaseException_JsonException"><path d="M1793,382.2969 C1793,382.2969 1530.66,382.3169 1517,389.2969 C1481.42,407.4869 1456.8,448.7469 1444.07,474.9569 " fill="none" id="BaseException-backto-JsonException-1" style="stroke:#181818;stroke-width:1;"/></g><!--reverse link BaseException to FileException--><g id="link_BaseException_FileException"><path d="M1793,382.2969 C1793,382.2969 1689.26,383.1969 1678,389.2969 C1643.17,408.1569 1619.17,449.2069 1606.79,475.1969 " fill="none" id="BaseException-backto-FileException" style="stroke:#181818;stroke-width:1;"/></g><!--reverse link BaseException to ApiHttpException--><g id="link_BaseException_ApiHttpException"><path d="M1793,382.2969 C1793,382.2969 1792.66,422.1269 1792.37,455.1069 " fill="none" id="BaseException-backto-ApiHttpException" style="stroke:#181818;stroke-width:1;"/></g><!--reverse link BaseException to RmfTimeoutException--><g id="link_BaseException_RmfTimeoutException"><path d="M1793,382.2969 C1793,382.2969 1883.81,378.9769 1907,389.2969 C1948.45,407.7469 1983.3,448.9269 2002.36,475.0569 " fill="none" id="BaseException-backto-RmfTimeoutException" style="stroke:#181818;stroke-width:1;"/></g><!--reverse link ApiHttpException to ApiClientException--><g id="link_ApiHttpException_ApiClientException"><path d="M1768,544.2969 C1768,544.2969 1719.03,563.5069 1678,571.2969 C1394.21,625.1469 1052.48,640.3369 885.27,644.6169 " fill="none" id="ApiHttpException-backto-ApiClientException" style="stroke:#181818;stroke-width:1;"/></g><!--reverse link ApiHttpException to ApiServerException--><g id="link_ApiHttpException_ApiServerException"><path d="M1768,544.2969 C1768,544.2969 1744.03,575.2369 1722.5,603.0369 " fill="none" id="ApiHttpException-backto-ApiServerException" style="stroke:#181818;stroke-width:1;"/></g><!--reverse link ApiHttpException to AuthException--><g id="link_ApiHttpException_AuthException"><path d="M1768,544.2969 C1768,544.2969 1829.19,593.0569 1866.95,623.1469 " fill="none" id="ApiHttpException-backto-AuthException" style="stroke:#181818;stroke-width:1;"/></g><!--reverse link ApiServerException to BadGateWayException--><g id="link_ApiServerException_BadGateWayException"><path d="M1691,692.2969 C1691,692.2969 1534.55,728.0369 1428.21,752.3269 " fill="none" id="ApiServerException-backto-BadGateWayException" style="stroke:#181818;stroke-width:1;"/></g><!--reverse link ApiServerException to GatewayTimeoutException--><g id="link_ApiServerException_GatewayTimeoutException"><path d="M1691,692.2969 C1691,692.2969 1641.51,726.9869 1606.9,751.2369 " fill="none" id="ApiServerException-backto-GatewayTimeoutException" style="stroke:#181818;stroke-width:1;"/></g><!--reverse link ApiServerException to InternalServerErrorException--><g id="link_ApiServerException_InternalServerErrorException"><path d="M1691,692.2969 C1691,692.2969 1753.18,726.9869 1796.66,751.2369 " fill="none" id="ApiServerException-backto-InternalServerErrorException" style="stroke:#181818;stroke-width:1;"/></g><!--reverse link ApiServerException to ServiceUnavailableException--><g id="link_ApiServerException_ServiceUnavailableException"><path d="M1691,692.2969 C1691,692.2969 1868.08,727.0369 1991.73,751.2869 " fill="none" id="ApiServerException-backto-ServiceUnavailableException" style="stroke:#181818;stroke-width:1;"/></g><!--reverse link ApiClientException to BadRequestException--><g id="link_ApiClientException_BadRequestException"><path d="M766,692.2969 C766,692.2969 531.72,719.0469 346,751.2969 C340.18,752.3069 334.21,753.3969 328.18,754.5369 " fill="none" id="ApiClientException-backto-BadRequestException" style="stroke:#181818;stroke-width:1;"/></g><!--reverse link ApiClientException to ConcurrentModification--><g id="link_ApiClientException_ConcurrentModification"><path d="M766,692.2969 C766,692.2969 636.98,726.9869 546.77,751.2369 " fill="none" id="ApiClientException-backto-ConcurrentModification" style="stroke:#181818;stroke-width:1;"/></g><!--reverse link ApiClientException to ForbiddenException--><g id="link_ApiClientException_ForbiddenException"><path d="M766,692.2969 C766,692.2969 729.84,726.7769 704.41,751.0169 " fill="none" id="ApiClientException-backto-ForbiddenException" style="stroke:#181818;stroke-width:1;"/></g><!--reverse link ApiClientException to NotFoundException--><g id="link_ApiClientException_NotFoundException"><path d="M766,692.2969 C766,692.2969 816.76,726.9869 852.25,751.2369 " fill="none" id="ApiClientException-backto-NotFoundException" style="stroke:#181818;stroke-width:1;"/></g><!--reverse link ApiClientException to UnauthorizedException--><g id="link_ApiClientException_UnauthorizedException"><path d="M766,692.2969 C766,692.2969 908.55,726.9869 1008.23,751.2369 " fill="none" id="ApiClientException-backto-UnauthorizedException" style="stroke:#181818;stroke-width:1;"/></g><!--SRC=[bPBFKi8m4CRlVOeyGGw-WJ9MSKOFeEDvIHUwaYPniq7GuTrjmH6f1TeSDzzll_qd91RLxTfW4F9EbOGCRCfDfkAIN026IYtOfp1s9J89E8FgAbC1p18MgCZh5KFGNCtr329gOmcTw2HaetwBTSwlJ3NFM8XHFTIHWnsk1LqHJsP1Pi_wfexyCfdQNdRVSNlZlMqhnVbgJeXpijXRV1teNYJqra-g-JDLw9DSGeuyHhj-_oDj-oDeYhn27WGbANle_ywxk0F1LzXqOgqA3bm3VS3cv2ZEiMCdo0xiZw0vWM49cWyo-E9W1MHXrhNk3lwewmc-9upTbRUMTU16tfd4N7y- -eBcPA0tcdkUKL6W6-Ruv2NtoHN3g7eozI5ufa_iIMw_0G00]--></g></svg>