<?xml version="1.0" encoding="us-ascii" standalone="no"?><svg xmlns="http://www.w3.org/2000/svg" xmlns:xlink="http://www.w3.org/1999/xlink" contentStyleType="text/css" height="314px" preserveAspectRatio="none" style="width:528px;height:314px;background:#FFFFFF;" version="1.1" viewBox="0 0 528 314" width="528px" zoomAndPan="magnify"><defs/><g><!--class Model--><g id="elem_Model"><rect codeLine="1" fill="#F1F1F1" height="48" id="Model" rx="2.5" ry="2.5" style="stroke:#181818;stroke-width:0.5;" width="74" x="83" y="7"/><ellipse cx="98" cy="23" fill="#B4A7E5" rx="11" ry="11" style="stroke:#181818;stroke-width:1.0;"/><path d="M93.9219,18.7656 L93.9219,16.6094 L101.3125,16.6094 L101.3125,18.7656 L98.8438,18.7656 L98.8438,26.8438 L101.3125,26.8438 L101.3125,29 L93.9219,29 L93.9219,26.8438 L96.3906,26.8438 L96.3906,18.7656 L93.9219,18.7656 Z " fill="#000000"/><text fill="#000000" font-family="sans-serif" font-size="14" font-style="italic" lengthAdjust="spacing" textLength="42" x="112" y="27.8467">Model</text><line style="stroke:#181818;stroke-width:0.5;" x1="84" x2="156" y1="39" y2="39"/><line style="stroke:#181818;stroke-width:0.5;" x1="84" x2="156" y1="47" y2="47"/></g><!--class ModelImpl--><g id="elem_ModelImpl"><rect codeLine="2" fill="#F1F1F1" height="48" id="ModelImpl" rx="2.5" ry="2.5" style="stroke:#181818;stroke-width:0.5;" width="102" x="69" y="115"/><ellipse cx="84" cy="131" fill="#ADD1B2" rx="11" ry="11" style="stroke:#181818;stroke-width:1.0;"/><path d="M86.9688,136.6406 Q86.3906,136.9375 85.75,137.0781 Q85.1094,137.2344 84.4063,137.2344 Q81.9063,137.2344 80.5781,135.5938 Q79.2656,133.9375 79.2656,130.8125 Q79.2656,127.6875 80.5781,126.0313 Q81.9063,124.375 84.4063,124.375 Q85.1094,124.375 85.75,124.5313 Q86.4063,124.6875 86.9688,124.9844 L86.9688,127.7031 Q86.3438,127.125 85.75,126.8594 Q85.1563,126.5781 84.5313,126.5781 Q83.1875,126.5781 82.5,127.6563 Q81.8125,128.7188 81.8125,130.8125 Q81.8125,132.9063 82.5,133.9844 Q83.1875,135.0469 84.5313,135.0469 Q85.1563,135.0469 85.75,134.7813 Q86.3438,134.5 86.9688,133.9219 L86.9688,136.6406 Z " fill="#000000"/><text fill="#000000" font-family="sans-serif" font-size="14" lengthAdjust="spacing" textLength="70" x="98" y="135.8467">ModelImpl</text><line style="stroke:#181818;stroke-width:0.5;" x1="70" x2="170" y1="147" y2="147"/><line style="stroke:#181818;stroke-width:0.5;" x1="70" x2="170" y1="155" y2="155"/></g><!--class ModelBuilder--><g id="elem_ModelBuilder"><rect codeLine="3" fill="#F1F1F1" height="80.5938" id="ModelBuilder" rx="2.5" ry="2.5" style="stroke:#181818;stroke-width:0.5;" width="226" x="7" y="227"/><ellipse cx="22" cy="243" fill="#ADD1B2" rx="11" ry="11" style="stroke:#181818;stroke-width:1.0;"/><path d="M24.9688,248.6406 Q24.3906,248.9375 23.75,249.0781 Q23.1094,249.2344 22.4063,249.2344 Q19.9063,249.2344 18.5781,247.5938 Q17.2656,245.9375 17.2656,242.8125 Q17.2656,239.6875 18.5781,238.0313 Q19.9063,236.375 22.4063,236.375 Q23.1094,236.375 23.75,236.5313 Q24.4063,236.6875 24.9688,236.9844 L24.9688,239.7031 Q24.3438,239.125 23.75,238.8594 Q23.1563,238.5781 22.5313,238.5781 Q21.1875,238.5781 20.5,239.6563 Q19.8125,240.7188 19.8125,242.8125 Q19.8125,244.9063 20.5,245.9844 Q21.1875,247.0469 22.5313,247.0469 Q23.1563,247.0469 23.75,246.7813 Q24.3438,246.5 24.9688,245.9219 L24.9688,248.6406 Z " fill="#000000"/><text fill="#000000" font-family="sans-serif" font-size="14" lengthAdjust="spacing" textLength="90" x="36" y="247.8467">ModelBuilder</text><rect fill="#FFFFFF" height="15.9688" style="stroke:#181818;stroke-width:1.0;stroke-dasharray:2.0,2.0;" width="102" x="134" y="224"/><text fill="#000000" font-family="sans-serif" font-size="12" font-style="italic" lengthAdjust="spacing" textLength="100" x="135" y="236.1387">Builder&lt;Model&gt;</text><line style="stroke:#181818;stroke-width:0.5;" x1="8" x2="232" y1="259" y2="259"/><line style="stroke:#181818;stroke-width:0.5;" x1="8" x2="232" y1="267" y2="267"/><text fill="#000000" font-family="sans-serif" font-size="14" lengthAdjust="spacing" textLength="89" x="13" y="283.9951">Model build()</text><text fill="#000000" font-family="sans-serif" font-size="14" lengthAdjust="spacing" textLength="168" x="13" y="300.292">Model buildUnchecked()</text></g><path d="M276.5,242 L276.5,258.1328 L102,279.1484 L276.5,266.1328 L276.5,282.2656 A0,0 0 0 0 276.5,282.2656 L521.5,282.2656 A0,0 0 0 0 521.5,282.2656 L521.5,252 L511.5,242 L276.5,242 A0,0 0 0 0 276.5,242 " fill="#FEFFDD" style="stroke:#181818;stroke-width:0.5;"/><path d="M511.5,242 L511.5,252 L521.5,252 L511.5,242 " fill="#FEFFDD" style="stroke:#181818;stroke-width:0.5;"/><text fill="#000000" font-family="sans-serif" font-size="13" lengthAdjust="spacing" textLength="224" x="282.5" y="259.0669">method checks required properties</text><text fill="#000000" font-family="sans-serif" font-size="13" lengthAdjust="spacing" textLength="91" x="282.5" y="274.1997">have been set</text><!--reverse link Model to ModelImpl--><g id="link_Model_ModelImpl"><path d="M120,73 C120,90.66 120,96.94 120,114.68 " fill="none" id="Model-backto-ModelImpl" style="stroke:#181818;stroke-width:1.0;stroke-dasharray:7.0,7.0;"/><polygon fill="none" points="120,55,114,73,126,73,120,55" style="stroke:#181818;stroke-width:1.0;"/></g><!--reverse link ModelImpl to ModelBuilder--><g id="link_ModelImpl_ModelBuilder"><path codeLine="10" d="M175.0227,166.1032 C198.6627,179.8932 219.46,196.84 233,223 C244.44,245.11 258.89,279 234,279 " fill="none" id="ModelImpl-backto-ModelBuilder" style="stroke:#181818;stroke-width:1.0;"/><polygon fill="#181818" points="169.84,163.08,175.5985,171.07,174.1589,165.5994,179.6295,164.1597,169.84,163.08" style="stroke:#181818;stroke-width:1.0;"/></g><!--reverse link ModelImpl to ModelBuilder--><g id="link_ModelImpl_ModelBuilder"><path codeLine="11" d="M175.0642,166.0806 C198.7142,179.8606 219.51,196.82 233,223 C247.65,251.45 266,295 234,295 " fill="none" id="ModelImpl-backto-ModelBuilder-1" style="stroke:#181818;stroke-width:1.0;"/><polygon fill="#181818" points="169.88,163.06,175.6425,171.0471,174.2002,165.5772,179.67,164.1348,169.88,163.06" style="stroke:#181818;stroke-width:1.0;"/></g><!--SRC=[XO-n3i8m34JtVCMDCFG7AjI1ZO6H3sYJAub8avAuV3yq5Q1A5NYmTVRJwUo2CFMj9ixHq2jet-QyYDCmUhXNuy0WUOCuJiuRfiDxbcNJgDKLzIBHpNgtLmXHYEIkLX3x5LlN1LAOQw3OQA0jzIqZyJwvH8CnnP597FE2sVP1T6H0fYWmcDd_LuPBA9uiORwl7gfgEynVv6Fu1000]--></g></svg>