<?xml version="1.0" encoding="UTF-8" standalone="no"?><svg xmlns="http://www.w3.org/2000/svg" xmlns:xlink="http://www.w3.org/1999/xlink" contentScriptType="application/ecmascript" contentStyleType="text/css" height="314px" preserveAspectRatio="none" style="width:486px;height:314px;background:#FFFFFF;" version="1.1" viewBox="0 0 486 314" width="486px" zoomAndPan="magnify"><defs><filter height="300%" id="f10dlfh0nfw8ro" width="300%" x="-1" y="-1"><feGaussianBlur result="blurOut" stdDeviation="2.0"/><feColorMatrix in="blurOut" result="blurOut2" type="matrix" values="0 0 0 0 0 0 0 0 0 0 0 0 0 0 0 0 0 0 .4 0"/><feOffset dx="4.0" dy="4.0" in="blurOut2" result="blurOut3"/><feBlend in="SourceGraphic" in2="blurOut3" mode="normal"/></filter></defs><g><!--MD5=[7e20e022571e30ec1001cf6eabd7f3e2]
class Model--><rect codeLine="1" fill="#FEFECE" filter="url(#f10dlfh0nfw8ro)" height="48" id="Model" style="stroke:#A80036;stroke-width:1.5;" width="69" x="75.51" y="7"/><ellipse cx="90.51" cy="23" fill="#B4A7E5" rx="11" ry="11" style="stroke:#A80036;stroke-width:1.0;"/><path d="M86.4319,18.7656 L86.4319,16.6094 L93.8225,16.6094 L93.8225,18.7656 L91.3537,18.7656 L91.3537,26.8438 L93.8225,26.8438 L93.8225,29 L86.4319,29 L86.4319,26.8438 L88.9006,26.8438 L88.9006,18.7656 L86.4319,18.7656 Z " fill="#000000"/><text fill="#000000" font-family="sans-serif" font-size="12" font-style="italic" lengthAdjust="spacing" textLength="37" x="104.51" y="27.1543">Model</text><line style="stroke:#A80036;stroke-width:1.5;" x1="76.51" x2="143.51" y1="39" y2="39"/><line style="stroke:#A80036;stroke-width:1.5;" x1="76.51" x2="143.51" y1="47" y2="47"/><!--MD5=[10c9413bfdc2d9a77fb67c7249dcc15c]
class ModelImpl--><rect codeLine="2" fill="#FEFECE" filter="url(#f10dlfh0nfw8ro)" height="48" id="ModelImpl" style="stroke:#A80036;stroke-width:1.5;" width="94" x="63.01" y="115"/><ellipse cx="78.01" cy="131" fill="#ADD1B2" rx="11" ry="11" style="stroke:#A80036;stroke-width:1.0;"/><path d="M80.9787,136.6406 Q80.4006,136.9375 79.76,137.0781 Q79.1194,137.2344 78.4162,137.2344 Q75.9162,137.2344 74.5881,135.5938 Q73.2756,133.9375 73.2756,130.8125 Q73.2756,127.6875 74.5881,126.0313 Q75.9162,124.375 78.4162,124.375 Q79.1194,124.375 79.76,124.5313 Q80.4162,124.6875 80.9787,124.9844 L80.9787,127.7031 Q80.3537,127.125 79.76,126.8594 Q79.1662,126.5781 78.5412,126.5781 Q77.1975,126.5781 76.51,127.6563 Q75.8225,128.7188 75.8225,130.8125 Q75.8225,132.9063 76.51,133.9844 Q77.1975,135.0469 78.5412,135.0469 Q79.1662,135.0469 79.76,134.7813 Q80.3537,134.5 80.9787,133.9219 L80.9787,136.6406 Z " fill="#000000"/><text fill="#000000" font-family="sans-serif" font-size="12" lengthAdjust="spacing" textLength="62" x="92.01" y="135.1543">ModelImpl</text><line style="stroke:#A80036;stroke-width:1.5;" x1="64.01" x2="156.01" y1="147" y2="147"/><line style="stroke:#A80036;stroke-width:1.5;" x1="64.01" x2="156.01" y1="155" y2="155"/><!--MD5=[de853b39a30e94ea5f90241bcbd78441]
class ModelBuilder--><rect codeLine="3" fill="#FEFECE" filter="url(#f10dlfh0nfw8ro)" height="73.6094" id="ModelBuilder" style="stroke:#A80036;stroke-width:1.5;" width="159" x="30.51" y="227"/><ellipse cx="45.51" cy="243" fill="#ADD1B2" rx="11" ry="11" style="stroke:#A80036;stroke-width:1.0;"/><path d="M48.4788,248.6406 Q47.9006,248.9375 47.26,249.0781 Q46.6194,249.2344 45.9163,249.2344 Q43.4163,249.2344 42.0881,247.5938 Q40.7756,245.9375 40.7756,242.8125 Q40.7756,239.6875 42.0881,238.0313 Q43.4163,236.375 45.9163,236.375 Q46.6194,236.375 47.26,236.5313 Q47.9163,236.6875 48.4788,236.9844 L48.4788,239.7031 Q47.8538,239.125 47.26,238.8594 Q46.6663,238.5781 46.0413,238.5781 Q44.6975,238.5781 44.01,239.6563 Q43.3225,240.7188 43.3225,242.8125 Q43.3225,244.9063 44.01,245.9844 Q44.6975,247.0469 46.0413,247.0469 Q46.6663,247.0469 47.26,246.7813 Q47.8538,246.5 48.4788,245.9219 L48.4788,248.6406 Z " fill="#000000"/><text fill="#000000" font-family="sans-serif" font-size="12" lengthAdjust="spacing" textLength="80" x="59.51" y="247.1543">ModelBuilder</text><rect fill="#FFFFFF" height="15.9688" style="stroke:#000000;stroke-width:1.0;stroke-dasharray:2.0,2.0;" width="45" x="147.51" y="224"/><text fill="#000000" font-family="sans-serif" font-size="12" font-style="italic" lengthAdjust="spacing" textLength="43" x="148.51" y="236.1387">Builder</text><line style="stroke:#A80036;stroke-width:1.5;" x1="31.51" x2="188.51" y1="259" y2="259"/><line style="stroke:#A80036;stroke-width:1.5;" x1="31.51" x2="188.51" y1="267" y2="267"/><text fill="#000000" font-family="sans-serif" font-size="11" lengthAdjust="spacing" textLength="72" x="36.51" y="281.2104">Model build()</text><text fill="#000000" font-family="sans-serif" font-size="11" lengthAdjust="spacing" textLength="133" x="36.51" y="294.0151">Model buildUnchecked()</text><path d="M232.51,238 L232.51,254.1328 L108.51,277.4023 L232.51,262.1328 L232.51,278.2656 A0,0 0 0 0 232.51,278.2656 L477.51,278.2656 A0,0 0 0 0 477.51,278.2656 L477.51,248 L467.51,238 L232.51,238 A0,0 0 0 0 232.51,238 " fill="#FBFB77" filter="url(#f10dlfh0nfw8ro)" style="stroke:#A80036;stroke-width:1.0;"/><path d="M467.51,238 L467.51,248 L477.51,248 L467.51,238 " fill="#FBFB77" style="stroke:#A80036;stroke-width:1.0;"/><text fill="#000000" font-family="sans-serif" font-size="13" lengthAdjust="spacing" textLength="224" x="238.51" y="255.0669">method checks required properties</text><text fill="#000000" font-family="sans-serif" font-size="13" lengthAdjust="spacing" textLength="91" x="238.51" y="270.1997">have been set</text><!--MD5=[61d36bb176d7a8f6fd41f33c4b39dac7]
reverse link Model to ModelImpl--><path d="M110.01,75.02 C110.01,88.58 110.01,103.04 110.01,114.68 " fill="none" id="Model-backto-ModelImpl" style="stroke:#A80036;stroke-width:1.0;stroke-dasharray:7.0,7.0;"/><polygon fill="none" points="103.01,75,110.01,55,117.01,75,103.01,75" style="stroke:#A80036;stroke-width:1.0;"/><!--MD5=[3798fc5ce910b94ddc1aa8e1918e89d6]
link ModelBuilder to ModelBuilder$$$RIGHT--><!--MD5=[4d5573c7ff1a5baf1874a02b6ea8d556]
reverse link ModelImpl to ModelBuilder--><path codeLine="10" d="M74.42,166.75 C57.95,181.35 40.06,200.95 31.01,223 C21.89,245.21 6,277 30.01,277 " fill="none" id="ModelImpl-backto-ModelBuilder" style="stroke:#A80036;stroke-width:1.0;"/><polygon fill="#A80036" points="78.57,163.14,69.1503,166.0157,74.793,166.4163,74.3924,172.0589,78.57,163.14" style="stroke:#A80036;stroke-width:1.0;"/><!--MD5=[4d5573c7ff1a5baf1874a02b6ea8d556]
reverse link ModelImpl to ModelBuilder--><path codeLine="11" d="M110.01,168.52 C110.01,184.6 110.01,204.93 110.01,222.53 " fill="none" id="ModelImpl-backto-ModelBuilder-1" style="stroke:#A80036;stroke-width:1.0;"/><polygon fill="#A80036" points="110.01,163.23,106.01,172.23,110.01,168.23,114.01,172.23,110.01,163.23" style="stroke:#A80036;stroke-width:1.0;"/><!--MD5=[b827fbafbda21658a3d2cb85fcc485da]
@startuml
interface Model
 class ModelImpl implements Model
 class ModelBuilder<Builder>
 ModelBuilder : Model build()
 note right of ModelBuilder::build
     method checks required properties
     have been set
 endnote
 ModelBuilder : Model buildUnchecked()
 ModelImpl <- - ModelBuilder::build
 ModelImpl <- - ModelBuilder::buildUnchecked
@enduml

PlantUML version 1.2022.0(Tue Jan 11 16:16:42 UTC 2022)
(GPL source distribution)
Java Runtime: OpenJDK Runtime Environment
JVM: OpenJDK 64-Bit Server VM
Default Encoding: UTF-8
Language: en
Country: null
--></g></svg>