<?xml version="1.0" encoding="us-ascii" standalone="no"?><svg xmlns="http://www.w3.org/2000/svg" xmlns:xlink="http://www.w3.org/1999/xlink" contentStyleType="text/css" height="314px" preserveAspectRatio="none" style="width:519px;height:314px;background:#FFFFFF;" version="1.1" viewBox="0 0 519 314" width="519px" zoomAndPan="magnify"><defs/><g><!--class Model--><g id="elem_Model"><rect codeLine="1" fill="#F1F1F1" height="48" id="Model" rx="2.5" ry="2.5" style="stroke:#181818;stroke-width:0.5;" width="74" x="80.5" y="7"/><ellipse cx="95.5" cy="23" fill="#B4A7E5" rx="11" ry="11" style="stroke:#181818;stroke-width:1.0;"/><path d="M91.9277,19.2651 L91.9277,17.1069 L99.3071,17.1069 L99.3071,19.2651 L96.8418,19.2651 L96.8418,27.3418 L99.3071,27.3418 L99.3071,29.5 L91.9277,29.5 L91.9277,27.3418 L94.3931,27.3418 L94.3931,19.2651 Z " fill="#000000"/><text fill="#000000" font-family="sans-serif" font-size="14" font-style="italic" lengthAdjust="spacing" textLength="42" x="109.5" y="28.291">Model</text><line style="stroke:#181818;stroke-width:0.5;" x1="81.5" x2="153.5" y1="39" y2="39"/><line style="stroke:#181818;stroke-width:0.5;" x1="81.5" x2="153.5" y1="47" y2="47"/></g><!--class ModelImpl--><g id="elem_ModelImpl"><rect codeLine="2" fill="#F1F1F1" height="48" id="ModelImpl" rx="2.5" ry="2.5" style="stroke:#181818;stroke-width:0.5;" width="104" x="65.5" y="115"/><ellipse cx="80.5" cy="131" fill="#ADD1B2" rx="11" ry="11" style="stroke:#181818;stroke-width:1.0;"/><path d="M82.9731,137.1431 Q82.3921,137.4419 81.7529,137.5913 Q81.1138,137.7407 80.4082,137.7407 Q77.9014,137.7407 76.5815,136.0889 Q75.2617,134.437 75.2617,131.3159 Q75.2617,128.1865 76.5815,126.5347 Q77.9014,124.8828 80.4082,124.8828 Q81.1138,124.8828 81.7612,125.0322 Q82.4087,125.1816 82.9731,125.4805 L82.9731,128.2031 Q82.3423,127.6221 81.7488,127.3523 Q81.1553,127.0825 80.5244,127.0825 Q79.1797,127.0825 78.4949,128.1492 Q77.8101,129.2158 77.8101,131.3159 Q77.8101,133.4077 78.4949,134.4744 Q79.1797,135.541 80.5244,135.541 Q81.1553,135.541 81.7488,135.2712 Q82.3423,135.0015 82.9731,134.4204 Z " fill="#000000"/><text fill="#000000" font-family="sans-serif" font-size="14" lengthAdjust="spacing" textLength="72" x="94.5" y="136.291">ModelImpl</text><line style="stroke:#181818;stroke-width:0.5;" x1="66.5" x2="168.5" y1="147" y2="147"/><line style="stroke:#181818;stroke-width:0.5;" x1="66.5" x2="168.5" y1="155" y2="155"/></g><!--class ModelBuilder--><g id="elem_ModelBuilder"><rect codeLine="3" fill="#F1F1F1" height="80.9766" id="ModelBuilder" rx="2.5" ry="2.5" style="stroke:#181818;stroke-width:0.5;" width="221" x="7" y="227"/><ellipse cx="22" cy="243" fill="#ADD1B2" rx="11" ry="11" style="stroke:#181818;stroke-width:1.0;"/><path d="M24.4731,249.1431 Q23.8921,249.4419 23.2529,249.5913 Q22.6138,249.7407 21.9082,249.7407 Q19.4014,249.7407 18.0815,248.0889 Q16.7617,246.437 16.7617,243.3159 Q16.7617,240.1865 18.0815,238.5347 Q19.4014,236.8828 21.9082,236.8828 Q22.6138,236.8828 23.2612,237.0322 Q23.9087,237.1816 24.4731,237.4805 L24.4731,240.2031 Q23.8423,239.6221 23.2488,239.3523 Q22.6553,239.0825 22.0244,239.0825 Q20.6797,239.0825 19.9949,240.1492 Q19.3101,241.2158 19.3101,243.3159 Q19.3101,245.4077 19.9949,246.4744 Q20.6797,247.541 22.0244,247.541 Q22.6553,247.541 23.2488,247.2712 Q23.8423,247.0015 24.4731,246.4204 Z " fill="#000000"/><text fill="#000000" font-family="sans-serif" font-size="14" lengthAdjust="spacing" textLength="90" x="36" y="248.291">ModelBuilder</text><rect fill="#FFFFFF" height="16.1328" style="stroke:#181818;stroke-width:1.0;stroke-dasharray:2.0,2.0;" width="97" x="134" y="224"/><text fill="#000000" font-family="sans-serif" font-size="12" font-style="italic" lengthAdjust="spacing" textLength="95" x="135" y="236.6016">Builder&lt;Model&gt;</text><line style="stroke:#181818;stroke-width:0.5;" x1="8" x2="227" y1="259" y2="259"/><line style="stroke:#181818;stroke-width:0.5;" x1="8" x2="227" y1="267" y2="267"/><text fill="#000000" font-family="sans-serif" font-size="14" lengthAdjust="spacing" textLength="91" x="13" y="284.5352">Model build()</text><text fill="#000000" font-family="sans-serif" font-size="14" lengthAdjust="spacing" textLength="166" x="13" y="301.0234">Model buildUnchecked()</text></g><path d="M271,241.69 L271,258.0005 L104,279.2441 L271,266.0005 L271,282.3111 A0,0 0 0 0 271,282.3111 L512,282.3111 A0,0 0 0 0 512,282.3111 L512,251.69 L502,241.69 L271,241.69 A0,0 0 0 0 271,241.69 " fill="#FEFFDD" style="stroke:#181818;stroke-width:0.5;"/><path d="M502,241.69 L502,251.69 L512,251.69 L502,241.69 " fill="#FEFFDD" style="stroke:#181818;stroke-width:0.5;"/><text fill="#000000" font-family="sans-serif" font-size="13" lengthAdjust="spacing" textLength="220" x="277" y="259.2584">method checks required properties</text><text fill="#000000" font-family="sans-serif" font-size="13" lengthAdjust="spacing" textLength="86" x="277" y="274.5689">have been set</text><!--reverse link Model to ModelImpl--><g id="link_Model_ModelImpl"><path d="M117.5,76.24 C117.5,89.48 117.5,103.48 117.5,114.79 " fill="none" id="Model-backto-ModelImpl" style="stroke:#181818;stroke-width:1.0;stroke-dasharray:7.0,7.0;"/><polygon fill="none" points="110.5,76.26,117.5,56.26,124.5,76.26,110.5,76.26" style="stroke:#181818;stroke-width:1.0;"/></g><!--reverse link ModelImpl to ModelBuilder--><g id="link_ModelImpl_ModelBuilder"><path codeLine="10" d="M171.68,166.46 C193.42,180.12 216.21,199.01 228.5,223 C239.85,245.16 254.39,279 229.5,279 " fill="none" id="ModelImpl-backto-ModelBuilder" style="stroke:#181818;stroke-width:1.0;"/><polygon fill="#181818" points="167.76,163.45,173.3483,171.56,172.0246,166.0601,177.5245,164.7365,167.76,163.45" style="stroke:#181818;stroke-width:1.0;"/></g><!--reverse link ModelImpl to ModelBuilder--><g id="link_ModelImpl_ModelBuilder"><path codeLine="11" d="M171.72,166.44 C193.48,180.09 216.26,198.98 228.5,223 C243.03,251.51 261.5,295 229.5,295 " fill="none" id="ModelImpl-backto-ModelBuilder-1" style="stroke:#181818;stroke-width:1.0;"/><polygon fill="#181818" points="167.81,163.43,173.3861,171.5483,172.0707,166.0465,177.5725,164.7311,167.81,163.43" style="stroke:#181818;stroke-width:1.0;"/></g><!--SRC=[XO-n3i8m34JtVCMDCFG7AjI1ZO6H3sYJAub8avAuV3yq5Q1A5NYmTVRJwUo2CFMj9ixHq2jet-QyYDCmUhXNuy0WUOCuJiuRfiDxbcNJgDKLzIBHpNgtLmXHYEIkLX3x5LlN1LAOQw3OQA0jzIqZyJwvH8CnnP597FE2sVP1T6H0fYWmcDd_LuPBA9uiORwl7gfgEynVv6Fu1000]--></g></svg>