<svg xmlns="http://www.w3.org/2000/svg" xmlns:xlink="http://www.w3.org/1999/xlink" contentStyleType="text/css" height="314px" preserveAspectRatio="none" style="width:533px;height:314px;background:#FFFFFF;" version="1.1" viewBox="0 0 533 314" width="533px" zoomAndPan="magnify"><defs/><g><!--class Model--><g id="elem_Model"><rect codeLine="1" fill="#F1F1F1" height="48" id="Model" rx="2.5" ry="2.5" style="stroke:#181818;stroke-width:0.5;" width="74.0342" x="83" y="7"/><ellipse cx="98" cy="23" fill="#B4A7E5" rx="11" ry="11" style="stroke:#181818;stroke-width:1;"/><path d="M93.9219,18.7656 L93.9219,16.6094 L101.3125,16.6094 L101.3125,18.7656 L98.8438,18.7656 L98.8438,26.8438 L101.3125,26.8438 L101.3125,29 L93.9219,29 L93.9219,26.8438 L96.3906,26.8438 L96.3906,18.7656 L93.9219,18.7656 Z " fill="#000000"/><text fill="#000000" font-family="sans-serif" font-size="14" font-style="italic" lengthAdjust="spacing" textLength="42.0342" x="112" y="27.8467">Model</text><line style="stroke:#181818;stroke-width:0.5;" x1="84" x2="156.0342" y1="39" y2="39"/><line style="stroke:#181818;stroke-width:0.5;" x1="84" x2="156.0342" y1="47" y2="47"/></g><!--class ModelImpl--><g id="elem_ModelImpl"><rect codeLine="2" fill="#F1F1F1" height="48" id="ModelImpl" rx="2.5" ry="2.5" style="stroke:#181818;stroke-width:0.5;" width="104.5771" x="67.5" y="115"/><ellipse cx="82.5" cy="131" fill="#ADD1B2" rx="11" ry="11" style="stroke:#181818;stroke-width:1;"/><path d="M85.4688,136.6406 Q84.8906,136.9375 84.25,137.0781 Q83.6094,137.2344 82.9063,137.2344 Q80.4063,137.2344 79.0781,135.5938 Q77.7656,133.9375 77.7656,130.8125 Q77.7656,127.6875 79.0781,126.0313 Q80.4063,124.375 82.9063,124.375 Q83.6094,124.375 84.25,124.5313 Q84.9063,124.6875 85.4688,124.9844 L85.4688,127.7031 Q84.8438,127.125 84.25,126.8594 Q83.6563,126.5781 83.0313,126.5781 Q81.6875,126.5781 81,127.6563 Q80.3125,128.7188 80.3125,130.8125 Q80.3125,132.9063 81,133.9844 Q81.6875,135.0469 83.0313,135.0469 Q83.6563,135.0469 84.25,134.7813 Q84.8438,134.5 85.4688,133.9219 L85.4688,136.6406 Z " fill="#000000"/><text fill="#000000" font-family="sans-serif" font-size="14" lengthAdjust="spacing" textLength="72.5771" x="96.5" y="135.8467">ModelImpl</text><line style="stroke:#181818;stroke-width:0.5;" x1="68.5" x2="171.0771" y1="147" y2="147"/><line style="stroke:#181818;stroke-width:0.5;" x1="68.5" x2="171.0771" y1="155" y2="155"/></g><!--class ModelBuilder--><g id="elem_ModelBuilder"><rect codeLine="3" fill="#F1F1F1" height="80.5938" id="ModelBuilder" rx="2.5" ry="2.5" style="stroke:#181818;stroke-width:0.5;" width="226.125" x="7" y="227"/><ellipse cx="22" cy="243" fill="#ADD1B2" rx="11" ry="11" style="stroke:#181818;stroke-width:1;"/><path d="M24.9688,248.6406 Q24.3906,248.9375 23.75,249.0781 Q23.1094,249.2344 22.4063,249.2344 Q19.9063,249.2344 18.5781,247.5938 Q17.2656,245.9375 17.2656,242.8125 Q17.2656,239.6875 18.5781,238.0313 Q19.9063,236.375 22.4063,236.375 Q23.1094,236.375 23.75,236.5313 Q24.4063,236.6875 24.9688,236.9844 L24.9688,239.7031 Q24.3438,239.125 23.75,238.8594 Q23.1563,238.5781 22.5313,238.5781 Q21.1875,238.5781 20.5,239.6563 Q19.8125,240.7188 19.8125,242.8125 Q19.8125,244.9063 20.5,245.9844 Q21.1875,247.0469 22.5313,247.0469 Q23.1563,247.0469 23.75,246.7813 Q24.3438,246.5 24.9688,245.9219 L24.9688,248.6406 Z " fill="#000000"/><text fill="#000000" font-family="sans-serif" font-size="14" lengthAdjust="spacing" textLength="91.5469" x="36" y="247.8467">ModelBuilder</text><rect fill="#FFFFFF" height="15.9688" style="stroke:#181818;stroke-width:1;stroke-dasharray:2.0,2.0;" width="100.5781" x="135.5469" y="224"/><text fill="#000000" font-family="sans-serif" font-size="12" font-style="italic" lengthAdjust="spacing" textLength="98.5781" x="136.5469" y="236.1387">Builder&lt;Model&gt;</text><line style="stroke:#181818;stroke-width:0.5;" x1="8" x2="232.125" y1="259" y2="259"/><line style="stroke:#181818;stroke-width:0.5;" x1="8" x2="232.125" y1="267" y2="267"/><text fill="#000000" font-family="sans-serif" font-size="14" lengthAdjust="spacing" textLength="91.834" x="13" y="283.9951">Model build()</text><text fill="#000000" font-family="sans-serif" font-size="14" lengthAdjust="spacing" textLength="169.4424" x="13" y="300.292">Model buildUnchecked()</text></g><path d="M276,242 L276,258.1328 L104.834,279.1484 L276,266.1328 L276,282.2656 A0,0 0 0 0 276,282.2656 L526.0996,282.2656 A0,0 0 0 0 526.0996,282.2656 L526.0996,252 L516.0996,242 L276,242 A0,0 0 0 0 276,242 " fill="#FEFFDD" style="stroke:#181818;stroke-width:0.5;"/><path d="M516.0996,242 L516.0996,252 L526.0996,252 L516.0996,242 " fill="#FEFFDD" style="stroke:#181818;stroke-width:0.5;"/><text fill="#000000" font-family="sans-serif" font-size="13" lengthAdjust="spacing" textLength="229.0996" x="282" y="259.0669">method checks required properties</text><text fill="#000000" font-family="sans-serif" font-size="13" lengthAdjust="spacing" textLength="92.5171" x="282" y="274.1997">have been set</text><!--reverse link Model to ModelImpl--><g id="link_Model_ModelImpl"><path d="M120,73 C120,90.66 120,96.94 120,114.68 " fill="none" id="Model-backto-ModelImpl" style="stroke:#181818;stroke-width:1;stroke-dasharray:7.0,7.0;"/><polygon fill="none" points="120,55,114,73,126,73,120,55" style="stroke:#181818;stroke-width:1;"/></g><!--reverse link ModelImpl to ModelBuilder--><g id="link_ModelImpl_ModelBuilder"><path codeLine="10" d="M175.0227,166.1032 C198.6627,179.8932 219.46,196.84 233,223 C244.44,245.11 258.89,279 234,279 " fill="none" id="ModelImpl-backto-ModelBuilder" style="stroke:#181818;stroke-width:1;"/><polygon fill="#181818" points="169.84,163.08,175.5985,171.07,174.1589,165.5994,179.6295,164.1597,169.84,163.08" style="stroke:#181818;stroke-width:1;"/></g><!--reverse link ModelImpl to ModelBuilder--><g id="link_ModelImpl_ModelBuilder"><path codeLine="11" d="M175.0642,166.0806 C198.7142,179.8606 219.51,196.82 233,223 C247.65,251.45 266,295 234,295 " fill="none" id="ModelImpl-backto-ModelBuilder-1" style="stroke:#181818;stroke-width:1;"/><polygon fill="#181818" points="169.88,163.06,175.6425,171.0471,174.2002,165.5772,179.67,164.1348,169.88,163.06" style="stroke:#181818;stroke-width:1;"/></g><!--SRC=[XO-n3i8m34JtVCMDCFG7AjI1ZO6H3sYJAub8avAuV3yq5Q1A5NYmTVRJwUo2CFMj9ixHq2jet-QyYDCmUhXNuy0WUOCuJiuRfiDxbcNJgDKLzIBHpNgtLmXHYEIkLX3x5LlN1LAOQw3OQA0jzIqZyJwvH8CnnP597FE2sVP1T6H0fYWmcDd_LuPBA9uiORwl7gfgEynVv6Fu1000]--></g></svg>