<?xml version="1.0" encoding="UTF-8" standalone="no"?><svg xmlns="http://www.w3.org/2000/svg" xmlns:xlink="http://www.w3.org/1999/xlink" contentStyleType="text/css" height="314px" preserveAspectRatio="none" style="width:482px;height:314px;background:#FFFFFF;" version="1.1" viewBox="0 0 482 314" width="482px" zoomAndPan="magnify"><defs/><g><!--MD5=[7e20e022571e30ec1001cf6eabd7f3e2]
class Model--><g id="elem_Model"><rect codeLine="1" fill="#F1F1F1" height="48" id="Model" rx="2.5" ry="2.5" style="stroke:#181818;stroke-width:0.5;" width="74" x="60" y="7"/><ellipse cx="75" cy="23" fill="#B4A7E5" rx="11" ry="11" style="stroke:#181818;stroke-width:1.0;"/><path d="M70.9219,18.7656 L70.9219,16.6094 L78.3125,16.6094 L78.3125,18.7656 L75.8438,18.7656 L75.8438,26.8438 L78.3125,26.8438 L78.3125,29 L70.9219,29 L70.9219,26.8438 L73.3906,26.8438 L73.3906,18.7656 L70.9219,18.7656 Z " fill="#000000"/><text fill="#000000" font-family="sans-serif" font-size="14" font-style="italic" lengthAdjust="spacing" textLength="42" x="89" y="27.8467">Model</text><line style="stroke:#181818;stroke-width:0.5;" x1="61" x2="133" y1="39" y2="39"/><line style="stroke:#181818;stroke-width:0.5;" x1="61" x2="133" y1="47" y2="47"/></g><!--MD5=[10c9413bfdc2d9a77fb67c7249dcc15c]
class ModelImpl--><g id="elem_ModelImpl"><rect codeLine="2" fill="#F1F1F1" height="48" id="ModelImpl" rx="2.5" ry="2.5" style="stroke:#181818;stroke-width:0.5;" width="102" x="46" y="115"/><ellipse cx="61" cy="131" fill="#ADD1B2" rx="11" ry="11" style="stroke:#181818;stroke-width:1.0;"/><path d="M63.9688,136.6406 Q63.3906,136.9375 62.75,137.0781 Q62.1094,137.2344 61.4063,137.2344 Q58.9063,137.2344 57.5781,135.5938 Q56.2656,133.9375 56.2656,130.8125 Q56.2656,127.6875 57.5781,126.0313 Q58.9063,124.375 61.4063,124.375 Q62.1094,124.375 62.75,124.5313 Q63.4063,124.6875 63.9688,124.9844 L63.9688,127.7031 Q63.3438,127.125 62.75,126.8594 Q62.1563,126.5781 61.5313,126.5781 Q60.1875,126.5781 59.5,127.6563 Q58.8125,128.7188 58.8125,130.8125 Q58.8125,132.9063 59.5,133.9844 Q60.1875,135.0469 61.5313,135.0469 Q62.1563,135.0469 62.75,134.7813 Q63.3438,134.5 63.9688,133.9219 L63.9688,136.6406 Z " fill="#000000"/><text fill="#000000" font-family="sans-serif" font-size="14" lengthAdjust="spacing" textLength="70" x="75" y="135.8467">ModelImpl</text><line style="stroke:#181818;stroke-width:0.5;" x1="47" x2="147" y1="147" y2="147"/><line style="stroke:#181818;stroke-width:0.5;" x1="47" x2="147" y1="155" y2="155"/></g><!--MD5=[de853b39a30e94ea5f90241bcbd78441]
class ModelBuilder--><g id="elem_ModelBuilder"><rect codeLine="3" fill="#F1F1F1" height="80.5938" id="ModelBuilder" rx="2.5" ry="2.5" style="stroke:#181818;stroke-width:0.5;" width="180" x="7" y="227"/><ellipse cx="26.95" cy="243" fill="#ADD1B2" rx="11" ry="11" style="stroke:#181818;stroke-width:1.0;"/><path d="M29.9188,248.6406 Q29.3406,248.9375 28.7,249.0781 Q28.0594,249.2344 27.3563,249.2344 Q24.8563,249.2344 23.5281,247.5938 Q22.2156,245.9375 22.2156,242.8125 Q22.2156,239.6875 23.5281,238.0313 Q24.8563,236.375 27.3563,236.375 Q28.0594,236.375 28.7,236.5313 Q29.3563,236.6875 29.9188,236.9844 L29.9188,239.7031 Q29.2938,239.125 28.7,238.8594 Q28.1063,238.5781 27.4813,238.5781 Q26.1375,238.5781 25.45,239.6563 Q24.7625,240.7188 24.7625,242.8125 Q24.7625,244.9063 25.45,245.9844 Q26.1375,247.0469 27.4813,247.0469 Q28.1063,247.0469 28.7,246.7813 Q29.2938,246.5 29.9188,245.9219 L29.9188,248.6406 Z " fill="#000000"/><text fill="#000000" font-family="sans-serif" font-size="14" lengthAdjust="spacing" textLength="90" x="42.05" y="247.8467">ModelBuilder</text><rect fill="#FFFFFF" height="15.9688" style="stroke:#181818;stroke-width:1.0;stroke-dasharray:2.0,2.0;" width="45" x="145" y="224"/><text fill="#000000" font-family="sans-serif" font-size="12" font-style="italic" lengthAdjust="spacing" textLength="43" x="146" y="236.1387">Builder</text><line style="stroke:#181818;stroke-width:0.5;" x1="8" x2="186" y1="259" y2="259"/><line style="stroke:#181818;stroke-width:0.5;" x1="8" x2="186" y1="267" y2="267"/><text fill="#000000" font-family="sans-serif" font-size="14" lengthAdjust="spacing" textLength="89" x="13" y="283.9951">Model build()</text><text fill="#000000" font-family="sans-serif" font-size="14" lengthAdjust="spacing" textLength="168" x="13" y="300.292">Model buildUnchecked()</text></g><path d="M230.5,242 L230.5,258.1328 L102,279.1484 L230.5,266.1328 L230.5,282.2656 A0,0 0 0 0 230.5,282.2656 L475.5,282.2656 A0,0 0 0 0 475.5,282.2656 L475.5,252 L465.5,242 L230.5,242 A0,0 0 0 0 230.5,242 " fill="#FEFFDD" style="stroke:#181818;stroke-width:0.5;"/><path d="M465.5,242 L465.5,252 L475.5,252 L465.5,242 " fill="#FEFFDD" style="stroke:#181818;stroke-width:0.5;"/><text fill="#000000" font-family="sans-serif" font-size="13" lengthAdjust="spacing" textLength="224" x="236.5" y="259.0669">method checks required properties</text><text fill="#000000" font-family="sans-serif" font-size="13" lengthAdjust="spacing" textLength="91" x="236.5" y="274.1997">have been set</text><!--MD5=[61d36bb176d7a8f6fd41f33c4b39dac7]
reverse link Model to ModelImpl--><g id="link_Model_ModelImpl"><path d="M97,75.02 C97,88.58 97,103.04 97,114.68 " fill="none" id="Model-backto-ModelImpl" style="stroke:#181818;stroke-width:1.0;stroke-dasharray:7.0,7.0;"/><polygon fill="none" points="90,75,97,55,104,75,90,75" style="stroke:#181818;stroke-width:1.0;"/></g><!--MD5=[4d5573c7ff1a5baf1874a02b6ea8d556]
reverse link ModelImpl to ModelBuilder--><g id="link_ModelImpl_ModelBuilder"><path codeLine="10" d="M138.28,166.38 C156.78,180.67 176.72,200.1 187,223 C197.19,245.71 212.89,279 188,279 " fill="none" id="ModelImpl-backto-ModelBuilder" style="stroke:#181818;stroke-width:1.0;"/><polygon fill="#181818" points="134.11,163.23,138.8755,171.8491,138.098,166.246,143.7011,165.4684,134.11,163.23" style="stroke:#181818;stroke-width:1.0;"/></g><!--MD5=[4d5573c7ff1a5baf1874a02b6ea8d556]
reverse link ModelImpl to ModelBuilder--><g id="link_ModelImpl_ModelBuilder"><path codeLine="11" d="M138.32,166.36 C156.83,180.65 176.77,200.08 187,223 C200.05,252.22 220,295 188,295 " fill="none" id="ModelImpl-backto-ModelBuilder-1" style="stroke:#181818;stroke-width:1.0;"/><polygon fill="#181818" points="134.15,163.21,138.9155,171.8291,138.138,166.226,143.7411,165.4484,134.15,163.21" style="stroke:#181818;stroke-width:1.0;"/></g><!--MD5=[dcaa29b274582deb4d85c7de10572090]
@startuml
interface Model
 class ModelImpl implements Model
 class ModelBuilder<Builder>
 ModelBuilder : Model build()
 note right of ModelBuilder::build
     method checks required properties
     have been set
 endnote
 ModelBuilder : Model buildUnchecked()
 ModelImpl <- - ModelBuilder::build
 ModelImpl <- - ModelBuilder::buildUnchecked
@enduml

PlantUML version 1.2022.12(Sun Oct 23 18:12:26 UTC 2022)
(GPL source distribution)
Java Runtime: OpenJDK Runtime Environment
JVM: OpenJDK 64-Bit Server VM
Default Encoding: UTF-8
Language: en
Country: null
--></g></svg>