<?xml version="1.0" encoding="UTF-8" standalone="no"?><svg xmlns="http://www.w3.org/2000/svg" xmlns:xlink="http://www.w3.org/1999/xlink" contentScriptType="application/ecmascript" contentStyleType="text/css" height="314px" preserveAspectRatio="none" style="width:463px;height:314px;background:#FFFFFF;" version="1.1" viewBox="0 0 463 314" width="463px" zoomAndPan="magnify"><defs><filter height="300%" id="f10dlfh0nfw8ro" width="300%" x="-1" y="-1"><feGaussianBlur result="blurOut" stdDeviation="2.0"/><feColorMatrix in="blurOut" result="blurOut2" type="matrix" values="0 0 0 0 0 0 0 0 0 0 0 0 0 0 0 0 0 0 .4 0"/><feOffset dx="4.0" dy="4.0" in="blurOut2" result="blurOut3"/><feBlend in="SourceGraphic" in2="blurOut3" mode="normal"/></filter></defs><g><!--MD5=[7e20e022571e30ec1001cf6eabd7f3e2]
class Model--><rect codeLine="1" fill="#FEFECE" filter="url(#f10dlfh0nfw8ro)" height="48" id="Model" style="stroke:#A80036;stroke-width:1.5;" width="69" x="53" y="7"/><ellipse cx="68" cy="23" fill="#B4A7E5" rx="11" ry="11" style="stroke:#A80036;stroke-width:1.0;"/><path d="M63.9219,18.7656 L63.9219,16.6094 L71.3125,16.6094 L71.3125,18.7656 L68.8438,18.7656 L68.8438,26.8438 L71.3125,26.8438 L71.3125,29 L63.9219,29 L63.9219,26.8438 L66.3906,26.8438 L66.3906,18.7656 L63.9219,18.7656 Z " fill="#000000"/><text fill="#000000" font-family="sans-serif" font-size="12" font-style="italic" lengthAdjust="spacing" textLength="37" x="82" y="27.1543">Model</text><line style="stroke:#A80036;stroke-width:1.5;" x1="54" x2="121" y1="39" y2="39"/><line style="stroke:#A80036;stroke-width:1.5;" x1="54" x2="121" y1="47" y2="47"/><!--MD5=[10c9413bfdc2d9a77fb67c7249dcc15c]
class ModelImpl--><rect codeLine="2" fill="#FEFECE" filter="url(#f10dlfh0nfw8ro)" height="48" id="ModelImpl" style="stroke:#A80036;stroke-width:1.5;" width="94" x="40.5" y="115"/><ellipse cx="55.5" cy="131" fill="#ADD1B2" rx="11" ry="11" style="stroke:#A80036;stroke-width:1.0;"/><path d="M58.4688,136.6406 Q57.8906,136.9375 57.25,137.0781 Q56.6094,137.2344 55.9063,137.2344 Q53.4063,137.2344 52.0781,135.5938 Q50.7656,133.9375 50.7656,130.8125 Q50.7656,127.6875 52.0781,126.0313 Q53.4063,124.375 55.9063,124.375 Q56.6094,124.375 57.25,124.5313 Q57.9063,124.6875 58.4688,124.9844 L58.4688,127.7031 Q57.8438,127.125 57.25,126.8594 Q56.6563,126.5781 56.0313,126.5781 Q54.6875,126.5781 54,127.6563 Q53.3125,128.7188 53.3125,130.8125 Q53.3125,132.9063 54,133.9844 Q54.6875,135.0469 56.0313,135.0469 Q56.6563,135.0469 57.25,134.7813 Q57.8438,134.5 58.4688,133.9219 L58.4688,136.6406 Z " fill="#000000"/><text fill="#000000" font-family="sans-serif" font-size="12" lengthAdjust="spacing" textLength="62" x="69.5" y="135.1543">ModelImpl</text><line style="stroke:#A80036;stroke-width:1.5;" x1="41.5" x2="133.5" y1="147" y2="147"/><line style="stroke:#A80036;stroke-width:1.5;" x1="41.5" x2="133.5" y1="155" y2="155"/><!--MD5=[de853b39a30e94ea5f90241bcbd78441]
class ModelBuilder--><rect codeLine="3" fill="#FEFECE" filter="url(#f10dlfh0nfw8ro)" height="73.6094" id="ModelBuilder" style="stroke:#A80036;stroke-width:1.5;" width="159" x="7" y="227"/><ellipse cx="22" cy="243" fill="#ADD1B2" rx="11" ry="11" style="stroke:#A80036;stroke-width:1.0;"/><path d="M24.9688,248.6406 Q24.3906,248.9375 23.75,249.0781 Q23.1094,249.2344 22.4063,249.2344 Q19.9063,249.2344 18.5781,247.5938 Q17.2656,245.9375 17.2656,242.8125 Q17.2656,239.6875 18.5781,238.0313 Q19.9063,236.375 22.4063,236.375 Q23.1094,236.375 23.75,236.5313 Q24.4063,236.6875 24.9688,236.9844 L24.9688,239.7031 Q24.3438,239.125 23.75,238.8594 Q23.1563,238.5781 22.5313,238.5781 Q21.1875,238.5781 20.5,239.6563 Q19.8125,240.7188 19.8125,242.8125 Q19.8125,244.9063 20.5,245.9844 Q21.1875,247.0469 22.5313,247.0469 Q23.1563,247.0469 23.75,246.7813 Q24.3438,246.5 24.9688,245.9219 L24.9688,248.6406 Z " fill="#000000"/><text fill="#000000" font-family="sans-serif" font-size="12" lengthAdjust="spacing" textLength="80" x="36" y="247.1543">ModelBuilder</text><rect fill="#FFFFFF" height="15.9688" style="stroke:#000000;stroke-width:1.0;stroke-dasharray:2.0,2.0;" width="45" x="124" y="224"/><text fill="#000000" font-family="sans-serif" font-size="12" font-style="italic" lengthAdjust="spacing" textLength="43" x="125" y="236.1387">Builder</text><line style="stroke:#A80036;stroke-width:1.5;" x1="8" x2="165" y1="259" y2="259"/><line style="stroke:#A80036;stroke-width:1.5;" x1="8" x2="165" y1="267" y2="267"/><text fill="#000000" font-family="sans-serif" font-size="11" lengthAdjust="spacing" textLength="72" x="13" y="281.2104">Model build()</text><text fill="#000000" font-family="sans-serif" font-size="11" lengthAdjust="spacing" textLength="133" x="13" y="294.0151">Model buildUnchecked()</text><path d="M209,238 L209,254.1328 L85,277.4023 L209,262.1328 L209,278.2656 A0,0 0 0 0 209,278.2656 L454,278.2656 A0,0 0 0 0 454,278.2656 L454,248 L444,238 L209,238 A0,0 0 0 0 209,238 " fill="#FBFB77" filter="url(#f10dlfh0nfw8ro)" style="stroke:#A80036;stroke-width:1.0;"/><path d="M444,238 L444,248 L454,248 L444,238 " fill="#FBFB77" style="stroke:#A80036;stroke-width:1.0;"/><text fill="#000000" font-family="sans-serif" font-size="13" lengthAdjust="spacing" textLength="224" x="215" y="255.0669">method checks required properties</text><text fill="#000000" font-family="sans-serif" font-size="13" lengthAdjust="spacing" textLength="91" x="215" y="270.1997">have been set</text><!--MD5=[61d36bb176d7a8f6fd41f33c4b39dac7]
reverse link Model to ModelImpl--><path d="M87.5,75.02 C87.5,88.58 87.5,103.04 87.5,114.68 " fill="none" id="Model-backto-ModelImpl" style="stroke:#A80036;stroke-width:1.0;stroke-dasharray:7.0,7.0;"/><polygon fill="none" points="80.5,75,87.5,55,94.5,75,80.5,75" style="stroke:#A80036;stroke-width:1.0;"/><!--MD5=[3798fc5ce910b94ddc1aa8e1918e89d6]
link ModelBuilder to ModelBuilder$$$RIGHT--><!--MD5=[4d5573c7ff1a5baf1874a02b6ea8d556]
reverse link ModelImpl to ModelBuilder--><path codeLine="10" d="M123.09,166.75 C139.55,181.35 157.44,200.95 166.5,223 C175.62,245.21 191.5,277 167.5,277 " fill="none" id="ModelImpl-backto-ModelBuilder" style="stroke:#A80036;stroke-width:1.0;"/><polygon fill="#A80036" points="118.94,163.14,123.0984,172.0679,122.71,166.4244,128.3535,166.036,118.94,163.14" style="stroke:#A80036;stroke-width:1.0;"/><!--MD5=[4d5573c7ff1a5baf1874a02b6ea8d556]
reverse link ModelImpl to ModelBuilder--><path codeLine="11" d="M123.12,166.73 C139.59,181.33 157.48,200.93 166.5,223 C177.6,250.16 196.84,289 167.5,289 " fill="none" id="ModelImpl-backto-ModelBuilder-1" style="stroke:#A80036;stroke-width:1.0;"/><polygon fill="#A80036" points="118.96,163.13,123.1351,172.0501,122.7361,166.4074,128.3789,166.0084,118.96,163.13" style="stroke:#A80036;stroke-width:1.0;"/><!--MD5=[88b46ec629363cee35999d1baa6c7050]
@startuml
interface Model
 class ModelImpl implements Model
 class ModelBuilder<Builder>
 ModelBuilder : Model build()
 note right of ModelBuilder::build
     method checks required properties
     have been set
 endnote
 ModelBuilder : Model buildUnchecked()
 ModelImpl <- - ModelBuilder::build
 ModelImpl <- - ModelBuilder::buildUnchecked
@enduml

PlantUML version 1.2021.12(Tue Oct 05 16:01:58 UTC 2021)
(GPL source distribution)
Java Runtime: OpenJDK Runtime Environment
JVM: OpenJDK 64-Bit Server VM
Default Encoding: UTF-8
Language: en
Country: null
--></g></svg>